Preview_Amstelvar-Italic-11-opsz_8.00_wght_900.00_wdth_125.00.ufo
<glyph name="quotedbl" format="2">
  <advance width="1073"/>
  <unicode hex="0022"/>
  <outline>
    <contour>
      <point x="182.0" y="914.0" type="line"/>
      <point x="167.0" y="1363.0" type="line" smooth="yes"/>
      <point x="166.0" y="1442.0"/>
      <point x="305.0" y="1562.0"/>
      <point x="393.0" y="1562.0" type="qcurve" smooth="yes"/>
      <point x="487.0" y="1562.0"/>
      <point x="582.0" y="1416.0"/>
      <point x="542.0" y="1348.0" type="qcurve" smooth="yes"/>
      <point x="297.0" y="904.0" type="line"/>
    </contour>
    <contour>
      <point x="662.0" y="914.0" type="line"/>
      <point x="647.0" y="1363.0" type="line" smooth="yes"/>
      <point x="646.0" y="1442.0"/>
      <point x="785.0" y="1562.0"/>
      <point x="873.0" y="1562.0" type="qcurve" smooth="yes"/>
      <point x="966.0" y="1562.0"/>
      <point x="1062.0" y="1416.0"/>
      <point x="1022.0" y="1348.0" type="qcurve" smooth="yes"/>
      <point x="777.0" y="904.0" type="line"/>
    </contour>
  </outline>
</glyph>
<glyph name="percent" format="2">
  <advance width="2459"/>
  <unicode hex="0025"/>
  <outline>
    <contour>
      <point x="-41.0" y="1073.0" type="qcurve" smooth="yes"/>
      <point x="-15.0" y="1265.0"/>
      <point x="309.0" y="1512.0"/>
      <point x="516.0" y="1511.0" type="qcurve" smooth="yes"/>
      <point x="721.0" y="1509.0"/>
      <point x="985.0" y="1276.0"/>
      <point x="957.0" y="1074.0" type="qcurve" smooth="yes"/>
      <point x="932.0" y="882.0"/>
      <point x="598.0" y="631.0"/>
      <point x="393.0" y="631.0" type="qcurve" smooth="yes"/>
      <point x="187.0" y="631.0"/>
      <point x="-69.0" y="867.0"/>
    </contour>
    <contour>
      <point x="255.0" y="1085.0" type="qcurve" smooth="yes"/>
      <point x="237.0" y="950.0"/>
      <point x="312.0" y="775.0"/>
      <point x="418.0" y="775.0" type="qcurve" smooth="yes"/>
      <point x="530.0" y="774.0"/>
      <point x="647.0" y="930.0"/>
      <point x="666.0" y="1073.0" type="qcurve" smooth="yes"/>
      <point x="685.0" y="1202.0"/>
      <point x="587.0" y="1363.0"/>
      <point x="500.0" y="1364.0" type="qcurve" smooth="yes"/>
      <point x="405.0" y="1365.0"/>
      <point x="274.0" y="1221.0"/>
    </contour>
    <contour>
      <point x="328.0" y="29.0" type="line"/>
      <point x="1719.0" y="1533.0" type="line"/>
      <point x="1880.0" y="1391.0" type="line"/>
      <point x="489.0" y="-113.0" type="line"/>
    </contour>
    <contour>
      <point x="1314.0" y="413.0" type="qcurve" smooth="yes"/>
      <point x="1340.0" y="605.0"/>
      <point x="1664.0" y="852.0"/>
      <point x="1871.0" y="851.0" type="qcurve" smooth="yes"/>
      <point x="2076.0" y="849.0"/>
      <point x="2335.0" y="616.0"/>
      <point x="2312.0" y="414.0" type="qcurve" smooth="yes"/>
      <point x="2292.0" y="222.0"/>
      <point x="1953.0" y="-29.0"/>
      <point x="1748.0" y="-29.0" type="qcurve" smooth="yes"/>
      <point x="1542.0" y="-29.0"/>
      <point x="1286.0" y="207.0"/>
    </contour>
    <contour>
      <point x="1610.0" y="425.0" type="qcurve" smooth="yes"/>
      <point x="1592.0" y="290.0"/>
      <point x="1667.0" y="115.0"/>
      <point x="1773.0" y="115.0" type="qcurve" smooth="yes"/>
      <point x="1885.0" y="114.0"/>
      <point x="2008.0" y="270.0"/>
      <point x="2021.0" y="413.0" type="qcurve" smooth="yes"/>
      <point x="2035.0" y="542.0"/>
      <point x="1942.0" y="703.0"/>
      <point x="1855.0" y="704.0" type="qcurve" smooth="yes"/>
      <point x="1760.0" y="705.0"/>
      <point x="1629.0" y="561.0"/>
    </contour>
  </outline>
</glyph>
<glyph name="ampersand" format="2">
  <advance width="2143"/>
  <unicode hex="0026"/>
  <outline>
    <contour>
      <point x="1351.0" y="-35.0" type="line"/>
      <point x="1249.0" y="87.0" type="line"/>
      <point x="1154.0" y="29.0"/>
      <point x="891.0" y="-40.0"/>
      <point x="689.0" y="-40.0" type="qcurve" smooth="yes"/>
      <point x="378.0" y="-40.0"/>
      <point x="58.0" y="218.0"/>
      <point x="92.0" y="414.0" type="qcurve" smooth="yes"/>
      <point x="123.0" y="593.0"/>
      <point x="468.0" y="788.0"/>
      <point x="766.0" y="824.0" type="qcurve"/>
      <point x="619.0" y="855.0"/>
      <point x="397.0" y="1084.0"/>
      <point x="433.0" y="1241.0" type="qcurve" smooth="yes"/>
      <point x="471.0" y="1414.0"/>
      <point x="853.0" y="1593.0"/>
      <point x="1150.0" y="1574.0" type="qcurve" smooth="yes"/>
      <point x="1275.0" y="1565.0"/>
      <point x="1494.0" y="1501.0"/>
      <point x="1519.0" y="1499.0" type="qcurve" smooth="yes"/>
      <point x="1547.0" y="1497.0"/>
      <point x="1582.0" y="1512.0"/>
      <point x="1598.0" y="1526.0" type="qcurve"/>
      <point x="1724.0" y="1526.0" type="line"/>
      <point x="1618.0" y="1129.0" type="line"/>
      <point x="1426.0" y="1129.0" type="line"/>
      <point x="1447.0" y="1269.0" type="line"/>
      <point x="1420.0" y="1324.0"/>
      <point x="1277.0" y="1367.0"/>
      <point x="1208.0" y="1367.0" type="qcurve" smooth="yes"/>
      <point x="1087.0" y="1367.0"/>
      <point x="916.0" y="1287.0"/>
      <point x="895.0" y="1186.0" type="qcurve" smooth="yes"/>
      <point x="860.0" y="1020.0"/>
      <point x="1087.0" y="850.0"/>
      <point x="1312.0" y="850.0" type="qcurve" smooth="yes"/>
      <point x="1619.0" y="850.0"/>
      <point x="1961.0" y="891.0"/>
      <point x="2029.0" y="936.0" type="qcurve"/>
      <point x="2105.0" y="840.0" type="line"/>
      <point x="2079.0" y="768.0"/>
      <point x="1934.0" y="662.0"/>
      <point x="1814.0" y="662.0" type="qcurve" smooth="yes"/>
      <point x="1704.0" y="662.0"/>
      <point x="1216.0" y="682.0"/>
      <point x="1126.0" y="682.0" type="qcurve" smooth="yes"/>
      <point x="898.0" y="682.0"/>
      <point x="588.0" y="553.0"/>
      <point x="557.0" y="398.0" type="qcurve" smooth="yes"/>
      <point x="530.0" y="260.0"/>
      <point x="697.0" y="167.0"/>
      <point x="833.0" y="167.0" type="qcurve" smooth="yes"/>
      <point x="987.0" y="167.0"/>
      <point x="1221.0" y="261.0"/>
      <point x="1279.0" y="455.0" type="qcurve" smooth="yes"/>
      <point x="1362.0" y="758.0" type="line"/>
      <point x="1759.0" y="733.0" type="line"/>
      <point x="1587.0" y="369.0"/>
      <point x="1557.0" y="135.0"/>
      <point x="1621.0" y="17.0" type="qcurve"/>
    </contour>
  </outline>
</glyph>
<glyph name="parenright" format="2">
  <advance width="955"/>
  <unicode hex="0029"/>
  <outline>
    <contour>
      <point x="812.0" y="488.0" type="qcurve" smooth="yes"/>
      <point x="773.0" y="186.0"/>
      <point x="224.0" y="-388.0"/>
      <point x="-49.0" y="-482.0" type="qcurve"/>
      <point x="-193.0" y="-367.0" type="line"/>
      <point x="-64.0" y="-276.0"/>
      <point x="269.0" y="184.0"/>
      <point x="315.0" y="487.0" type="qcurve" smooth="yes"/>
      <point x="361.0" y="788.0"/>
      <point x="205.0" y="1225.0"/>
      <point x="52.0" y="1376.0" type="qcurve"/>
      <point x="212.0" y="1495.0" type="line"/>
      <point x="510.0" y="1340.0"/>
      <point x="854.0" y="812.0"/>
    </contour>
  </outline>
</glyph>
<glyph name="hyphen" format="2">
  <advance width="1268"/>
  <unicode hex="002D"/>
  <outline>
    <contour>
      <point x="-2.0" y="494.0" type="line"/>
      <point x="-2.0" y="872.0" type="line"/>
      <point x="517.0" y="868.0" type="line"/>
      <point x="1056.0" y="872.0" type="line"/>
      <point x="1056.0" y="494.0" type="line"/>
      <point x="517.0" y="498.0" type="line"/>
    </contour>
  </outline>
</glyph>
<glyph name="slash" format="2">
  <advance width="901"/>
  <unicode hex="002F"/>
  <outline>
    <contour>
      <point x="-111.0" y="-64.0" type="line"/>
      <point x="741.0" y="1614.0" type="line"/>
      <point x="1052.0" y="1495.0" type="line"/>
      <point x="201.0" y="-181.0" type="line"/>
    </contour>
  </outline>
</glyph>
<glyph name="one" format="2">
  <advance width="1103"/>
  <unicode hex="0031"/>
  <outline>
    <contour>
      <point x="114.0" y="45.0" type="line"/>
      <point x="136.0" y="107.0"/>
      <point x="168.0" y="215.0"/>
      <point x="190.0" y="322.0" type="qcurve" smooth="yes"/>
      <point x="333.0" y="986.0" type="line"/>
      <point x="361.0" y="1137.0" type="line"/>
      <point x="45.0" y="1004.0" type="line"/>
      <point x="-22.0" y="1215.0" type="line"/>
      <point x="716.0" y="1526.0" type="line"/>
      <point x="895.0" y="1421.0" type="line"/>
      <point x="878.0" y="1374.0"/>
      <point x="855.0" y="1238.0"/>
      <point x="851.0" y="1215.0" type="qcurve" smooth="yes"/>
      <point x="752.0" y="720.0" type="line"/>
      <point x="681.0" y="151.0" type="line"/>
      <point x="307.0" y="-33.0" type="line"/>
    </contour>
  </outline>
</glyph>
<glyph name="two" format="2">
  <advance width="1525"/>
  <unicode hex="0032"/>
  <outline>
    <contour>
      <point x="-78.0" y="12.0" type="qcurve"/>
      <point x="-168.0" y="138.0" type="line"/>
      <point x="-2.0" y="244.0" type="line" smooth="yes"/>
      <point x="355.0" y="417.0"/>
      <point x="871.0" y="879.0"/>
      <point x="874.0" y="1064.0" type="qcurve" smooth="yes"/>
      <point x="875.0" y="1154.0"/>
      <point x="692.0" y="1271.0"/>
      <point x="561.0" y="1271.0" type="qcurve" smooth="yes"/>
      <point x="442.0" y="1271.0"/>
      <point x="235.0" y="1180.0"/>
      <point x="158.0" y="1089.0" type="qcurve"/>
      <point x="39.0" y="1233.0" type="line"/>
      <point x="155.0" y="1407.0"/>
      <point x="471.0" y="1520.0"/>
      <point x="719.0" y="1520.0" type="qcurve" smooth="yes"/>
      <point x="1012.0" y="1520.0"/>
      <point x="1301.0" y="1315.0"/>
      <point x="1314.0" y="1161.0" type="qcurve" smooth="yes"/>
      <point x="1338.0" y="819.0"/>
      <point x="414.0" y="200.0"/>
      <point x="465.0" y="328.0" type="qcurve"/>
      <point x="464.0" y="325.0" type="line"/>
      <point x="507.0" y="338.0"/>
      <point x="570.0" y="350.0"/>
      <point x="613.0" y="363.0" type="qcurve"/>
      <point x="835.0" y="338.0"/>
      <point x="905.0" y="350.0"/>
      <point x="1056.0" y="337.0" type="qcurve"/>
      <point x="1176.0" y="477.0" type="line"/>
      <point x="1363.0" y="450.0" type="line"/>
      <point x="1176.0" y="-20.0" type="line"/>
      <point x="1021.0" y="13.0"/>
      <point x="654.0" y="53.0"/>
      <point x="473.0" y="54.0" type="qcurve" smooth="yes"/>
      <point x="358.0" y="55.0"/>
      <point x="15.0" y="29.0"/>
    </contour>
  </outline>
</glyph>
<glyph name="four" format="2">
  <advance width="1484"/>
  <unicode hex="0034"/>
  <outline>
    <contour>
      <point x="-100.0" y="395.0" type="line"/>
      <point x="-100.0" y="540.0" type="line"/>
      <point x="1048.0" y="1551.0" type="line"/>
      <point x="1296.0" y="1449.0" type="line"/>
      <point x="1351.0" y="1404.0" type="line"/>
      <point x="1180.0" y="503.0" type="line"/>
      <point x="1174.0" y="472.0" type="line"/>
      <point x="1125.0" y="176.0" type="line"/>
      <point x="1125.0" y="18.0" type="line"/>
      <point x="648.0" y="-34.0" type="line"/>
      <point x="618.0" y="31.0" type="line"/>
      <point x="722.0" y="485.0" type="line"/>
      <point x="729.0" y="517.0" type="line"/>
      <point x="836.0" y="1068.0" type="line"/>
      <point x="255.0" y="610.0" type="line"/>
      <point x="259.0" y="600.0" type="line"/>
      <point x="994.0" y="593.0" type="line"/>
      <point x="1341.0" y="600.0" type="line"/>
      <point x="1309.0" y="394.0" type="line"/>
      <point x="959.0" y="386.0" type="line"/>
    </contour>
  </outline>
</glyph>
<glyph name="eight" format="2">
  <advance width="1673"/>
  <unicode hex="0038"/>
  <outline>
    <contour>
      <point x="-80.0" y="325.0" type="qcurve" smooth="yes"/>
      <point x="-89.0" y="497.0"/>
      <point x="310.0" y="773.0"/>
      <point x="642.0" y="871.0" type="qcurve"/>
      <point x="798.0" y="759.0" type="line"/>
      <point x="592.0" y="685.0"/>
      <point x="296.0" y="485.0"/>
      <point x="303.0" y="344.0" type="qcurve" smooth="yes"/>
      <point x="309.0" y="253.0"/>
      <point x="469.0" y="161.0"/>
      <point x="642.0" y="161.0" type="qcurve" smooth="yes"/>
      <point x="840.0" y="161.0"/>
      <point x="1039.0" y="268.0"/>
      <point x="1039.0" y="388.0" type="qcurve" smooth="yes"/>
      <point x="1039.0" y="467.0"/>
      <point x="731.0" y="658.0"/>
      <point x="621.0" y="695.0" type="qcurve" smooth="yes"/>
      <point x="432.0" y="774.0"/>
      <point x="217.0" y="980.0"/>
      <point x="209.0" y="1127.0" type="qcurve" smooth="yes"/>
      <point x="201.0" y="1286.0"/>
      <point x="529.0" y="1552.0"/>
      <point x="948.0" y="1552.0" type="qcurve" smooth="yes"/>
      <point x="1230.0" y="1552.0"/>
      <point x="1510.0" y="1335.0"/>
      <point x="1501.0" y="1174.0" type="qcurve" smooth="yes"/>
      <point x="1492.0" y="1018.0"/>
      <point x="1206.0" y="869.0"/>
      <point x="918.0" y="785.0" type="qcurve"/>
      <point x="749.0" y="900.0" type="line"/>
      <point x="938.0" y="969.0"/>
      <point x="1182.0" y="1075.0"/>
      <point x="1183.0" y="1158.0" type="qcurve" smooth="yes"/>
      <point x="1184.0" y="1231.0"/>
      <point x="1044.0" y="1356.0"/>
      <point x="920.0" y="1356.0" type="qcurve" smooth="yes"/>
      <point x="775.0" y="1356.0"/>
      <point x="624.0" y="1272.0"/>
      <point x="629.0" y="1189.0" type="qcurve" smooth="yes"/>
      <point x="633.0" y="1103.0"/>
      <point x="833.0" y="987.0"/>
      <point x="1012.0" y="912.0" type="qcurve" smooth="yes"/>
      <point x="1278.0" y="772.0"/>
      <point x="1464.0" y="564.0"/>
      <point x="1468.0" y="421.0" type="qcurve" smooth="yes"/>
      <point x="1474.0" y="212.0"/>
      <point x="1024.0" y="-28.0"/>
      <point x="598.0" y="-28.0" type="qcurve" smooth="yes"/>
      <point x="288.0" y="-28.0"/>
      <point x="-72.0" y="166.0"/>
    </contour>
  </outline>
</glyph>
<glyph name="semicolon" format="2">
  <advance width="693"/>
  <unicode hex="003B"/>
  <outline>
    <contour>
      <point x="107.0" y="824.0" type="qcurve" smooth="yes"/>
      <point x="107.0" y="922.0"/>
      <point x="248.0" y="1063.0"/>
      <point x="358.0" y="1063.0" type="qcurve" smooth="yes"/>
      <point x="467.0" y="1063.0"/>
      <point x="609.0" y="922.0"/>
      <point x="609.0" y="824.0" type="qcurve" smooth="yes"/>
      <point x="609.0" y="731.0"/>
      <point x="467.0" y="589.0"/>
      <point x="358.0" y="589.0" type="qcurve" smooth="yes"/>
      <point x="248.0" y="589.0"/>
      <point x="107.0" y="731.0"/>
    </contour>
    <contour>
      <point x="-13.0" y="-243.0" type="line"/>
      <point x="69.0" y="-194.0"/>
      <point x="215.0" y="-66.0"/>
      <point x="243.0" y="3.0" type="qcurve"/>
      <point x="124.0" y="3.0"/>
      <point x="-11.0" y="126.0"/>
      <point x="-11.0" y="223.0" type="qcurve" smooth="yes"/>
      <point x="-11.0" y="317.0"/>
      <point x="139.0" y="459.0"/>
      <point x="244.0" y="459.0" type="qcurve" smooth="yes"/>
      <point x="349.0" y="459.0"/>
      <point x="487.0" y="328.0"/>
      <point x="487.0" y="188.0" type="qcurve" smooth="yes"/>
      <point x="487.0" y="27.0"/>
      <point x="269.0" y="-254.0"/>
      <point x="80.0" y="-359.0" type="qcurve"/>
    </contour>
  </outline>
</glyph>
<glyph name="greater" format="2">
  <advance width="967"/>
  <unicode hex="003E"/>
  <outline>
    <contour>
      <point x="852.0" y="530.0" type="qcurve"/>
      <point x="931.0" y="586.0"/>
      <point x="122.08955223880594" y="74.38805970149258"/>
      <point x="-17.0" y="-19.0" type="qcurve" smooth="yes"/>
      <point x="-129.0" y="-100.0"/>
      <point x="-241.0" y="120.0"/>
      <point x="-145.0" y="203.0" type="qcurve" smooth="yes"/>
      <point x="-42.0" y="278.0"/>
      <point x="267.0" y="473.0"/>
      <point x="314.0" y="540.0" type="qcurve"/>
      <point x="252.0" y="641.0"/>
      <point x="31.0" y="889.0"/>
      <point x="-42.0" y="950.0" type="qcurve"/>
      <point x="-109.0" y="1032.0"/>
      <point x="39.0" y="1192.0"/>
      <point x="105.0" y="1122.0" type="qcurve" smooth="yes"/>
      <point x="181.0" y="1043.0"/>
      <point x="924.0" y="470.0"/>
    </contour>
  </outline>
</glyph>
<glyph name="question" format="2">
  <advance width="1512"/>
  <unicode hex="003F"/>
  <outline>
    <contour>
      <point x="176.0" y="1202.0" type="qcurve" smooth="yes"/>
      <point x="201.0" y="1345.0"/>
      <point x="560.0" y="1524.0"/>
      <point x="823.0" y="1524.0" type="qcurve" smooth="yes"/>
      <point x="1150.0" y="1524.0"/>
      <point x="1444.0" y="1280.0"/>
      <point x="1432.0" y="1101.0" type="qcurve" smooth="yes"/>
      <point x="1420.0" y="927.0"/>
      <point x="1164.0" y="737.0"/>
      <point x="1032.0" y="760.0" type="qcurve" smooth="yes"/>
      <point x="829.0" y="700.0"/>
      <point x="561.0" y="623.0"/>
      <point x="534.0" y="542.0" type="qcurve" smooth="yes"/>
      <point x="533.0" y="537.0" type="line"/>
      <point x="338.0" y="537.0" type="line"/>
      <point x="331.0" y="579.0" type="line" smooth="yes"/>
      <point x="327.0" y="689.0"/>
      <point x="521.0" y="872.0"/>
      <point x="736.0" y="962.0" type="qcurve" smooth="yes"/>
      <point x="837.0" y="988.0"/>
      <point x="936.0" y="1046.0"/>
      <point x="947.0" y="1141.0" type="qcurve" smooth="yes"/>
      <point x="957.0" y="1223.0"/>
      <point x="817.0" y="1323.0"/>
      <point x="717.0" y="1323.0" type="qcurve" smooth="yes"/>
      <point x="583.0" y="1323.0"/>
      <point x="445.0" y="1294.0"/>
      <point x="433.0" y="1240.0" type="qcurve" smooth="yes"/>
      <point x="425.0" y="1203.0"/>
      <point x="524.0" y="1135.0"/>
      <point x="523.0" y="1062.0" type="qcurve" smooth="yes"/>
      <point x="522.0" y="1005.0"/>
      <point x="424.0" y="927.0"/>
      <point x="340.0" y="927.0" type="qcurve" smooth="yes"/>
      <point x="253.0" y="927.0"/>
      <point x="151.0" y="1060.0"/>
    </contour>
    <contour>
      <point x="135.0" y="200.0" type="qcurve" smooth="yes"/>
      <point x="135.0" y="290.0"/>
      <point x="268.0" y="426.0"/>
      <point x="373.0" y="426.0" type="qcurve" smooth="yes"/>
      <point x="478.0" y="426.0"/>
      <point x="613.0" y="290.0"/>
      <point x="613.0" y="200.0" type="qcurve" smooth="yes"/>
      <point x="613.0" y="110.0"/>
      <point x="478.0" y="-25.0"/>
      <point x="373.0" y="-25.0" type="qcurve" smooth="yes"/>
      <point x="268.0" y="-25.0"/>
      <point x="135.0" y="110.0"/>
    </contour>
  </outline>
</glyph>
<glyph name="B" format="2">
  <advance width="2147"/>
  <unicode hex="0042"/>
  <outline>
    <contour>
      <point x="-27.0" y="0.0" type="line"/>
      <point x="0.0" y="176.0" type="line"/>
      <point x="138.0" y="187.0" type="line"/>
      <point x="272.0" y="819.0" type="line"/>
      <point x="386.0" y="1288.0" type="line"/>
      <point x="189.0" y="1311.0" type="line"/>
      <point x="216.0" y="1500.0" type="line"/>
      <point x="1551.0" y="1500.0" type="line" smooth="yes"/>
      <point x="1758.0" y="1500.0"/>
      <point x="2010.0" y="1332.0"/>
      <point x="2001.0" y="1163.0" type="qcurve" smooth="yes"/>
      <point x="1993.0" y="1016.0"/>
      <point x="1798.0" y="854.0"/>
      <point x="1672.0" y="830.0" type="qcurve"/>
      <point x="1671.0" y="823.0" type="line"/>
      <point x="1835.0" y="781.0"/>
      <point x="1994.0" y="574.0"/>
      <point x="1971.0" y="413.0" type="qcurve" smooth="yes"/>
      <point x="1944.0" y="226.0"/>
      <point x="1688.0" y="0.0"/>
      <point x="1384.0" y="0.0" type="qcurve" smooth="yes"/>
    </contour>
    <contour>
      <point x="714.0" y="206.0" type="line"/>
      <point x="747.0" y="177.0" type="line"/>
      <point x="1132.0" y="177.0" type="line" smooth="yes"/>
      <point x="1270.0" y="177.0"/>
      <point x="1449.0" y="313.0"/>
      <point x="1466.0" y="420.0" type="qcurve" smooth="yes"/>
      <point x="1487.0" y="548.0"/>
      <point x="1337.0" y="708.0"/>
      <point x="1208.0" y="708.0" type="qcurve" smooth="yes"/>
      <point x="802.0" y="708.0" type="line"/>
      <point x="800.0" y="694.0" type="line"/>
    </contour>
    <contour>
      <point x="841.0" y="897.0" type="line"/>
      <point x="836.0" y="874.0" type="line"/>
      <point x="1237.0" y="874.0" type="line" smooth="yes"/>
      <point x="1346.0" y="874.0"/>
      <point x="1501.0" y="990.0"/>
      <point x="1518.0" y="1118.0" type="qcurve" smooth="yes"/>
      <point x="1533.0" y="1224.0"/>
      <point x="1404.0" y="1316.0"/>
      <point x="1298.0" y="1316.0" type="qcurve" smooth="yes"/>
      <point x="973.0" y="1316.0" type="line"/>
      <point x="944.0" y="1298.0" type="line"/>
    </contour>
  </outline>
</glyph>
<glyph name="C" format="2">
  <advance width="1958"/>
  <unicode hex="0043"/>
  <outline>
    <contour>
      <point x="117.0" y="809.0" type="qcurve" smooth="yes"/>
      <point x="187.0" y="1202.0"/>
      <point x="831.0" y="1581.0"/>
      <point x="1450.0" y="1532.0" type="qcurve" smooth="yes"/>
      <point x="1611.0" y="1517.0"/>
      <point x="1859.0" y="1456.0"/>
      <point x="1914.0" y="1441.0" type="qcurve"/>
      <point x="1949.0" y="1429.0" type="line"/>
      <point x="1980.0" y="1415.0" type="line"/>
      <point x="1892.0" y="947.0" type="line"/>
      <point x="1682.0" y="947.0" type="line"/>
      <point x="1694.0" y="1243.0" type="line"/>
      <point x="1671.0" y="1255.0"/>
      <point x="1525.0" y="1317.0"/>
      <point x="1437.0" y="1327.0" type="qcurve" smooth="yes"/>
      <point x="1178.0" y="1355.0"/>
      <point x="748.0" y="1090.0"/>
      <point x="703.0" y="754.0" type="qcurve" smooth="yes"/>
      <point x="659.0" y="444.0"/>
      <point x="847.0" y="204.0"/>
      <point x="1122.0" y="178.0" type="qcurve" smooth="yes"/>
      <point x="1325.0" y="160.0"/>
      <point x="1635.0" y="298.0"/>
      <point x="1744.0" y="381.0" type="qcurve"/>
      <point x="1796.0" y="357.0" type="line"/>
      <point x="1874.0" y="219.0" type="line"/>
      <point x="1744.0" y="104.0"/>
      <point x="1300.0" y="-56.0"/>
      <point x="1024.0" y="-50.0" type="qcurve" smooth="yes"/>
      <point x="527.0" y="-30.0"/>
      <point x="43.0" y="392.0"/>
    </contour>
  </outline>
</glyph>
<glyph name="D" format="2">
  <advance width="2382"/>
  <unicode hex="0044"/>
  <outline>
    <contour>
      <point x="-57.0" y="0.0" type="line"/>
      <point x="-24.0" y="178.0" type="line"/>
      <point x="124.0" y="193.0" type="line"/>
      <point x="262.0" y="807.0" type="line"/>
      <point x="358.0" y="1293.0" type="line"/>
      <point x="170.0" y="1315.0" type="line"/>
      <point x="195.0" y="1500.0" type="line"/>
      <point x="1272.0" y="1500.0" type="line" smooth="yes"/>
      <point x="1728.0" y="1500.0"/>
      <point x="2194.0" y="1121.0"/>
      <point x="2173.0" y="744.0" type="qcurve" smooth="yes"/>
      <point x="2160.0" y="412.0"/>
      <point x="1560.0" y="0.0"/>
      <point x="1088.0" y="0.0" type="qcurve" smooth="yes"/>
    </contour>
    <contour>
      <point x="702.0" y="205.0" type="line"/>
      <point x="727.0" y="196.0"/>
      <point x="957.0" y="192.0"/>
      <point x="1018.0" y="193.0" type="qcurve" smooth="yes"/>
      <point x="1264.0" y="197.0"/>
      <point x="1569.0" y="487.0"/>
      <point x="1598.0" y="773.0" type="qcurve" smooth="yes"/>
      <point x="1626.0" y="1057.0"/>
      <point x="1421.0" y="1322.0"/>
      <point x="1169.0" y="1318.0" type="qcurve" smooth="yes"/>
      <point x="1098.0" y="1316.0"/>
      <point x="960.0" y="1312.0"/>
      <point x="921.0" y="1305.0" type="qcurve"/>
      <point x="810.0" y="754.0" type="line"/>
    </contour>
  </outline>
</glyph>
<glyph name="H" format="2">
  <advance width="2688"/>
  <unicode hex="0048"/>
  <outline>
    <contour>
      <point x="-37.0" y="0.0" type="line"/>
      <point x="-1.0" y="177.0" type="line"/>
      <point x="156.0" y="197.0" type="line"/>
      <point x="278.0" y="806.0" type="line"/>
      <point x="370.0" y="1289.0" type="line"/>
      <point x="180.0" y="1311.0" type="line"/>
      <point x="205.0" y="1500.0" type="line"/>
      <point x="1137.0" y="1500.0" type="line"/>
      <point x="1102.0" y="1312.0" type="line"/>
      <point x="938.0" y="1289.0" type="line"/>
      <point x="837.0" y="777.0" type="line"/>
      <point x="730.0" y="197.0" type="line"/>
      <point x="901.0" y="177.0" type="line"/>
      <point x="875.0" y="0.0" type="line"/>
    </contour>
    <contour>
      <point x="532.0" y="672.0" type="line"/>
      <point x="564.0" y="876.0" type="line"/>
      <point x="1261.0" y="873.0" type="line"/>
      <point x="1933.0" y="876.0" type="line"/>
      <point x="1901.0" y="672.0" type="line"/>
      <point x="1227.0" y="661.0" type="line"/>
    </contour>
    <contour>
      <point x="1415.0" y="0.0" type="line"/>
      <point x="1451.0" y="177.0" type="line"/>
      <point x="1622.0" y="197.0" type="line"/>
      <point x="1736.0" y="772.0" type="line"/>
      <point x="1830.0" y="1289.0" type="line"/>
      <point x="1676.0" y="1312.0" type="line"/>
      <point x="1701.0" y="1501.0" type="line"/>
      <point x="2619.0" y="1501.0" type="line"/>
      <point x="2584.0" y="1312.0" type="line"/>
      <point x="2401.0" y="1289.0" type="line"/>
      <point x="2294.0" y="755.0" type="line"/>
      <point x="2193.0" y="197.0" type="line"/>
      <point x="2383.0" y="177.0" type="line"/>
      <point x="2357.0" y="0.0" type="line"/>
    </contour>
  </outline>
</glyph>
<glyph name="I" format="2">
  <advance width="1203"/>
  <unicode hex="0049"/>
  <outline>
    <contour>
      <point x="-37.0" y="0.0" type="line"/>
      <point x="-5.0" y="166.0" type="line"/>
      <point x="144.0" y="181.0" type="line"/>
      <point x="291.0" y="858.0" type="line"/>
      <point x="367.0" y="1288.0" type="line"/>
      <point x="191.0" y="1311.0" type="line"/>
      <point x="215.0" y="1500.0" type="line"/>
      <point x="1128.0" y="1500.0" type="line"/>
      <point x="1094.0" y="1311.0" type="line"/>
      <point x="940.0" y="1288.0" type="line"/>
      <point x="842.0" y="826.0" type="line"/>
      <point x="717.0" y="180.0" type="line"/>
      <point x="878.0" y="166.0" type="line"/>
      <point x="866.0" y="0.0" type="line"/>
    </contour>
  </outline>
</glyph>
<glyph name="K" format="2">
  <advance width="2408"/>
  <unicode hex="004B"/>
  <outline>
    <contour>
      <point x="-27.0" y="0.0" type="line"/>
      <point x="14.0" y="171.0" type="line"/>
      <point x="162.0" y="186.0" type="line"/>
      <point x="305.0" y="858.0" type="line"/>
      <point x="377.0" y="1289.0" type="line"/>
      <point x="192.0" y="1311.0" type="line"/>
      <point x="215.0" y="1500.0" type="line"/>
      <point x="1156.0" y="1500.0" type="line"/>
      <point x="1113.0" y="1311.0" type="line"/>
      <point x="947.0" y="1289.0" type="line"/>
      <point x="854.0" y="826.0" type="line"/>
      <point x="727.0" y="186.0" type="line"/>
      <point x="905.0" y="171.0" type="line"/>
      <point x="877.0" y="0.0" type="line"/>
    </contour>
    <contour>
      <point x="674.0" y="443.0" type="line"/>
      <point x="719.0" y="691.0" type="line"/>
      <point x="1735.0" y="1326.0" type="line"/>
      <point x="1552.0" y="1317.0" type="line"/>
      <point x="1581.0" y="1500.0" type="line"/>
      <point x="2282.0" y="1500.0" type="line"/>
      <point x="2253.0" y="1329.0" type="line"/>
      <point x="2095.0" y="1320.0" type="line"/>
    </contour>
    <contour>
      <point x="975.0" y="761.0" type="line"/>
      <point x="1415.0" y="1056.0" type="line"/>
      <point x="2116.0" y="178.0" type="line"/>
      <point x="2294.0" y="163.0" type="line"/>
      <point x="2276.0" y="0.0" type="line"/>
      <point x="1315.0" y="0.0" type="line"/>
      <point x="1337.0" y="163.0" type="line"/>
      <point x="1492.0" y="178.0" type="line"/>
    </contour>
  </outline>
</glyph>
<glyph name="L" format="2">
  <advance width="1825"/>
  <unicode hex="004C"/>
  <outline>
    <contour>
      <point x="-44.0" y="0.0" type="line"/>
      <point x="5.0" y="173.0" type="line"/>
      <point x="143.0" y="191.0" type="line"/>
      <point x="277.0" y="806.0" type="line"/>
      <point x="361.0" y="1308.0" type="line"/>
      <point x="183.0" y="1311.0" type="line"/>
      <point x="207.0" y="1500.0" type="line"/>
      <point x="1149.0" y="1500.0" type="line"/>
      <point x="1105.0" y="1311.0" type="line"/>
      <point x="933.0" y="1308.0" type="line"/>
      <point x="835.0" y="754.0" type="line"/>
      <point x="732.0" y="233.0" type="line"/>
      <point x="760.0" y="206.0" type="line"/>
      <point x="1352.0" y="206.0" type="line"/>
      <point x="1535.0" y="489.0" type="line"/>
      <point x="1736.0" y="489.0" type="line"/>
      <point x="1545.0" y="0.0" type="line"/>
    </contour>
  </outline>
</glyph>
<glyph name="M" format="2">
  <advance width="2793"/>
  <unicode hex="004D"/>
  <outline>
    <contour>
      <point x="-66.0" y="0.0" type="line"/>
      <point x="-26.0" y="184.0" type="line"/>
      <point x="143.0" y="224.0" type="line"/>
      <point x="258.0" y="754.0" type="line"/>
      <point x="363.0" y="1269.0" type="line"/>
      <point x="158.0" y="1305.0" type="line"/>
      <point x="198.0" y="1500.0" type="line"/>
      <point x="1031.0" y="1500.0" type="line"/>
      <point x="1166.0" y="927.0" type="line"/>
      <point x="1260.0" y="485.0" type="line"/>
      <point x="1543.0" y="899.0" type="line"/>
      <point x="1909.0" y="1500.0" type="line"/>
      <point x="2753.0" y="1500.0" type="line"/>
      <point x="2716.0" y="1308.0" type="line"/>
      <point x="2546.0" y="1276.0" type="line"/>
      <point x="2438.0" y="771.0" type="line"/>
      <point x="2335.0" y="209.0" type="line"/>
      <point x="2523.0" y="184.0" type="line"/>
      <point x="2499.0" y="0.0" type="line"/>
      <point x="1556.0" y="0.0" type="line"/>
      <point x="1600.0" y="184.0" type="line"/>
      <point x="1758.0" y="209.0" type="line"/>
      <point x="1882.0" y="786.0" type="line"/>
      <point x="1958.0" y="1182.0" type="line"/>
      <point x="1671.0" y="724.0" type="line"/>
      <point x="1249.0" y="0.0" type="line"/>
      <point x="786.0" y="0.0" type="line"/>
      <point x="667.0" y="677.0" type="line"/>
      <point x="550.0" y="1207.0" type="line"/>
      <point x="467.0" y="754.0" type="line"/>
      <point x="354.0" y="224.0" type="line"/>
      <point x="530.0" y="184.0" type="line"/>
      <point x="503.0" y="0.0" type="line"/>
    </contour>
  </outline>
</glyph>
<glyph name="N" format="2">
  <advance width="2362"/>
  <unicode hex="004E"/>
  <outline>
    <contour>
      <point x="-74.0" y="0.0" type="line"/>
      <point x="-30.0" y="186.0" type="line"/>
      <point x="144.0" y="203.0" type="line"/>
      <point x="259.0" y="754.0" type="line"/>
      <point x="365.0" y="1293.0" type="line"/>
      <point x="158.0" y="1307.0" type="line"/>
      <point x="197.0" y="1500.0" type="line"/>
      <point x="992.0" y="1500.0" type="line"/>
      <point x="1398.0" y="912.0" type="line"/>
      <point x="1735.0" y="453.0" type="line"/>
      <point x="1807.0" y="822.0" type="line"/>
      <point x="1891.0" y="1277.0" type="line"/>
      <point x="1683.0" y="1311.0" type="line"/>
      <point x="1716.0" y="1500.0" type="line"/>
      <point x="2367.0" y="1500.0" type="line"/>
      <point x="2336.0" y="1310.0" type="line"/>
      <point x="2149.0" y="1276.0" type="line"/>
      <point x="2049.0" y="779.0" type="line"/>
      <point x="1898.0" y="0.0" type="line"/>
      <point x="1361.0" y="0.0" type="line"/>
      <point x="920.0" y="614.0" type="line"/>
      <point x="580.0" y="1106.0" type="line"/>
      <point x="499.0" y="701.0" type="line"/>
      <point x="395.0" y="206.0" type="line"/>
      <point x="611.0" y="183.0" type="line"/>
      <point x="572.0" y="0.0" type="line"/>
    </contour>
  </outline>
</glyph>
<glyph name="T" format="2">
  <advance width="2135"/>
  <unicode hex="0054"/>
  <outline>
    <contour>
      <point x="74.0" y="1044.0" type="line"/>
      <point x="158.0" y="1500.0" type="line"/>
      <point x="2116.0" y="1500.0" type="line"/>
      <point x="2042.0" y="1044.0" type="line"/>
      <point x="1817.0" y="1044.0" type="line"/>
      <point x="1819.0" y="1302.0" type="line"/>
      <point x="1401.0" y="1302.0" type="line"/>
      <point x="1379.0" y="1282.0" type="line"/>
      <point x="1277.0" y="754.0" type="line"/>
      <point x="1175.0" y="188.0" type="line"/>
      <point x="1377.0" y="170.0" type="line"/>
      <point x="1352.0" y="0.0" type="line"/>
      <point x="383.0" y="0.0" type="line"/>
      <point x="429.0" y="170.0" type="line"/>
      <point x="606.0" y="188.0" type="line"/>
      <point x="711.0" y="754.0" type="line"/>
      <point x="817.0" y="1282.0" type="line"/>
      <point x="813.0" y="1302.0" type="line"/>
      <point x="385.0" y="1302.0" type="line"/>
      <point x="299.0" y="1044.0" type="line"/>
    </contour>
  </outline>
</glyph>
<glyph name="V" format="2">
  <advance width="2321"/>
  <unicode hex="0056"/>
  <outline>
    <contour>
      <point x="118.0" y="1312.0" type="line"/>
      <point x="147.0" y="1500.0" type="line"/>
      <point x="1153.0" y="1500.0" type="line"/>
      <point x="1124.0" y="1312.0" type="line"/>
      <point x="911.0" y="1275.0" type="line"/>
      <point x="988.0" y="845.0" type="line"/>
      <point x="1079.0" y="364.0" type="line"/>
      <point x="1094.0" y="364.0" type="line"/>
      <point x="1485.0" y="852.0" type="line"/>
      <point x="1811.0" y="1267.0" type="line"/>
      <point x="1601.0" y="1311.0" type="line"/>
      <point x="1643.0" y="1500.0" type="line"/>
      <point x="2346.0" y="1500.0" type="line"/>
      <point x="2294.0" y="1311.0" type="line"/>
      <point x="2089.0" y="1273.0" type="line"/>
      <point x="1691.0" y="795.0" type="line"/>
      <point x="1087.0" y="0.0" type="line"/>
      <point x="531.0" y="0.0" type="line"/>
      <point x="446.0" y="759.0" type="line"/>
      <point x="346.0" y="1273.0" type="line"/>
    </contour>
  </outline>
</glyph>
<glyph name="W" format="2">
  <advance width="3343"/>
  <unicode hex="0057"/>
  <outline>
    <contour>
      <point x="176.0" y="1312.0" type="line"/>
      <point x="196.0" y="1500.0" type="line"/>
      <point x="1068.0" y="1500.0" type="line"/>
      <point x="1048.0" y="1312.0" type="line"/>
      <point x="875.0" y="1274.0" type="line"/>
      <point x="927.0" y="842.0" type="line"/>
      <point x="992.0" y="416.0" type="line"/>
      <point x="1015.0" y="416.0" type="line"/>
      <point x="1326.0" y="815.0" type="line"/>
      <point x="1602.0" y="1186.0" type="line"/>
      <point x="1691.0" y="930.0" type="line"/>
      <point x="1477.0" y="678.0" type="line"/>
      <point x="994.0" y="0.0" type="line"/>
      <point x="486.0" y="0.0" type="line"/>
      <point x="401.0" y="736.0" type="line"/>
      <point x="327.0" y="1274.0" type="line"/>
    </contour>
    <contour>
      <point x="1310.0" y="1307.0" type="line"/>
      <point x="1332.0" y="1500.0" type="line"/>
      <point x="2198.0" y="1500.0" type="line"/>
      <point x="2176.0" y="1315.0" type="line"/>
      <point x="1977.0" y="1270.0" type="line"/>
      <point x="2017.0" y="857.0" type="line"/>
      <point x="2064.0" y="431.0" type="line"/>
      <point x="2090.0" y="431.0" type="line"/>
      <point x="2430.0" y="858.0" type="line"/>
      <point x="2782.0" y="1264.0" type="line"/>
      <point x="2613.0" y="1312.0" type="line"/>
      <point x="2658.0" y="1500.0" type="line"/>
      <point x="3309.0" y="1500.0" type="line"/>
      <point x="3264.0" y="1312.0" type="line"/>
      <point x="3044.0" y="1270.0" type="line"/>
      <point x="2644.0" y="802.0" type="line"/>
      <point x="2069.0" y="0.0" type="line"/>
      <point x="1578.0" y="0.0" type="line"/>
      <point x="1538.0" y="717.0" type="line"/>
      <point x="1474.0" y="1270.0" type="line"/>
    </contour>
  </outline>
</glyph>
<glyph name="Y" format="2">
  <advance width="2211"/>
  <unicode hex="0059"/>
  <outline>
    <contour>
      <point x="117.0" y="1316.0" type="line"/>
      <point x="129.0" y="1500.0" type="line"/>
      <point x="1082.0" y="1500.0" type="line"/>
      <point x="1070.0" y="1316.0" type="line"/>
      <point x="886.0" y="1288.0" type="line"/>
      <point x="1026.0" y="1079.0" type="line"/>
      <point x="1192.0" y="770.0" type="line"/>
      <point x="1461.0" y="1064.0" type="line"/>
      <point x="1671.0" y="1272.0" type="line"/>
      <point x="1520.0" y="1311.0" type="line"/>
      <point x="1569.0" y="1500.0" type="line"/>
      <point x="2180.0" y="1500.0" type="line"/>
      <point x="2130.0" y="1311.0" type="line"/>
      <point x="1925.0" y="1270.0" type="line"/>
      <point x="1653.0" y="1020.0" type="line"/>
      <point x="1249.0" y="572.0" type="line"/>
      <point x="1173.0" y="194.0" type="line"/>
      <point x="1385.0" y="169.0" type="line"/>
      <point x="1351.0" y="0.0" type="line"/>
      <point x="362.0" y="0.0" type="line"/>
      <point x="405.0" y="169.0" type="line"/>
      <point x="629.0" y="194.0" type="line"/>
      <point x="706.0" y="561.0" type="line"/>
      <point x="484.0" y="984.0" type="line"/>
      <point x="279.0" y="1275.0" type="line"/>
    </contour>
  </outline>
</glyph>
<glyph name="Z" format="2">
  <advance width="1998"/>
  <unicode hex="005A"/>
  <outline>
    <contour>
      <point x="-19.0" y="0.0" type="line"/>
      <point x="-41.0" y="132.0" type="line"/>
      <point x="676.0" y="819.0" type="line"/>
      <point x="1210.0" y="1294.0" type="line"/>
      <point x="1201.0" y="1309.0" type="line"/>
      <point x="473.0" y="1309.0" type="line"/>
      <point x="371.0" y="1084.0" type="line"/>
      <point x="152.0" y="1084.0" type="line"/>
      <point x="235.0" y="1500.0" type="line"/>
      <point x="1924.0" y="1500.0" type="line"/>
      <point x="1909.0" y="1359.0" type="line"/>
      <point x="1210.0" y="727.0" type="line"/>
      <point x="664.0" y="226.0" type="line"/>
      <point x="673.0" y="207.0" type="line"/>
      <point x="1497.0" y="207.0" type="line"/>
      <point x="1631.0" y="525.0" type="line"/>
      <point x="1878.0" y="525.0" type="line"/>
      <point x="1701.0" y="0.0" type="line"/>
    </contour>
  </outline>
</glyph>
<glyph name="bracketleft" format="2">
  <advance width="844"/>
  <unicode hex="005B"/>
  <outline>
    <contour>
      <point x="48.0" y="508.0" type="line"/>
      <point x="202.0" y="1362.0" type="line"/>
      <point x="196.0" y="1382.0" type="line"/>
      <point x="219.0" y="1500.0" type="line"/>
      <point x="896.0" y="1500.0" type="line"/>
      <point x="864.0" y="1349.0" type="line"/>
      <point x="646.0" y="1330.0" type="line"/>
      <point x="482.0" y="508.0" type="line"/>
      <point x="331.0" y="-308.0" type="line"/>
      <point x="543.0" y="-327.0" type="line"/>
      <point x="512.0" y="-480.0" type="line"/>
      <point x="-165.0" y="-480.0" type="line"/>
      <point x="-142.0" y="-362.0" type="line"/>
      <point x="-130.0" y="-342.0" type="line"/>
    </contour>
  </outline>
</glyph>
<glyph name="backslash" format="2">
  <advance width="901"/>
  <unicode hex="005C"/>
  <outline>
    <contour>
      <point x="111.0" y="1568.0" type="line"/>
      <point x="445.0" y="1593.0" type="line"/>
      <point x="701.0" y="-121.0" type="line"/>
      <point x="369.0" y="-151.0" type="line"/>
    </contour>
  </outline>
</glyph>
<glyph name="bracketright" format="2">
  <advance width="844"/>
  <unicode hex="005D"/>
  <outline>
    <contour>
      <point x="-270.0" y="-480.0" type="line"/>
      <point x="-237.0" y="-329.0" type="line"/>
      <point x="-40.0" y="-310.0" type="line"/>
      <point x="125.0" y="512.0" type="line"/>
      <point x="275.0" y="1328.0" type="line"/>
      <point x="84.0" y="1347.0" type="line"/>
      <point x="114.0" y="1500.0" type="line"/>
      <point x="771.0" y="1500.0" type="line"/>
      <point x="748.0" y="1382.0" type="line"/>
      <point x="736.0" y="1362.0" type="line"/>
      <point x="559.0" y="512.0" type="line"/>
      <point x="404.0" y="-342.0" type="line"/>
      <point x="410.0" y="-362.0" type="line"/>
      <point x="387.0" y="-480.0" type="line"/>
    </contour>
  </outline>
</glyph>
<glyph name="a" format="2">
  <advance width="2115"/>
  <unicode hex="0061"/>
  <outline>
    <contour>
      <point x="-1.0" y="329.0" type="qcurve" smooth="yes"/>
      <point x="-10.0" y="669.0"/>
      <point x="654.0" y="1097.0"/>
      <point x="1147.0" y="1097.0" type="qcurve" smooth="yes"/>
      <point x="1245.0" y="1097.0"/>
      <point x="1394.0" y="1079.0"/>
      <point x="1427.0" y="1062.0" type="qcurve"/>
      <point x="1621.0" y="1141.0" type="line"/>
      <point x="1775.0" y="1141.0" type="line"/>
      <point x="1873.0" y="927.0" type="line"/>
      <point x="1744.0" y="415.0" type="line"/>
      <point x="1706.0" y="225.0" type="line"/>
      <point x="1726.0" y="176.0"/>
      <point x="1778.0" y="94.0"/>
      <point x="1836.0" y="46.0" type="qcurve"/>
      <point x="1373.0" y="-18.0" type="line"/>
      <point x="1336.0" y="-2.0"/>
      <point x="1271.0" y="128.0"/>
      <point x="1254.0" y="196.0" type="qcurve"/>
      <point x="1081.0" y="76.0"/>
      <point x="720.0" y="-10.0"/>
      <point x="492.0" y="-10.0" type="qcurve" smooth="yes"/>
      <point x="253.0" y="-10.0"/>
      <point x="6.0" y="148.0"/>
    </contour>
    <contour>
      <point x="540.0" y="382.0" type="qcurve" smooth="yes"/>
      <point x="543.0" y="279.0"/>
      <point x="650.0" y="239.0"/>
      <point x="741.0" y="239.0" type="qcurve" smooth="yes"/>
      <point x="916.0" y="239.0"/>
      <point x="1260.0" y="383.0"/>
      <point x="1295.0" y="531.0" type="qcurve" smooth="yes"/>
      <point x="1373.0" y="806.0" type="line"/>
      <point x="1367.0" y="827.0"/>
      <point x="1271.0" y="897.0"/>
      <point x="1124.0" y="897.0" type="qcurve" smooth="yes"/>
      <point x="893.0" y="897.0"/>
      <point x="533.0" y="545.0"/>
    </contour>
  </outline>
</glyph>
<glyph name="b" format="2">
  <advance width="2129"/>
  <unicode hex="0062"/>
  <outline>
    <contour>
      <point x="103.0" y="376.0" type="qcurve" smooth="yes"/>
      <point x="179.0" y="644.0" type="line"/>
      <point x="332.0" y="1311.0" type="line"/>
      <point x="139.0" y="1366.0" type="line"/>
      <point x="171.0" y="1512.0" type="line"/>
      <point x="782.0" y="1596.0" type="line"/>
      <point x="880.0" y="1487.0" type="line"/>
      <point x="683.0" y="602.0" type="line"/>
      <point x="599.0" y="216.0" type="line" smooth="yes"/>
      <point x="589.0" y="145.0"/>
      <point x="743.0" y="94.0"/>
      <point x="841.0" y="98.0" type="qcurve" smooth="yes"/>
      <point x="1085.0" y="100.0"/>
      <point x="1324.0" y="506.0"/>
      <point x="1324.0" y="677.0" type="qcurve" smooth="yes"/>
      <point x="1324.0" y="734.0"/>
      <point x="1225.0" y="830.0"/>
      <point x="1141.0" y="828.0" type="qcurve" smooth="yes"/>
      <point x="1040.0" y="827.0"/>
      <point x="783.0" y="757.0"/>
      <point x="633.0" y="687.0" type="qcurve"/>
      <point x="602.0" y="851.0" type="line"/>
      <point x="846.0" y="1010.0"/>
      <point x="1256.0" y="1137.0"/>
      <point x="1499.0" y="1137.0" type="qcurve" smooth="yes"/>
      <point x="1679.0" y="1137.0"/>
      <point x="1902.0" y="923.0"/>
      <point x="1902.0" y="795.0" type="qcurve" smooth="yes"/>
      <point x="1902.0" y="414.0"/>
      <point x="1254.0" y="-53.0"/>
      <point x="765.0" y="-53.0" type="qcurve" smooth="yes"/>
      <point x="362.0" y="-53.0"/>
      <point x="56.0" y="200.0"/>
    </contour>
  </outline>
</glyph>
<glyph name="c" format="2">
  <advance width="1768"/>
  <unicode hex="0063"/>
  <outline>
    <contour>
      <point x="-31.0" y="560.0" type="qcurve" smooth="yes"/>
      <point x="2.0" y="826.0"/>
      <point x="541.0" y="1144.0"/>
      <point x="1051.0" y="1144.0" type="qcurve" smooth="yes"/>
      <point x="1310.0" y="1144.0"/>
      <point x="1595.0" y="971.0"/>
      <point x="1603.0" y="865.0" type="qcurve" smooth="yes"/>
      <point x="1609.0" y="767.0"/>
      <point x="1496.0" y="632.0"/>
      <point x="1431.0" y="605.0" type="qcurve"/>
      <point x="1310.0" y="661.0" type="line"/>
      <point x="1305.0" y="872.0" type="line" smooth="yes"/>
      <point x="1304.0" y="898.0"/>
      <point x="1154.0" y="947.0"/>
      <point x="1060.0" y="947.0" type="qcurve" smooth="yes"/>
      <point x="868.0" y="947.0"/>
      <point x="553.0" y="707.0"/>
      <point x="536.0" y="524.0" type="qcurve" smooth="yes"/>
      <point x="512.0" y="313.0"/>
      <point x="695.0" y="144.0"/>
      <point x="869.0" y="144.0" type="qcurve" smooth="yes"/>
      <point x="1042.0" y="144.0"/>
      <point x="1327.0" y="277.0"/>
      <point x="1428.0" y="371.0" type="qcurve"/>
      <point x="1546.0" y="256.0" type="line"/>
      <point x="1549.0" y="206.0" type="line"/>
      <point x="1415.0" y="45.0"/>
      <point x="1059.0" y="-55.0"/>
      <point x="771.0" y="-55.0" type="qcurve" smooth="yes"/>
      <point x="370.0" y="-55.0"/>
      <point x="-68.0" y="278.0"/>
    </contour>
  </outline>
</glyph>
<glyph name="g" format="2">
  <advance width="2097"/>
  <unicode hex="0067"/>
  <outline>
    <contour>
      <point x="-2.0" y="317.0" type="qcurve" smooth="yes"/>
      <point x="-13.0" y="622.0"/>
      <point x="640.0" y="1102.0"/>
      <point x="1130.0" y="1102.0" type="qcurve" smooth="yes"/>
      <point x="1231.0" y="1102.0"/>
      <point x="1405.0" y="1067.0"/>
      <point x="1437.0" y="1043.0" type="qcurve"/>
      <point x="1660.0" y="1142.0" type="line"/>
      <point x="1817.0" y="1142.0" type="line"/>
      <point x="1858.0" y="865.0" type="line"/>
      <point x="1739.0" y="456.0" type="line" smooth="yes"/>
      <point x="1694.0" y="281.0"/>
      <point x="1687.0" y="241.0"/>
      <point x="1606.0" y="-14.0" type="qcurve" smooth="yes"/>
      <point x="1498.0" y="-277.0"/>
      <point x="919.0" y="-474.0"/>
      <point x="456.0" y="-464.0" type="qcurve"/>
      <point x="134.0" y="-390.0" type="line"/>
      <point x="157.0" y="-240.0" type="line"/>
      <point x="468.0" y="-261.0" type="line" smooth="yes"/>
      <point x="803.0" y="-282.0"/>
      <point x="1107.0" y="-170.0"/>
      <point x="1154.0" y="-11.0" type="qcurve" smooth="yes"/>
      <point x="1188.0" y="102.0" type="line"/>
      <point x="1109.0" y="80.0"/>
      <point x="746.0" y="-41.0"/>
      <point x="510.0" y="-41.0" type="qcurve" smooth="yes"/>
      <point x="272.0" y="-41.0"/>
      <point x="3.0" y="121.0"/>
    </contour>
    <contour>
      <point x="542.0" y="319.0" type="qcurve" smooth="yes"/>
      <point x="545.0" y="228.0"/>
      <point x="656.0" y="193.0"/>
      <point x="754.0" y="193.0" type="qcurve" smooth="yes"/>
      <point x="917.0" y="193.0"/>
      <point x="1249.0" y="374.0"/>
      <point x="1292.0" y="542.0" type="qcurve" smooth="yes"/>
      <point x="1369.0" y="851.0" type="line"/>
      <point x="1363.0" y="876.0"/>
      <point x="1272.0" y="925.0"/>
      <point x="1145.0" y="925.0" type="qcurve" smooth="yes"/>
      <point x="897.0" y="925.0"/>
      <point x="535.0" y="519.0"/>
    </contour>
  </outline>
</glyph>
<glyph name="j" format="2">
  <advance width="951"/>
  <unicode hex="006A"/>
  <outline>
    <contour>
      <point x="162.0" y="861.0" type="qcurve"/>
      <point x="-49.0" y="848.0" type="line"/>
      <point x="-18.0" y="1052.0" type="line"/>
      <point x="550.0" y="1107.0" type="line"/>
      <point x="703.0" y="1074.0" type="line"/>
      <point x="735.0" y="982.0" type="line"/>
      <point x="672.0" y="752.0" type="line"/>
      <point x="541.0" y="94.0" type="line"/>
      <point x="467.0" y="-254.0"/>
      <point x="126.0" y="-475.0"/>
      <point x="-254.0" y="-475.0" type="qcurve"/>
      <point x="-500.0" y="-416.0" type="line"/>
      <point x="-466.0" y="-244.0" type="line"/>
      <point x="-301.0" y="-253.0" type="line" smooth="yes"/>
      <point x="-160.0" y="-261.0"/>
      <point x="-40.0" y="-168.0"/>
      <point x="15.0" y="86.0" type="qcurve" smooth="yes"/>
      <point x="60.0" y="294.0"/>
      <point x="142.0" y="701.0"/>
    </contour>
    <contour>
      <point x="188.0" y="1405.0" type="qcurve" smooth="yes"/>
      <point x="203.0" y="1513.0"/>
      <point x="365.0" y="1628.0"/>
      <point x="499.0" y="1628.0" type="qcurve" smooth="yes"/>
      <point x="622.0" y="1628.0"/>
      <point x="764.0" y="1505.0"/>
      <point x="749.0" y="1405.0" type="qcurve" smooth="yes"/>
      <point x="733.0" y="1301.0"/>
      <point x="571.0" y="1186.0"/>
      <point x="438.0" y="1186.0" type="qcurve" smooth="yes"/>
      <point x="315.0" y="1186.0"/>
      <point x="173.0" y="1308.0"/>
    </contour>
  </outline>
</glyph>
<glyph name="k" format="2">
  <advance width="2007"/>
  <unicode hex="006B"/>
  <outline>
    <contour>
      <point x="101.0" y="-18.0" type="line"/>
      <point x="35.0" y="49.0" type="line"/>
      <point x="186.0" y="587.0" type="line"/>
      <point x="345.0" y="1314.0" type="line"/>
      <point x="76.0" y="1366.0" type="line"/>
      <point x="108.0" y="1517.0" type="line"/>
      <point x="776.0" y="1598.0" type="line"/>
      <point x="880.0" y="1483.0" type="line"/>
      <point x="734.0" y="824.0" type="line"/>
      <point x="796.0" y="923.0"/>
      <point x="1104.0" y="1108.0"/>
      <point x="1270.0" y="1108.0" type="qcurve" smooth="yes"/>
      <point x="1449.0" y="1108.0"/>
      <point x="1654.0" y="928.0"/>
      <point x="1678.0" y="808.0" type="qcurve" smooth="yes"/>
      <point x="1682.0" y="749.0" type="line"/>
      <point x="1648.0" y="698.0" type="line"/>
      <point x="1423.0" y="585.0" type="line"/>
      <point x="1591.0" y="209.0" type="line"/>
      <point x="1789.0" y="221.0" type="line"/>
      <point x="1792.0" y="65.0" type="line"/>
      <point x="1247.0" y="-16.0" type="line" smooth="yes"/>
      <point x="1206.0" y="-27.0"/>
      <point x="1174.0" y="11.0"/>
      <point x="1134.0" y="89.0" type="qcurve"/>
      <point x="1008.0" y="387.0" type="line"/>
      <point x="585.0" y="228.0" type="line"/>
      <point x="542.0" y="361.0" type="line"/>
      <point x="1341.0" y="715.0" type="line"/>
      <point x="1304.0" y="755.0"/>
      <point x="1220.0" y="827.0"/>
      <point x="1104.0" y="827.0" type="qcurve" smooth="yes"/>
      <point x="999.0" y="827.0"/>
      <point x="743.0" y="661.0"/>
      <point x="692.0" y="580.0" type="qcurve"/>
      <point x="673.0" y="548.0" type="line"/>
      <point x="587.0" y="173.0" type="line"/>
      <point x="679.0" y="29.0" type="line"/>
    </contour>
  </outline>
</glyph>
<glyph name="m" format="2">
  <advance width="3262"/>
  <unicode hex="006D"/>
  <outline>
    <contour>
      <point x="90.0" y="-3.0" type="line"/>
      <point x="40.0" y="114.0" type="line"/>
      <point x="192.0" y="552.0" type="line"/>
      <point x="253.0" y="849.0" type="line"/>
      <point x="18.0" y="830.0" type="line"/>
      <point x="41.0" y="1023.0" type="line"/>
      <point x="521.0" y="1097.0" type="line"/>
      <point x="744.0" y="1097.0" type="line"/>
      <point x="777.0" y="835.0" type="line"/>
      <point x="754.0" y="687.0" type="line"/>
      <point x="613.0" y="241.0" type="line"/>
      <point x="722.0" y="48.0" type="line"/>
    </contour>
    <contour>
      <point x="1275.0" y="-28.0" type="line"/>
      <point x="1146.0" y="115.0" type="line"/>
      <point x="1294.0" y="646.0" type="line" smooth="yes"/>
      <point x="1319.0" y="744.0"/>
      <point x="1266.0" y="827.0"/>
      <point x="1214.0" y="827.0" type="qcurve" smooth="yes"/>
      <point x="1094.0" y="827.0"/>
      <point x="799.0" y="720.0"/>
      <point x="688.0" y="562.0" type="qcurve"/>
      <point x="673.0" y="755.0" type="line"/>
      <point x="852.0" y="938.0"/>
      <point x="1244.0" y="1110.0"/>
      <point x="1475.0" y="1110.0" type="qcurve" smooth="yes"/>
      <point x="1696.0" y="1110.0"/>
      <point x="1848.0" y="808.0"/>
      <point x="1798.0" y="533.0" type="qcurve" smooth="yes"/>
      <point x="1729.0" y="287.0" type="line"/>
      <point x="1839.0" y="54.0" type="line"/>
    </contour>
    <contour>
      <point x="2343.0" y="-8.0" type="line"/>
      <point x="2232.0" y="126.0" type="line"/>
      <point x="2376.0" y="646.0" type="line" smooth="yes"/>
      <point x="2402.0" y="744.0"/>
      <point x="2350.0" y="827.0"/>
      <point x="2298.0" y="827.0" type="qcurve" smooth="yes"/>
      <point x="2178.0" y="827.0"/>
      <point x="1881.0" y="710.0"/>
      <point x="1770.0" y="552.0" type="qcurve"/>
      <point x="1755.0" y="745.0" type="line"/>
      <point x="1939.0" y="936.0"/>
      <point x="2347.0" y="1110.0"/>
      <point x="2574.0" y="1110.0" type="qcurve" smooth="yes"/>
      <point x="2780.0" y="1110.0"/>
      <point x="2949.0" y="849.0"/>
      <point x="2902.0" y="607.0" type="qcurve" smooth="yes"/>
      <point x="2796.0" y="207.0" type="line"/>
      <point x="3081.0" y="212.0" type="line"/>
      <point x="3070.0" y="47.0" type="line"/>
    </contour>
  </outline>
</glyph>
<glyph name="o" format="2">
  <advance width="2100"/>
  <unicode hex="006F"/>
  <outline>
    <contour>
      <point x="-23.0" y="628.0" type="qcurve" smooth="yes"/>
      <point x="31.0" y="873.0"/>
      <point x="645.0" y="1145.0"/>
      <point x="1069.0" y="1135.0" type="qcurve" smooth="yes"/>
      <point x="1488.0" y="1123.0"/>
      <point x="1953.0" y="749.0"/>
      <point x="1901.0" y="489.0" type="qcurve" smooth="yes"/>
      <point x="1854.0" y="242.0"/>
      <point x="1258.0" y="-64.0"/>
      <point x="810.0" y="-50.0" type="qcurve" smooth="yes"/>
      <point x="371.0" y="-36.0"/>
      <point x="-82.0" y="362.0"/>
    </contour>
    <contour>
      <point x="546.0" y="570.0" type="qcurve" smooth="yes"/>
      <point x="522.0" y="401.0"/>
      <point x="679.0" y="160.0"/>
      <point x="876.0" y="151.0" type="qcurve" smooth="yes"/>
      <point x="1086.0" y="142.0"/>
      <point x="1313.0" y="343.0"/>
      <point x="1336.0" y="530.0" type="qcurve" smooth="yes"/>
      <point x="1356.0" y="701.0"/>
      <point x="1193.0" y="914.0"/>
      <point x="997.0" y="921.0" type="qcurve" smooth="yes"/>
      <point x="785.0" y="928.0"/>
      <point x="568.0" y="741.0"/>
    </contour>
  </outline>
</glyph>
<glyph name="q" format="2">
  <advance width="2147"/>
  <unicode hex="0071"/>
  <outline>
    <contour>
      <point x="-8.0" y="265.0" type="qcurve" smooth="yes"/>
      <point x="-19.0" y="621.0"/>
      <point x="654.0" y="1114.0"/>
      <point x="1157.0" y="1114.0" type="qcurve" smooth="yes"/>
      <point x="1254.0" y="1114.0"/>
      <point x="1461.0" y="1077.0"/>
      <point x="1509.0" y="1040.0" type="qcurve"/>
      <point x="1668.0" y="1113.0" type="line"/>
      <point x="1825.0" y="1113.0" type="line"/>
      <point x="1858.0" y="801.0" type="line"/>
      <point x="1780.0" y="501.0" type="line"/>
      <point x="1605.0" y="-259.0" type="line"/>
      <point x="1798.0" y="-307.0" type="line"/>
      <point x="1756.0" y="-446.0" type="line"/>
      <point x="1199.0" y="-464.0" type="line"/>
      <point x="1096.0" y="-352.0" type="line"/>
      <point x="1213.0" y="122.0" type="line"/>
      <point x="1185.0" y="130.0" type="line"/>
      <point x="1050.0" y="41.0"/>
      <point x="732.0" y="-49.0"/>
      <point x="493.0" y="-49.0" type="qcurve" smooth="yes"/>
      <point x="257.0" y="-49.0"/>
      <point x="-3.0" y="116.0"/>
    </contour>
    <contour>
      <point x="517.0" y="320.0" type="qcurve" smooth="yes"/>
      <point x="520.0" y="230.0"/>
      <point x="632.0" y="180.0"/>
      <point x="727.0" y="180.0" type="qcurve" smooth="yes"/>
      <point x="908.0" y="180.0"/>
      <point x="1258.0" y="375.0"/>
      <point x="1305.0" y="542.0" type="qcurve" smooth="yes"/>
      <point x="1386.0" y="828.0" type="line"/>
      <point x="1380.0" y="850.0"/>
      <point x="1272.0" y="905.0"/>
      <point x="1140.0" y="905.0" type="qcurve" smooth="yes"/>
      <point x="908.0" y="905.0"/>
      <point x="510.0" y="530.0"/>
    </contour>
  </outline>
</glyph>
<glyph name="r" format="2">
  <advance width="1697"/>
  <unicode hex="0072"/>
  <outline>
    <contour>
      <point x="137.0" y="-32.0" type="line"/>
      <point x="39.0" y="68.0" type="line"/>
      <point x="167.0" y="551.0" type="line"/>
      <point x="249.0" y="851.0" type="line"/>
      <point x="-20.0" y="830.0" type="line"/>
      <point x="5.0" y="1023.0" type="line"/>
      <point x="531.0" y="1099.0" type="line"/>
      <point x="700.0" y="1099.0" type="line"/>
      <point x="766.0" y="1062.0" type="line"/>
      <point x="739.0" y="718.0" type="line"/>
      <point x="596.0" y="193.0" type="line"/>
      <point x="902.0" y="170.0" type="line"/>
      <point x="900.0" y="32.0" type="line"/>
    </contour>
    <contour>
      <point x="1211.0" y="645.0" type="line"/>
      <point x="1221.0" y="808.0" type="line"/>
      <point x="1104.0" y="808.0"/>
      <point x="748.0" y="708.0"/>
      <point x="660.0" y="643.0" type="qcurve"/>
      <point x="648.0" y="770.0" type="line"/>
      <point x="754.0" y="868.0"/>
      <point x="1216.0" y="1110.0"/>
      <point x="1371.0" y="1110.0" type="qcurve" smooth="yes"/>
      <point x="1487.0" y="1110.0"/>
      <point x="1564.0" y="978.0"/>
      <point x="1564.0" y="884.0" type="qcurve" smooth="yes"/>
      <point x="1564.0" y="712.0"/>
      <point x="1391.0" y="612.0"/>
      <point x="1303.0" y="598.0" type="qcurve" smooth="yes"/>
    </contour>
  </outline>
</glyph>
<glyph name="x" format="2">
  <advance width="1953"/>
  <unicode hex="0078"/>
  <outline>
    <contour>
      <point x="208.0" y="884.0" type="line"/>
      <point x="183.0" y="1038.0" type="line"/>
      <point x="789.0" y="1124.0" type="line"/>
      <point x="998.0" y="1084.0" type="line"/>
      <point x="1172.0" y="659.0" type="line"/>
      <point x="1384.0" y="186.0" type="line"/>
      <point x="1631.0" y="203.0" type="line"/>
      <point x="1648.0" y="48.0" type="line"/>
      <point x="1034.0" y="-30.0" type="line"/>
      <point x="875.0" y="37.0" type="line"/>
      <point x="687.0" y="465.0" type="line"/>
      <point x="482.0" y="907.0" type="line"/>
    </contour>
    <contour>
      <point x="-128.0" y="76.0" type="line"/>
      <point x="-81.0" y="208.0" type="line"/>
      <point x="168.0" y="208.0" type="line" smooth="yes"/>
      <point x="265.0" y="208.0"/>
      <point x="731.0" y="472.0"/>
      <point x="914.0" y="627.0" type="qcurve" smooth="yes"/>
      <point x="1166.0" y="867.0"/>
      <point x="1599.0" y="1132.0"/>
      <point x="1743.0" y="1132.0" type="qcurve" smooth="yes"/>
      <point x="1833.0" y="1132.0"/>
      <point x="1936.0" y="1029.0"/>
      <point x="1934.0" y="942.0" type="qcurve" smooth="yes"/>
      <point x="1931.0" y="867.0"/>
      <point x="1809.0" y="725.0"/>
      <point x="1733.0" y="711.0" type="qcurve"/>
      <point x="1693.0" y="724.0" type="line"/>
      <point x="1694.0" y="811.0" type="line"/>
      <point x="1695.0" y="820.0"/>
      <point x="1678.0" y="839.0"/>
      <point x="1657.0" y="839.0" type="qcurve" smooth="yes"/>
      <point x="1540.0" y="839.0"/>
      <point x="1191.0" y="677.0"/>
      <point x="993.0" y="503.0" type="qcurve" smooth="yes"/>
      <point x="803.0" y="342.0"/>
      <point x="305.0" y="-28.0"/>
      <point x="137.0" y="-28.0" type="qcurve"/>
    </contour>
  </outline>
</glyph>
<glyph name="y" format="2">
  <advance width="1712"/>
  <unicode hex="0079"/>
  <outline>
    <contour>
      <point x="-433.0" y="-405.0" type="line"/>
      <point x="-407.0" y="-257.0" type="line"/>
      <point x="-131.0" y="-257.0" type="line" smooth="yes"/>
      <point x="44.0" y="-257.0"/>
      <point x="409.0" y="-161.0"/>
      <point x="538.0" y="-62.0" type="qcurve" smooth="yes"/>
      <point x="611.0" y="14.0" type="line"/>
      <point x="371.0" y="15.0" type="line"/>
      <point x="356.0" y="80.0"/>
      <point x="226.0" y="676.0"/>
      <point x="167.0" y="878.0" type="qcurve"/>
      <point x="-58.0" y="867.0" type="line"/>
      <point x="-55.0" y="1041.0" type="line"/>
      <point x="398.0" y="1102.0" type="line"/>
      <point x="623.0" y="1102.0" type="line"/>
      <point x="679.0" y="967.0" type="line"/>
      <point x="850.0" y="206.0" type="line"/>
      <point x="1034.0" y="341.0"/>
      <point x="1316.0" y="672.0"/>
      <point x="1316.0" y="672.0" type="qcurve" smooth="yes"/>
      <point x="1316.0" y="740.0"/>
      <point x="1179.0" y="852.0"/>
      <point x="1179.0" y="969.0" type="qcurve" smooth="yes"/>
      <point x="1179.0" y="1041.0"/>
      <point x="1288.0" y="1154.0"/>
      <point x="1402.0" y="1154.0" type="qcurve" smooth="yes"/>
      <point x="1507.0" y="1154.0"/>
      <point x="1640.0" y="1028.0"/>
      <point x="1640.0" y="861.0" type="qcurve" smooth="yes"/>
      <point x="1640.0" y="627.0"/>
      <point x="1224.0" y="218.0"/>
      <point x="936.0" y="8.0" type="qcurve" smooth="yes"/>
      <point x="869.0" y="-52.0" type="line" smooth="yes"/>
      <point x="660.0" y="-223.0"/>
      <point x="148.0" y="-464.0"/>
      <point x="-113.0" y="-464.0" type="qcurve"/>
    </contour>
  </outline>
</glyph>
<glyph name="z" format="2">
  <advance width="1714"/>
  <unicode hex="007A"/>
  <outline>
    <contour>
      <point x="53.0" y="-24.0" type="line"/>
      <point x="-127.0" y="92.0" type="line"/>
      <point x="41.0" y="222.0"/>
      <point x="333.0" y="433.0"/>
      <point x="505.0" y="590.0" type="qcurve" smooth="yes"/>
      <point x="600.0" y="672.0"/>
      <point x="806.0" y="793.0"/>
      <point x="953.0" y="879.0" type="qcurve"/>
      <point x="362.0" y="865.0" type="line"/>
      <point x="249.0" y="699.0" type="line"/>
      <point x="48.0" y="699.0" type="line"/>
      <point x="172.0" y="1057.0" type="line"/>
      <point x="268.0" y="1108.0" type="line"/>
      <point x="1574.0" y="1108.0" type="line"/>
      <point x="1634.0" y="985.0" type="line"/>
      <point x="1501.0" y="865.0"/>
      <point x="1244.0" y="665.0"/>
      <point x="1101.0" y="551.0" type="qcurve" smooth="yes"/>
      <point x="978.0" y="455.0"/>
      <point x="749.0" y="340.0"/>
      <point x="641.0" y="276.0" type="qcurve"/>
      <point x="1251.0" y="261.0" type="line"/>
      <point x="1420.0" y="464.0" type="line"/>
      <point x="1607.0" y="437.0" type="line"/>
      <point x="1422.0" y="36.0" type="line"/>
      <point x="1327.0" y="-8.0" type="line"/>
      <point x="157.0" y="45.0" type="line"/>
    </contour>
  </outline>
</glyph>
<glyph name="currency" format="2">
  <advance width="1428"/>
  <unicode hex="00A4"/>
  <outline>
    <contour>
      <point x="33.0" y="770.0" type="qcurve" smooth="yes"/>
      <point x="33.0" y="985.0"/>
      <point x="365.0" y="1289.0"/>
      <point x="633.0" y="1289.0" type="qcurve" smooth="yes"/>
      <point x="904.0" y="1289.0"/>
      <point x="1238.0" y="1005.0"/>
      <point x="1238.0" y="775.0" type="qcurve" smooth="yes"/>
      <point x="1238.0" y="560.0"/>
      <point x="909.0" y="250.0"/>
      <point x="640.0" y="250.0" type="qcurve" smooth="yes"/>
      <point x="371.0" y="250.0"/>
      <point x="33.0" y="537.0"/>
    </contour>
    <contour>
      <point x="310.0" y="784.0" type="qcurve" smooth="yes"/>
      <point x="311.0" y="651.0"/>
      <point x="479.0" y="489.0"/>
      <point x="631.0" y="489.0" type="qcurve" smooth="yes"/>
      <point x="795.0" y="489.0"/>
      <point x="954.0" y="635.0"/>
      <point x="954.0" y="772.0" type="qcurve" smooth="yes"/>
      <point x="954.0" y="897.0"/>
      <point x="787.0" y="1044.0"/>
      <point x="633.0" y="1044.0" type="qcurve" smooth="yes"/>
      <point x="467.0" y="1044.0"/>
      <point x="309.0" y="914.0"/>
    </contour>
    <contour>
      <point x="230.0" y="987.0" type="line"/>
      <point x="-97.0" y="1271.0" type="line"/>
      <point x="58.0" y="1445.0" type="line"/>
      <point x="383.0" y="1158.0" type="line"/>
    </contour>
    <contour>
      <point x="1067.0" y="987.0" type="line"/>
      <point x="913.0" y="1158.0" type="line"/>
      <point x="1241.0" y="1443.0" type="line"/>
      <point x="1393.0" y="1272.0" type="line"/>
    </contour>
    <contour>
      <point x="232.0" y="532.0" type="line"/>
      <point x="384.0" y="361.0" type="line"/>
      <point x="49.0" y="68.0" type="line"/>
      <point x="-103.0" y="239.0" type="line"/>
    </contour>
    <contour>
      <point x="1065.0" y="532.0" type="line"/>
      <point x="1389.0" y="248.0" type="line"/>
      <point x="1238.0" y="77.0" type="line"/>
      <point x="912.0" y="361.0" type="line"/>
    </contour>
  </outline>
</glyph>
<glyph name="brokenbar" format="2">
  <advance width="853"/>
  <unicode hex="00A6"/>
  <outline>
    <contour>
      <point x="203.0" y="691.0" type="line"/>
      <point x="244.0" y="910.0" type="line"/>
      <point x="292.0" y="1218.0" type="line"/>
      <point x="331.0" y="1484.0" type="line"/>
      <point x="767.0" y="1546.0" type="line"/>
      <point x="691.0" y="1218.0" type="line"/>
      <point x="625.0" y="910.0" type="line"/>
      <point x="593.0" y="745.0" type="line"/>
    </contour>
    <contour>
      <point x="-61.0" y="-536.0" type="line"/>
      <point x="38.0" y="-88.0" type="line"/>
      <point x="114.0" y="220.0" type="line"/>
      <point x="142.0" y="338.0" type="line"/>
      <point x="517.0" y="394.0" type="line"/>
      <point x="483.0" y="220.0" type="line"/>
      <point x="437.0" y="-88.0" type="line"/>
      <point x="374.0" y="-474.0" type="line"/>
    </contour>
  </outline>
</glyph>
<glyph name="guillemetleft" format="2">
  <advance width="2219"/>
  <unicode hex="00AB"/>
  <outline>
    <contour>
      <point x="40.0" y="664.0" type="line"/>
      <point x="40.0" y="664.0"/>
      <point x="885.0" y="1062.0"/>
      <point x="962.0" y="1106.0" type="qcurve" smooth="yes"/>
      <point x="1080.0" y="1174.0"/>
      <point x="1156.0" y="965.0"/>
      <point x="1041.0" y="897.0" type="qcurve" smooth="yes"/>
      <point x="878.0" y="805.0"/>
      <point x="448.0" y="614.0"/>
      <point x="448.0" y="614.0" type="qcurve"/>
      <point x="448.0" y="614.0"/>
      <point x="877.0" y="386.0"/>
      <point x="953.0" y="319.0" type="qcurve" smooth="yes"/>
      <point x="1034.0" y="245.0"/>
      <point x="907.0" y="62.0"/>
      <point x="819.0" y="110.0" type="qcurve" smooth="yes"/>
      <point x="761.0" y="141.0"/>
      <point x="94.0" y="516.0"/>
      <point x="8.0" y="564.0" type="qcurve"/>
    </contour>
    <contour>
      <point x="1010.0" y="702.0" type="line"/>
      <point x="1010.0" y="702.0"/>
      <point x="1855.0" y="1100.0"/>
      <point x="1932.0" y="1144.0" type="qcurve" smooth="yes"/>
      <point x="2050.0" y="1212.0"/>
      <point x="2126.0" y="1003.0"/>
      <point x="2011.0" y="935.0" type="qcurve" smooth="yes"/>
      <point x="1848.0" y="843.0"/>
      <point x="1418.0" y="652.0"/>
      <point x="1418.0" y="652.0" type="qcurve"/>
      <point x="1418.0" y="652.0"/>
      <point x="1883.0" y="386.0"/>
      <point x="1959.0" y="319.0" type="qcurve" smooth="yes"/>
      <point x="2040.0" y="245.0"/>
      <point x="1913.0" y="62.0"/>
      <point x="1825.0" y="110.0" type="qcurve" smooth="yes"/>
      <point x="1767.0" y="141.0"/>
      <point x="1064.0" y="554.0"/>
      <point x="978.0" y="602.0" type="qcurve"/>
    </contour>
  </outline>
</glyph>
<glyph name="logicalnot" format="2">
  <advance width="1297"/>
  <unicode hex="00AC"/>
  <outline>
    <contour>
      <point x="10.0" y="819.0" type="line"/>
      <point x="1073.0" y="819.0" type="line"/>
      <point x="1073.0" y="260.0" type="line"/>
      <point x="767.0" y="260.0" type="line"/>
      <point x="767.0" y="545.0" type="line"/>
      <point x="10.0" y="545.0" type="line"/>
    </contour>
  </outline>
</glyph>
<glyph name="registered" format="2">
  <advance width="2253"/>
  <unicode hex="00AE"/>
  <outline>
    <contour>
      <point x="34.0" y="673.0" type="qcurve" smooth="yes"/>
      <point x="34.0" y="1059.0"/>
      <point x="597.0" y="1568.0"/>
      <point x="1062.0" y="1568.0" type="qcurve" smooth="yes"/>
      <point x="1524.0" y="1568.0"/>
      <point x="2095.0" y="1095.0"/>
      <point x="2095.0" y="694.0" type="qcurve" smooth="yes"/>
      <point x="2095.0" y="256.0"/>
      <point x="1542.0" y="-245.0"/>
      <point x="1083.0" y="-245.0" type="qcurve" smooth="yes"/>
      <point x="615.0" y="-245.0"/>
      <point x="34.0" y="244.0"/>
    </contour>
    <contour>
      <point x="304.0" y="667.0" type="qcurve" smooth="yes"/>
      <point x="304.0" y="323.0"/>
      <point x="725.0" y="0.0"/>
      <point x="1089.0" y="0.0" type="qcurve" smooth="yes"/>
      <point x="1444.0" y="0.0"/>
      <point x="1825.0" y="345.0"/>
      <point x="1825.0" y="683.0" type="qcurve" smooth="yes"/>
      <point x="1825.0" y="994.0"/>
      <point x="1430.0" y="1324.0"/>
      <point x="1062.0" y="1324.0" type="qcurve" smooth="yes"/>
      <point x="710.0" y="1324.0"/>
      <point x="304.0" y="976.0"/>
    </contour>
    <contour>
      <point x="628.0" y="176.0" type="line"/>
      <point x="628.0" y="276.0" type="line"/>
      <point x="715.0" y="300.0" type="line"/>
      <point x="726.0" y="723.0" type="line"/>
      <point x="715.0" y="1058.0" type="line"/>
      <point x="618.0" y="1081.0" type="line"/>
      <point x="618.0" y="1209.0" type="line"/>
      <point x="1181.0" y="1209.0" type="line" smooth="yes"/>
      <point x="1339.0" y="1209.0"/>
      <point x="1522.0" y="1062.0"/>
      <point x="1522.0" y="928.0" type="qcurve" smooth="yes"/>
      <point x="1522.0" y="777.0"/>
      <point x="1305.0" y="614.0"/>
      <point x="1179.0" y="614.0" type="qcurve" smooth="yes"/>
      <point x="1128.0" y="614.0"/>
      <point x="958.0" y="623.0"/>
      <point x="934.0" y="623.0" type="qcurve"/>
      <point x="934.0" y="748.0" type="line"/>
      <point x="1071.0" y="748.0" type="line" smooth="yes"/>
      <point x="1190.0" y="748.0"/>
      <point x="1274.0" y="828.0"/>
      <point x="1274.0" y="919.0" type="qcurve" smooth="yes"/>
      <point x="1274.0" y="1009.0"/>
      <point x="1192.0" y="1068.0"/>
      <point x="1089.0" y="1068.0" type="qcurve" smooth="yes"/>
      <point x="992.0" y="1068.0" type="line"/>
      <point x="971.0" y="1055.0" type="line"/>
      <point x="958.0" y="703.0" type="line"/>
      <point x="969.0" y="300.0" type="line"/>
      <point x="1061.0" y="276.0" type="line"/>
      <point x="1061.0" y="176.0" type="line"/>
    </contour>
    <contour>
      <point x="1042.0" y="690.0" type="line"/>
      <point x="1293.0" y="718.0" type="line"/>
      <point x="1493.0" y="393.0" type="line" smooth="yes"/>
      <point x="1556.0" y="291.0"/>
      <point x="1589.0" y="276.0"/>
      <point x="1631.0" y="276.0" type="qcurve"/>
      <point x="1631.0" y="176.0" type="line"/>
      <point x="1390.0" y="176.0" type="line"/>
      <point x="1338.0" y="190.0" type="line"/>
    </contour>
  </outline>
</glyph>
<glyph name="micro" format="2">
  <advance width="2143"/>
  <unicode hex="00B5"/>
  <outline>
    <contour>
      <point x="-83.0" y="-301.0" type="line"/>
      <point x="-23.0" y="-263.0" type="line"/>
      <point x="13.25" y="-121.0"/>
      <point x="88.0" y="179.0"/>
      <point x="107.0" y="267.0" type="qcurve" smooth="yes"/>
      <point x="228.0" y="848.0" type="line"/>
      <point x="-1.0" y="844.0" type="line"/>
      <point x="4.0" y="1030.0" type="line"/>
      <point x="484.0" y="1096.0" type="line"/>
      <point x="688.0" y="1096.0" type="line"/>
      <point x="788.0" y="966.0" type="line"/>
      <point x="666.0" y="434.0" type="line" smooth="yes"/>
      <point x="646.0" y="340.0"/>
      <point x="669.0" y="188.0"/>
      <point x="778.0" y="188.0" type="qcurve" smooth="yes"/>
      <point x="863.0" y="188.0"/>
      <point x="1086.0" y="220.0"/>
      <point x="1189.0" y="265.0" type="qcurve"/>
      <point x="1351.0" y="940.0" type="line"/>
      <point x="1301.0" y="1078.0" type="line"/>
      <point x="1842.0" y="1108.0" type="line"/>
      <point x="1910.0" y="974.0" type="line"/>
      <point x="1733.0" y="348.0" type="line"/>
      <point x="1732.0" y="208.0" type="line"/>
      <point x="1978.0" y="208.0" type="line"/>
      <point x="1973.0" y="42.0" type="line"/>
      <point x="1325.0" y="-33.0" type="line"/>
      <point x="1207.0" y="68.0" type="line"/>
      <point x="1192.0" y="119.0" type="line"/>
      <point x="1085.0" y="50.0"/>
      <point x="837.0" y="-55.0"/>
      <point x="711.0" y="-55.0" type="qcurve" smooth="yes"/>
      <point x="658.0" y="-55.0"/>
      <point x="553.0" y="-35.0"/>
      <point x="528.0" y="-11.0" type="qcurve"/>
      <point x="491.0" y="-191.0" type="line"/>
      <point x="667.0" y="-199.0" type="line"/>
      <point x="659.0" y="-361.0" type="line"/>
      <point x="-58.0" y="-403.0" type="line"/>
    </contour>
  </outline>
</glyph>
<glyph name="paragraph" format="2">
  <advance width="1609"/>
  <unicode hex="00B6"/>
  <outline>
    <contour>
      <point x="909.0" y="162.0" type="qcurve" smooth="yes"/>
      <point x="1012.0" y="737.0" type="line"/>
      <point x="972.0" y="731.0"/>
      <point x="635.0" y="723.0"/>
      <point x="576.0" y="723.0" type="qcurve" smooth="yes"/>
      <point x="383.0" y="723.0"/>
      <point x="148.0" y="954.0"/>
      <point x="176.0" y="1155.0" type="qcurve" smooth="yes"/>
      <point x="200.0" y="1326.0"/>
      <point x="458.0" y="1500.0"/>
      <point x="650.0" y="1500.0" type="qcurve" smooth="yes"/>
      <point x="1557.0" y="1500.0" type="line"/>
      <point x="1525.0" y="1318.0" type="line"/>
      <point x="1345.0" y="1314.0" type="line"/>
      <point x="1243.0" y="754.0" type="line"/>
      <point x="1142.0" y="264.0" type="line"/>
      <point x="1204.0" y="144.0"/>
      <point x="1115.0" y="-15.0"/>
      <point x="1031.0" y="-15.0" type="qcurve" smooth="yes"/>
      <point x="963.0" y="-15.0"/>
      <point x="895.0" y="83.0"/>
    </contour>
    <contour>
      <point x="423.0" y="220.0" type="qcurve" smooth="yes"/>
      <point x="532.0" y="792.0" type="line"/>
      <point x="746.0" y="799.0" type="line"/>
      <point x="646.0" y="263.0" type="line" smooth="yes"/>
      <point x="594.0" y="-18.0"/>
      <point x="342.0" y="-283.0"/>
      <point x="208.0" y="-283.0" type="qcurve" smooth="yes"/>
      <point x="76.0" y="-283.0"/>
      <point x="-36.0" y="-193.0"/>
      <point x="-36.0" y="-117.0" type="qcurve" smooth="yes"/>
      <point x="-36.0" y="-57.0"/>
      <point x="40.0" y="31.0"/>
      <point x="93.0" y="47.0" type="qcurve"/>
      <point x="175.0" y="-41.0" type="line"/>
      <point x="170.0" y="-83.0" type="line"/>
      <point x="166.0" y="-83.0"/>
      <point x="153.0" y="-98.0"/>
      <point x="153.0" y="-110.0" type="qcurve" smooth="yes"/>
      <point x="153.0" y="-121.0"/>
      <point x="169.0" y="-129.0"/>
      <point x="188.0" y="-129.0" type="qcurve" smooth="yes"/>
      <point x="244.0" y="-129.0"/>
      <point x="379.0" y="18.0"/>
    </contour>
  </outline>
</glyph>
<glyph name="onesuperior" format="2">
  <advance width="798"/>
  <unicode hex="00B9"/>
  <outline>
    <contour>
      <point x="53.0" y="704.0" type="line"/>
      <point x="65.0" y="738.0"/>
      <point x="114.0" y="798.0"/>
      <point x="125.0" y="856.0" type="qcurve" smooth="yes"/>
      <point x="193.0" y="1235.0" type="line"/>
      <point x="217.0" y="1317.0" type="line"/>
      <point x="-20.0" y="1217.0" type="line"/>
      <point x="-53.0" y="1358.0" type="line"/>
      <point x="406.0" y="1554.0" type="line"/>
      <point x="573.0" y="1496.0" type="line"/>
      <point x="556.0" y="1472.0"/>
      <point x="535.0" y="1396.0"/>
      <point x="532.0" y="1383.0" type="qcurve" smooth="yes"/>
      <point x="470.0" y="1075.0" type="line"/>
      <point x="426.0" y="762.0" type="line"/>
      <point x="142.0" y="661.0" type="line"/>
    </contour>
  </outline>
</glyph>
<glyph name="guillemetright" format="2">
  <advance width="2219"/>
  <unicode hex="00BB"/>
  <outline>
    <contour>
      <point x="1026.0" y="542.0" type="line"/>
      <point x="1026.0" y="542.0"/>
      <point x="181.0" y="144.0"/>
      <point x="104.0" y="100.0" type="qcurve" smooth="yes"/>
      <point x="-14.0" y="32.0"/>
      <point x="-90.0" y="241.0"/>
      <point x="25.0" y="309.0" type="qcurve" smooth="yes"/>
      <point x="188.0" y="401.0"/>
      <point x="618.0" y="592.0"/>
      <point x="618.0" y="592.0" type="qcurve"/>
      <point x="618.0" y="592.0"/>
      <point x="153.0" y="858.0"/>
      <point x="77.0" y="925.0" type="qcurve" smooth="yes"/>
      <point x="-4.0" y="999.0"/>
      <point x="123.0" y="1182.0"/>
      <point x="211.0" y="1134.0" type="qcurve" smooth="yes"/>
      <point x="269.0" y="1103.0"/>
      <point x="972.0" y="690.0"/>
      <point x="1058.0" y="642.0" type="qcurve"/>
    </contour>
    <contour>
      <point x="2028.0" y="580.0" type="line"/>
      <point x="2028.0" y="580.0"/>
      <point x="1183.0" y="182.0"/>
      <point x="1106.0" y="138.0" type="qcurve" smooth="yes"/>
      <point x="988.0" y="70.0"/>
      <point x="912.0" y="279.0"/>
      <point x="1027.0" y="347.0" type="qcurve" smooth="yes"/>
      <point x="1190.0" y="439.0"/>
      <point x="1620.0" y="630.0"/>
      <point x="1620.0" y="630.0" type="qcurve"/>
      <point x="1620.0" y="630.0"/>
      <point x="1191.0" y="858.0"/>
      <point x="1115.0" y="925.0" type="qcurve" smooth="yes"/>
      <point x="1034.0" y="999.0"/>
      <point x="1161.0" y="1182.0"/>
      <point x="1249.0" y="1134.0" type="qcurve" smooth="yes"/>
      <point x="1307.0" y="1103.0"/>
      <point x="1974.0" y="728.0"/>
      <point x="2060.0" y="680.0" type="qcurve"/>
    </contour>
  </outline>
</glyph>
<glyph name="Thorn" format="2">
  <advance width="2139"/>
  <unicode hex="00DE"/>
  <outline>
    <contour>
      <point x="942.0" y="1202.0" type="line"/>
      <point x="1346.0" y="1202.0" type="line" smooth="yes"/>
      <point x="1613.0" y="1202.0"/>
      <point x="1945.0" y="953.0"/>
      <point x="1930.0" y="724.0" type="qcurve" smooth="yes"/>
      <point x="1913.0" y="480.0"/>
      <point x="1508.0" y="249.0"/>
      <point x="1141.0" y="249.0" type="qcurve" smooth="yes"/>
      <point x="1022.0" y="249.0"/>
      <point x="731.0" y="270.0"/>
      <point x="684.0" y="285.0" type="qcurve"/>
      <point x="713.0" y="475.0" type="line"/>
      <point x="764.0" y="462.0"/>
      <point x="990.0" y="443.0"/>
      <point x="1029.0" y="443.0" type="qcurve" smooth="yes"/>
      <point x="1225.0" y="443.0"/>
      <point x="1402.0" y="553.0"/>
      <point x="1415.0" y="729.0" type="qcurve" smooth="yes"/>
      <point x="1420.0" y="863.0"/>
      <point x="1269.0" y="1020.0"/>
      <point x="1134.0" y="1020.0" type="qcurve" smooth="yes"/>
      <point x="924.0" y="1020.0" type="line"/>
      <point x="898.0" y="998.0" type="line"/>
      <point x="787.0" y="435.0" type="line"/>
      <point x="745.0" y="194.0" type="line"/>
      <point x="894.0" y="175.0" type="line"/>
      <point x="864.0" y="0.0" type="line"/>
      <point x="-28.0" y="0.0" type="line"/>
      <point x="21.0" y="178.0" type="line"/>
      <point x="160.0" y="183.0" type="line"/>
      <point x="298.0" y="836.0" type="line"/>
      <point x="385.0" y="1290.0" type="line"/>
      <point x="184.0" y="1308.0" type="line"/>
      <point x="207.0" y="1500.0" type="line"/>
      <point x="1123.0" y="1500.0" type="line"/>
      <point x="1093.0" y="1309.0" type="line"/>
      <point x="941.0" y="1287.0" type="line"/>
    </contour>
  </outline>
</glyph>
<glyph name="germandbls" format="2">
  <advance width="2109"/>
  <unicode hex="00DF"/>
  <outline>
    <contour>
      <point x="86.0" y="182.0" type="qcurve"/>
      <point x="271.0" y="1209.0" type="line" smooth="yes"/>
      <point x="297.0" y="1346.0"/>
      <point x="581.0" y="1597.0"/>
      <point x="860.0" y="1597.0" type="qcurve" smooth="yes"/>
      <point x="1077.0" y="1597.0"/>
      <point x="1330.0" y="1425.0"/>
      <point x="1336.0" y="1305.0" type="qcurve" smooth="yes"/>
      <point x="1341.0" y="1207.0"/>
      <point x="1289.0" y="1142.0"/>
      <point x="1169.0" y="1049.0" type="qcurve" smooth="yes"/>
      <point x="1113.0" y="994.0"/>
      <point x="1095.0" y="946.0"/>
      <point x="1095.0" y="927.0" type="qcurve" smooth="yes"/>
      <point x="1095.0" y="878.0"/>
      <point x="1258.0" y="815.0"/>
      <point x="1499.0" y="737.0" type="qcurve" smooth="yes"/>
      <point x="1757.0" y="644.0"/>
      <point x="1935.0" y="448.0"/>
      <point x="1930.0" y="335.0" type="qcurve" smooth="yes"/>
      <point x="1924.0" y="162.0"/>
      <point x="1605.0" y="-51.0"/>
      <point x="1293.0" y="-51.0" type="qcurve" smooth="yes"/>
      <point x="985.0" y="-51.0"/>
      <point x="684.0" y="74.0"/>
      <point x="682.0" y="187.0" type="qcurve" smooth="yes"/>
      <point x="681.0" y="268.0"/>
      <point x="799.0" y="393.0"/>
      <point x="902.0" y="393.0" type="qcurve" smooth="yes"/>
      <point x="949.0" y="368.0" type="line"/>
      <point x="953.0" y="262.0" type="line" smooth="yes"/>
      <point x="953.0" y="217.0"/>
      <point x="1163.0" y="154.0"/>
      <point x="1268.0" y="154.0" type="qcurve" smooth="yes"/>
      <point x="1414.0" y="154.0"/>
      <point x="1520.0" y="174.0"/>
      <point x="1526.0" y="202.0" type="qcurve" smooth="yes"/>
      <point x="1532.0" y="239.0"/>
      <point x="1494.0" y="242.0"/>
      <point x="1241.0" y="342.0" type="qcurve" smooth="yes"/>
      <point x="981.0" y="436.0"/>
      <point x="732.0" y="616.0"/>
      <point x="739.0" y="763.0" type="qcurve" smooth="yes"/>
      <point x="745.0" y="844.0"/>
      <point x="792.0" y="1015.0"/>
      <point x="904.0" y="1115.0" type="qcurve" smooth="yes"/>
      <point x="1004.0" y="1202.0"/>
      <point x="1100.0" y="1244.0"/>
      <point x="1100.0" y="1301.0" type="qcurve" smooth="yes"/>
      <point x="1100.0" y="1352.0"/>
      <point x="987.0" y="1405.0"/>
      <point x="930.0" y="1405.0" type="qcurve" smooth="yes"/>
      <point x="893.0" y="1405.0"/>
      <point x="794.0" y="1369.0"/>
      <point x="788.0" y="1332.0" type="qcurve" smooth="yes"/>
      <point x="608.0" y="214.0" type="line" smooth="yes"/>
      <point x="528.0" y="-286.0"/>
      <point x="160.0" y="-472.0"/>
      <point x="-76.0" y="-472.0" type="qcurve"/>
      <point x="-435.0" y="-419.0" type="line"/>
      <point x="-390.0" y="-259.0" type="line"/>
      <point x="-211.0" y="-269.0" type="line"/>
      <point x="-63.0" y="-267.0"/>
      <point x="30.0" y="-152.0"/>
    </contour>
  </outline>
</glyph>
<glyph name="ae" format="2">
  <advance width="3132"/>
  <unicode hex="00E6"/>
  <outline>
    <contour>
      <point x="540.0" y="382.0" type="qcurve" smooth="yes"/>
      <point x="543.0" y="279.0"/>
      <point x="650.0" y="231.0"/>
      <point x="741.0" y="231.0" type="qcurve" smooth="yes"/>
      <point x="916.0" y="231.0"/>
      <point x="1298.0" y="309.0"/>
      <point x="1331.0" y="531.0" type="qcurve" smooth="yes"/>
      <point x="1373.0" y="806.0" type="line"/>
      <point x="1367.0" y="827.0"/>
      <point x="1271.0" y="897.0"/>
      <point x="1124.0" y="897.0" type="qcurve" smooth="yes"/>
      <point x="893.0" y="897.0"/>
      <point x="533.0" y="545.0"/>
    </contour>
    <contour>
      <point x="1.0" y="329.0" type="qcurve" smooth="yes"/>
      <point x="-10.0" y="669.0"/>
      <point x="654.0" y="1097.0"/>
      <point x="1149.0" y="1097.0" type="qcurve" smooth="yes"/>
      <point x="1245.0" y="1097.0"/>
      <point x="1394.0" y="1079.0"/>
      <point x="1429.0" y="1062.0" type="qcurve"/>
      <point x="1623.0" y="1141.0" type="line"/>
      <point x="1737.0" y="1141.0" type="line"/>
      <point x="1794.0" y="1029.0" type="line"/>
      <point x="1920.0" y="1062.0"/>
      <point x="2220.0" y="1108.0"/>
      <point x="2344.0" y="1108.0" type="qcurve" smooth="yes"/>
      <point x="2567.0" y="1108.0"/>
      <point x="2831.0" y="1014.0"/>
      <point x="2880.0" y="903.0" type="qcurve" smooth="yes"/>
      <point x="2915.0" y="853.0"/>
      <point x="2924.0" y="714.0"/>
      <point x="2906.0" y="667.0" type="qcurve"/>
      <point x="2987.0" y="641.0" type="line"/>
      <point x="2934.0" y="463.0" type="line"/>
      <point x="2819.0" y="469.0"/>
      <point x="2569.0" y="476.0"/>
      <point x="2461.0" y="477.0" type="qcurve" smooth="yes"/>
      <point x="1763.0" y="475.0" type="line"/>
      <point x="1757.0" y="649.0" type="line"/>
      <point x="2599.0" y="658.0" type="line"/>
      <point x="2615.0" y="688.0"/>
      <point x="2606.0" y="729.0"/>
      <point x="2598.0" y="775.0" type="qcurve" smooth="yes"/>
      <point x="2589.0" y="834.0"/>
      <point x="2434.0" y="925.0"/>
      <point x="2302.0" y="925.0" type="qcurve" smooth="yes"/>
      <point x="2120.0" y="925.0"/>
      <point x="1875.0" y="725.0"/>
      <point x="1833.0" y="520.0" type="qcurve" smooth="yes"/>
      <point x="1796.0" y="343.0"/>
      <point x="1989.0" y="183.0"/>
      <point x="2182.0" y="182.0" type="qcurve" smooth="yes"/>
      <point x="2380.0" y="182.0"/>
      <point x="2658.0" y="309.0"/>
      <point x="2713.0" y="354.0" type="qcurve"/>
      <point x="2855.0" y="318.0" type="line"/>
      <point x="2868.0" y="223.0" type="line"/>
      <point x="2754.0" y="105.0"/>
      <point x="2314.0" y="-30.0"/>
      <point x="2047.0" y="-20.0" type="qcurve" smooth="yes"/>
      <point x="1765.0" y="-11.0"/>
      <point x="1461.0" y="40.0"/>
      <point x="1383.0" y="206.0" type="qcurve"/>
      <point x="1146.0" y="84.0"/>
      <point x="714.0" y="-18.0"/>
      <point x="494.0" y="-18.0" type="qcurve" smooth="yes"/>
      <point x="253.0" y="-18.0"/>
      <point x="6.0" y="148.0"/>
    </contour>
  </outline>
</glyph>
<glyph name="eth" format="2">
  <advance width="2082"/>
  <unicode hex="00F0"/>
  <outline>
    <contour>
      <point x="-80.0" y="614.0" type="qcurve" smooth="yes"/>
      <point x="-26.0" y="859.0"/>
      <point x="499.0" y="1068.0"/>
      <point x="881.0" y="1077.0" type="qcurve" smooth="yes"/>
      <point x="1210.0" y="1082.0"/>
      <point x="1644.0" y="799.0"/>
      <point x="1561.0" y="470.0" type="qcurve"/>
      <point x="1302.0" y="494.0" type="line"/>
      <point x="1329.0" y="641.0"/>
      <point x="1139.0" y="852.0"/>
      <point x="928.0" y="865.0" type="qcurve" smooth="yes"/>
      <point x="713.0" y="877.0"/>
      <point x="506.0" y="731.0"/>
      <point x="495.0" y="580.0" type="qcurve" smooth="yes"/>
      <point x="472.0" y="387.0"/>
      <point x="623.0" y="160.0"/>
      <point x="820.0" y="151.0" type="qcurve" smooth="yes"/>
      <point x="1030.0" y="142.0"/>
      <point x="1287.0" y="322.0"/>
      <point x="1310.0" y="488.0" type="qcurve" smooth="yes"/>
      <point x="1388.0" y="976.0"/>
      <point x="1252.0" y="1315.0"/>
      <point x="1026.0" y="1346.0" type="qcurve" smooth="yes"/>
      <point x="918.0" y="1366.0"/>
      <point x="649.0" y="1338.0"/>
      <point x="594.0" y="1270.0" type="qcurve"/>
      <point x="480.0" y="1270.0" type="line"/>
      <point x="480.0" y="1413.0" type="line"/>
      <point x="557.0" y="1493.0"/>
      <point x="969.0" y="1564.0"/>
      <point x="1122.0" y="1534.0" type="qcurve" smooth="yes"/>
      <point x="1451.0" y="1493.0"/>
      <point x="1931.0" y="1063.0"/>
      <point x="1913.0" y="699.0" type="qcurve" smooth="yes"/>
      <point x="1850.0" y="285.0"/>
      <point x="1255.0" y="-69.0"/>
      <point x="754.0" y="-50.0" type="qcurve" smooth="yes"/>
      <point x="315.0" y="-33.0"/>
      <point x="-139.0" y="348.0"/>
    </contour>
    <contour>
      <point x="1257.0" y="1419.0" type="line"/>
      <point x="1637.0" y="1574.0" type="line"/>
      <point x="1735.0" y="1412.0" type="line"/>
      <point x="1345.0" y="1282.0" type="line"/>
      <point x="913.0" y="1111.0" type="line"/>
      <point x="823.0" y="1248.0" type="line"/>
    </contour>
  </outline>
</glyph>
<glyph name="thorn" format="2">
  <advance width="2055"/>
  <unicode hex="00FE"/>
  <outline>
    <contour>
      <point x="-158.0" y="-348.0" type="line"/>
      <point x="147.0" y="790.0" type="line"/>
      <point x="292.0" y="1309.0" type="line"/>
      <point x="39.0" y="1364.0" type="line"/>
      <point x="71.0" y="1510.0" type="line"/>
      <point x="727.0" y="1594.0" type="line"/>
      <point x="825.0" y="1485.0" type="line"/>
      <point x="672.0" y="867.0" type="line"/>
      <point x="810.0" y="970.0"/>
      <point x="1205.0" y="1129.0"/>
      <point x="1471.0" y="1129.0" type="qcurve" smooth="yes"/>
      <point x="1625.0" y="1129.0"/>
      <point x="1854.0" y="915.0"/>
      <point x="1854.0" y="738.0" type="qcurve" smooth="yes"/>
      <point x="1854.0" y="395.0"/>
      <point x="1222.0" y="6.0"/>
      <point x="727.0" y="6.0" type="qcurve" smooth="yes"/>
      <point x="597.0" y="6.0"/>
      <point x="481.0" y="17.0"/>
      <point x="457.0" y="25.0" type="qcurve"/>
      <point x="393.0" y="-268.0" type="line"/>
      <point x="621.0" y="-317.0" type="line"/>
      <point x="585.0" y="-456.0" type="line"/>
      <point x="-10.0" y="-473.0" type="line"/>
    </contour>
    <contour>
      <point x="521.0" y="263.0" type="line"/>
      <point x="508.0" y="214.0"/>
      <point x="608.0" y="154.0"/>
      <point x="673.0" y="155.0" type="qcurve" smooth="yes"/>
      <point x="961.0" y="160.0"/>
      <point x="1269.0" y="481.0"/>
      <point x="1269.0" y="643.0" type="qcurve" smooth="yes"/>
      <point x="1269.0" y="731.0"/>
      <point x="1166.0" y="818.0"/>
      <point x="1088.0" y="816.0" type="qcurve" smooth="yes"/>
      <point x="992.0" y="815.0"/>
      <point x="726.0" y="732.0"/>
      <point x="641.0" y="684.0" type="qcurve"/>
      <point x="571.0" y="466.0" type="line"/>
    </contour>
  </outline>
</glyph>
<glyph name="kgreenlandic" format="2">
  <advance width="1983"/>
  <unicode hex="0138"/>
  <outline>
    <contour>
      <point x="40.0" y="114.0" type="line"/>
      <point x="192.0" y="552.0" type="line"/>
      <point x="253.0" y="853.0" type="line"/>
      <point x="18.0" y="834.0" type="line"/>
      <point x="47.0" y="1023.0" type="line"/>
      <point x="501.0" y="1093.0" type="line"/>
      <point x="726.0" y="1097.0" type="line"/>
      <point x="809.0" y="911.0" type="line"/>
      <point x="768.0" y="687.0" type="line"/>
      <point x="613.0" y="249.0" type="line"/>
      <point x="722.0" y="56.0" type="line"/>
      <point x="90.0" y="-3.0" type="line"/>
    </contour>
    <contour>
      <point x="1889.0" y="932.0" type="line"/>
      <point x="1669.0" y="884.0" type="line"/>
      <point x="1295.0" y="727.0" type="line"/>
      <point x="1646.0" y="217.0" type="line"/>
      <point x="1899.0" y="208.0" type="line"/>
      <point x="1887.0" y="44.0" type="line"/>
      <point x="1283.0" y="-16.0" type="line" smooth="yes"/>
      <point x="1261.0" y="-19.0"/>
      <point x="1207.0" y="21.0"/>
      <point x="1145.0" y="105.0" type="qcurve"/>
      <point x="894.0" y="473.0" type="line"/>
      <point x="644.0" y="338.0" type="line"/>
      <point x="639.0" y="525.0" type="line"/>
      <point x="1321.0" y="905.0" type="line"/>
      <point x="1322.0" y="917.0" type="line"/>
      <point x="1185.0" y="941.0" type="line"/>
      <point x="1208.0" y="1077.0" type="line"/>
      <point x="1918.0" y="1077.0" type="line"/>
    </contour>
  </outline>
</glyph>
<glyph name="schwa" format="2">
  <advance width="1797"/>
  <unicode hex="0259"/>
  <outline>
    <contour>
      <point x="1566.0" y="524.0" type="qcurve" smooth="yes"/>
      <point x="1515.0" y="255.0"/>
      <point x="952.0" y="-25.0"/>
      <point x="517.0" y="-25.0" type="qcurve" smooth="yes"/>
      <point x="288.0" y="-25.0"/>
      <point x="65.0" y="20.0"/>
      <point x="20.0" y="-11.0" type="qcurve" smooth="yes"/>
      <point x="-19.0" y="81.0"/>
      <point x="-26.0" y="323.0"/>
      <point x="-4.0" y="417.0" type="qcurve" smooth="yes"/>
      <point x="-38.0" y="490.0" type="line"/>
      <point x="19.0" y="620.0" type="line"/>
      <point x="134.0" y="614.0"/>
      <point x="290.0" y="607.0"/>
      <point x="398.0" y="606.0" type="qcurve" smooth="yes"/>
      <point x="1136.0" y="608.0" type="line"/>
      <point x="1098.0" y="434.0" type="line"/>
      <point x="314.0" y="425.0" type="line"/>
      <point x="296.0" y="391.0"/>
      <point x="275.0" y="272.0"/>
      <point x="295.0" y="198.0" type="qcurve" smooth="yes"/>
      <point x="314.0" y="183.0"/>
      <point x="441.0" y="158.0"/>
      <point x="543.0" y="158.0" type="qcurve" smooth="yes"/>
      <point x="725.0" y="158.0"/>
      <point x="970.0" y="338.0"/>
      <point x="1024.0" y="563.0" type="qcurve" smooth="yes"/>
      <point x="1069.0" y="740.0"/>
      <point x="884.0" y="908.0"/>
      <point x="689.0" y="909.0" type="qcurve" smooth="yes"/>
      <point x="493.0" y="909.0"/>
      <point x="213.0" y="782.0"/>
      <point x="152.0" y="737.0" type="qcurve"/>
      <point x="12.0" y="773.0" type="line"/>
      <point x="1.0" y="868.0" type="line"/>
      <point x="119.0" y="986.0"/>
      <point x="543.0" y="1107.0"/>
      <point x="810.0" y="1111.0" type="qcurve" smooth="yes"/>
      <point x="1290.0" y="1111.0"/>
      <point x="1623.0" y="795.0"/>
    </contour>
  </outline>
</glyph>
<glyph name="circumflex" format="2">
  <advance width="1024"/>
  <unicode hex="02C6"/>
  <outline>
    <contour>
      <point x="697.0" y="1647.0" type="qcurve" smooth="yes"/>
      <point x="738.0" y="1647.0"/>
      <point x="807.0" y="1603.0"/>
      <point x="845.0" y="1549.0" type="qcurve" smooth="yes"/>
      <point x="1094.0" y="1282.0" type="line"/>
      <point x="969.0" y="1180.0" type="line"/>
      <point x="656.0" y="1388.0" type="line"/>
      <point x="245.0" y="1180.0" type="line"/>
      <point x="154.0" y="1290.0" type="line"/>
      <point x="511.0" y="1549.0" type="line" smooth="yes"/>
      <point x="580.0" y="1600.0"/>
      <point x="656.0" y="1647.0"/>
    </contour>
  </outline>
</glyph>
<glyph name="breve" format="2">
  <advance width="1024"/>
  <unicode hex="02D8"/>
  <outline>
    <contour>
      <point x="1006.0" y="1577.0" type="qcurve"/>
      <point x="1131.0" y="1530.0" type="line"/>
      <point x="1068.0" y="1376.0"/>
      <point x="794.0" y="1183.0"/>
      <point x="574.0" y="1183.0" type="qcurve" smooth="yes"/>
      <point x="372.0" y="1183.0"/>
      <point x="159.0" y="1388.0"/>
      <point x="170.0" y="1530.0" type="qcurve"/>
      <point x="298.0" y="1578.0" type="line"/>
      <point x="325.0" y="1500.0"/>
      <point x="481.0" y="1395.0"/>
      <point x="617.0" y="1395.0" type="qcurve" smooth="yes"/>
      <point x="748.0" y="1395.0"/>
      <point x="942.0" y="1495.0"/>
    </contour>
  </outline>
</glyph>
<glyph name="hungarumlaut" format="2">
  <advance width="1024"/>
  <unicode hex="02DD"/>
  <outline>
    <contour>
      <point x="183.0" y="1305.0" type="line"/>
      <point x="268.0" y="1200.0" type="line"/>
      <point x="669.0" y="1394.0" type="line" smooth="yes"/>
      <point x="725.0" y="1418.0"/>
      <point x="794.0" y="1497.0"/>
      <point x="794.0" y="1537.0" type="qcurve" smooth="yes"/>
      <point x="794.0" y="1576.0"/>
      <point x="712.0" y="1644.0"/>
      <point x="664.0" y="1644.0" type="qcurve" smooth="yes"/>
      <point x="619.0" y="1644.0"/>
      <point x="512.0" y="1564.0"/>
      <point x="460.0" y="1519.0" type="qcurve" smooth="yes"/>
    </contour>
    <contour>
      <point x="763.0" y="1305.0" type="line"/>
      <point x="848.0" y="1200.0" type="line"/>
      <point x="1246.0" y="1398.0" type="line" smooth="yes"/>
      <point x="1300.0" y="1423.0"/>
      <point x="1364.0" y="1497.0"/>
      <point x="1364.0" y="1537.0" type="qcurve" smooth="yes"/>
      <point x="1364.0" y="1576.0"/>
      <point x="1286.0" y="1644.0"/>
      <point x="1234.0" y="1644.0" type="qcurve" smooth="yes"/>
      <point x="1189.0" y="1644.0"/>
      <point x="1087.0" y="1568.0"/>
      <point x="1037.0" y="1523.0" type="qcurve" smooth="yes"/>
    </contour>
  </outline>
</glyph>
<glyph name="horizontalbar" format="2">
  <advance width="1442"/>
  <unicode hex="2015"/>
  <outline>
    <contour>
      <point x="731.0" y="690.0" type="line"/>
      <point x="79.0" y="690.0" type="line"/>
      <point x="121.0" y="855.0" type="line"/>
      <point x="755.0" y="855.0" type="line"/>
      <point x="1237.0" y="855.0" type="line"/>
      <point x="1206.0" y="690.0" type="line"/>
    </contour>
  </outline>
</glyph>
<glyph name="quotedblright" format="2">
  <advance width="1226"/>
  <unicode hex="201D"/>
  <outline>
    <contour>
      <point x="771.0" y="853.0" type="line"/>
      <point x="851.0" y="903.0"/>
      <point x="996.0" y="1023.0"/>
      <point x="1025.0" y="1090.0" type="qcurve"/>
      <point x="906.0" y="1090.0"/>
      <point x="773.0" y="1212.0"/>
      <point x="773.0" y="1307.0" type="qcurve" smooth="yes"/>
      <point x="773.0" y="1399.0"/>
      <point x="922.0" y="1536.0"/>
      <point x="1026.0" y="1536.0" type="qcurve" smooth="yes"/>
      <point x="1131.0" y="1536.0"/>
      <point x="1276.0" y="1399.0"/>
      <point x="1276.0" y="1264.0" type="qcurve" smooth="yes"/>
      <point x="1276.0" y="1111.0"/>
      <point x="1049.0" y="842.0"/>
      <point x="863.0" y="741.0" type="qcurve"/>
    </contour>
    <contour>
      <point x="148.0" y="853.0" type="line"/>
      <point x="228.0" y="903.0"/>
      <point x="373.0" y="1023.0"/>
      <point x="402.0" y="1090.0" type="qcurve"/>
      <point x="283.0" y="1090.0"/>
      <point x="150.0" y="1212.0"/>
      <point x="150.0" y="1307.0" type="qcurve" smooth="yes"/>
      <point x="150.0" y="1399.0"/>
      <point x="299.0" y="1536.0"/>
      <point x="403.0" y="1536.0" type="qcurve" smooth="yes"/>
      <point x="508.0" y="1536.0"/>
      <point x="653.0" y="1399.0"/>
      <point x="653.0" y="1264.0" type="qcurve" smooth="yes"/>
      <point x="653.0" y="1111.0"/>
      <point x="426.0" y="842.0"/>
      <point x="240.0" y="741.0" type="qcurve"/>
    </contour>
  </outline>
</glyph>
<glyph name="daggerdbl" format="2">
  <advance width="1183"/>
  <unicode hex="2021"/>
  <outline>
    <contour>
      <point x="330.0" y="-540.0" type="line"/>
      <point x="310.0" y="-58.0" type="line"/>
      <point x="474.0" y="550.0" type="line"/>
      <point x="529.0" y="830.0" type="line"/>
      <point x="601.0" y="1438.0" type="line"/>
      <point x="695.0" y="1506.0" type="line"/>
      <point x="848.0" y="1506.0" type="line"/>
      <point x="920.0" y="1438.0" type="line"/>
      <point x="742.0" y="830.0" type="line"/>
      <point x="688.0" y="550.0" type="line"/>
      <point x="616.0" y="-58.0" type="line"/>
      <point x="410.0" y="-540.0" type="line"/>
    </contour>
    <contour>
      <point x="134.0" y="832.0" type="line"/>
      <point x="136.0" y="1000.0" type="line"/>
      <point x="677.0" y="992.0" type="line"/>
      <point x="1200.0" y="1000.0" type="line"/>
      <point x="1198.0" y="832.0" type="line"/>
      <point x="646.0" y="836.0" type="line"/>
    </contour>
    <contour>
      <point x="49.0" y="414.0" type="line"/>
      <point x="51.0" y="582.0" type="line"/>
      <point x="593.0" y="574.0" type="line"/>
      <point x="1115.0" y="582.0" type="line"/>
      <point x="1113.0" y="414.0" type="line"/>
      <point x="560.0" y="418.0" type="line"/>
    </contour>
  </outline>
</glyph>
<glyph name="colonsign" format="2">
  <advance width="1656"/>
  <unicode hex="20A1"/>
  <outline>
    <contour>
      <point x="705.0" y="-98.0" type="line"/>
      <point x="745.0" y="84.0" type="line"/>
      <point x="762.0" y="79.0" type="line"/>
      <point x="947.0" y="872.0" type="line"/>
      <point x="1081.0" y="803.0" type="line"/>
      <point x="915.0" y="69.0" type="line"/>
      <point x="955.0" y="65.0" type="line"/>
      <point x="916.0" y="-69.0" type="line"/>
    </contour>
    <contour>
      <point x="1087.0" y="1581.0" type="line"/>
      <point x="1303.0" y="1579.0" type="line"/>
      <point x="1255.0" y="1388.0" type="line"/>
      <point x="1213.0" y="1392.0" type="line"/>
      <point x="1081.0" y="803.0" type="line"/>
      <point x="947.0" y="872.0" type="line"/>
      <point x="1068.0" y="1420.0" type="line"/>
      <point x="1048.0" y="1425.0" type="line"/>
    </contour>
    <contour>
      <point x="442.0" y="-128.0" type="line"/>
      <point x="468.0" y="33.0" type="line"/>
      <point x="495.0" y="28.0" type="line"/>
      <point x="697.0" y="872.0" type="line"/>
      <point x="831.0" y="803.0" type="line"/>
      <point x="648.0" y="18.0" type="line"/>
      <point x="678.0" y="14.0" type="line"/>
      <point x="653.0" y="-99.0" type="line"/>
    </contour>
    <contour>
      <point x="827.0" y="1581.0" type="line"/>
      <point x="1043.0" y="1579.0" type="line"/>
      <point x="988.0" y="1352.0" type="line"/>
      <point x="956.0" y="1356.0" type="line"/>
      <point x="831.0" y="803.0" type="line"/>
      <point x="697.0" y="872.0" type="line"/>
      <point x="819.0" y="1414.0" type="line"/>
      <point x="789.0" y="1419.0" type="line"/>
    </contour>
    <contour>
      <point x="6.0" y="804.0" type="qcurve" smooth="yes"/>
      <point x="92.0" y="1150.0"/>
      <point x="640.0" y="1490.0"/>
      <point x="1035.0" y="1434.0" type="qcurve" smooth="yes"/>
      <point x="1321.0" y="1388.0"/>
      <point x="1577.0" y="1122.0"/>
      <point x="1540.0" y="956.0" type="qcurve"/>
      <point x="1305.0" y="956.0" type="line"/>
      <point x="1319.0" y="1053.0"/>
      <point x="1161.0" y="1231.0"/>
      <point x="1028.0" y="1249.0" type="qcurve" smooth="yes"/>
      <point x="836.0" y="1275.0"/>
      <point x="526.0" y="995.0"/>
      <point x="478.0" y="797.0" type="qcurve" smooth="yes"/>
      <point x="415.0" y="544.0"/>
      <point x="533.0" y="252.0"/>
      <point x="739.0" y="236.0" type="qcurve" smooth="yes"/>
      <point x="905.0" y="226.0"/>
      <point x="1105.0" y="323.0"/>
      <point x="1210.0" y="406.0" type="qcurve"/>
      <point x="1196.0" y="431.0" type="line"/>
      <point x="1385.0" y="275.0" type="line"/>
      <point x="1304.0" y="194.0"/>
      <point x="987.0" y="29.0"/>
      <point x="691.0" y="46.0" type="qcurve" smooth="yes"/>
      <point x="300.0" y="72.0"/>
      <point x="-86.0" y="430.0"/>
    </contour>
  </outline>
</glyph>
<glyph name="franc" format="2">
  <advance width="1793"/>
  <unicode hex="20A3"/>
  <outline>
    <contour>
      <point x="-56.0" y="315.0" type="line"/>
      <point x="-13.0" y="511.0" type="line"/>
      <point x="1093.0" y="511.0" type="line"/>
      <point x="1049.0" y="315.0" type="line"/>
    </contour>
    <contour>
      <point x="-103.0" y="0.0" type="line"/>
      <point x="-73.0" y="169.0" type="line"/>
      <point x="91.0" y="189.0" type="line"/>
      <point x="224.0" y="806.0" type="line"/>
      <point x="306.0" y="1289.0" type="line"/>
      <point x="91.0" y="1311.0" type="line"/>
      <point x="118.0" y="1500.0" type="line"/>
      <point x="1746.0" y="1500.0" type="line"/>
      <point x="1690.0" y="1072.0" type="line"/>
      <point x="1483.0" y="1072.0" type="line"/>
      <point x="1462.0" y="1305.0" type="line"/>
      <point x="859.0" y="1293.0" type="line"/>
      <point x="819.0" y="1269.0" type="line"/>
      <point x="725.0" y="770.0" type="line"/>
      <point x="617.0" y="180.0" type="line"/>
      <point x="843.0" y="169.0" type="line"/>
      <point x="811.0" y="0.0" type="line"/>
    </contour>
    <contour>
      <point x="402.0" y="595.0" type="line"/>
      <point x="428.0" y="747.0" type="line"/>
      <point x="1345.0" y="761.0" type="line"/>
      <point x="1384.0" y="858.0" type="line"/>
      <point x="1568.0" y="858.0" type="line"/>
      <point x="1514.0" y="480.0" type="line"/>
      <point x="1330.0" y="480.0" type="line"/>
      <point x="1312.0" y="575.0" type="line"/>
    </contour>
  </outline>
</glyph>
<glyph name="lira" format="2">
  <advance width="1583"/>
  <unicode hex="20A4"/>
  <outline>
    <contour>
      <point x="170.0" y="-35.0" type="qcurve" smooth="yes"/>
      <point x="18.0" y="-35.0"/>
      <point x="-176.0" y="105.0"/>
      <point x="-162.0" y="238.0" type="qcurve" smooth="yes"/>
      <point x="-150.0" y="361.0"/>
      <point x="57.0" y="492.0"/>
      <point x="186.0" y="492.0" type="qcurve" smooth="yes"/>
      <point x="307.0" y="492.0"/>
      <point x="489.0" y="422.0"/>
      <point x="606.0" y="370.0" type="qcurve" smooth="yes"/>
      <point x="760.0" y="297.0"/>
      <point x="1012.0" y="243.0"/>
      <point x="1078.0" y="243.0" type="qcurve" smooth="yes"/>
      <point x="1153.0" y="243.0"/>
      <point x="1277.0" y="274.0"/>
      <point x="1354.0" y="324.0" type="qcurve"/>
      <point x="1434.0" y="170.0" type="line"/>
      <point x="1371.0" y="85.0"/>
      <point x="1166.0" y="-9.0"/>
      <point x="1042.0" y="-9.0" type="qcurve" smooth="yes"/>
      <point x="902.0" y="-9.0"/>
      <point x="629.0" y="83.0"/>
      <point x="473.0" y="177.0" type="qcurve" smooth="yes"/>
      <point x="394.0" y="221.0"/>
      <point x="248.0" y="287.0"/>
      <point x="190.0" y="287.0" type="qcurve" smooth="yes"/>
      <point x="143.0" y="287.0"/>
      <point x="59.0" y="241.0"/>
      <point x="57.0" y="205.0" type="qcurve" smooth="yes"/>
      <point x="56.0" y="169.0"/>
      <point x="139.0" y="127.0"/>
      <point x="205.0" y="127.0" type="qcurve" smooth="yes"/>
      <point x="407.0" y="127.0"/>
      <point x="564.0" y="326.0"/>
      <point x="564.0" y="483.0" type="qcurve" smooth="yes"/>
      <point x="564.0" y="574.0"/>
      <point x="448.0" y="744.0"/>
      <point x="400.0" y="808.0" type="qcurve" smooth="yes"/>
      <point x="356.0" y="866.0"/>
      <point x="262.0" y="1078.0"/>
      <point x="276.0" y="1180.0" type="qcurve" smooth="yes"/>
      <point x="294.0" y="1319.0"/>
      <point x="611.0" y="1521.0"/>
      <point x="891.0" y="1521.0" type="qcurve" smooth="yes"/>
      <point x="1110.0" y="1521.0"/>
      <point x="1366.0" y="1426.0"/>
      <point x="1442.0" y="1354.0" type="qcurve"/>
      <point x="1308.0" y="1179.0" type="line"/>
      <point x="1250.0" y="1235.0"/>
      <point x="1074.0" y="1308.0"/>
      <point x="979.0" y="1306.0" type="qcurve" smooth="yes"/>
      <point x="876.0" y="1305.0"/>
      <point x="723.0" y="1241.0"/>
      <point x="712.0" y="1173.0" type="qcurve" smooth="yes"/>
      <point x="702.0" y="1104.0"/>
      <point x="745.0" y="950.0"/>
      <point x="787.0" y="885.0" type="qcurve" smooth="yes"/>
      <point x="840.0" y="802.0"/>
      <point x="916.0" y="618.0"/>
      <point x="915.0" y="508.0" type="qcurve" smooth="yes"/>
      <point x="913.0" y="293.0"/>
      <point x="483.0" y="-35.0"/>
    </contour>
    <contour>
      <point x="241.0" y="542.0" type="line"/>
      <point x="269.0" y="734.0" type="line"/>
      <point x="1204.0" y="734.0" type="line"/>
      <point x="1171.0" y="542.0" type="line"/>
    </contour>
    <contour>
      <point x="138.0" y="822.0" type="line"/>
      <point x="166.0" y="1014.0" type="line"/>
      <point x="1241.0" y="1014.0" type="line"/>
      <point x="1208.0" y="822.0" type="line"/>
    </contour>
  </outline>
</glyph>
<glyph name="peseta" format="2">
  <advance width="4397"/>
  <unicode hex="20A7"/>
  <outline>
    <contour>
      <point x="-65.0" y="0.0" type="line"/>
      <point x="-16.0" y="178.0" type="line"/>
      <point x="113.0" y="183.0" type="line"/>
      <point x="253.0" y="836.0" type="line"/>
      <point x="338.0" y="1290.0" type="line"/>
      <point x="127.0" y="1308.0" type="line"/>
      <point x="150.0" y="1500.0" type="line"/>
      <point x="1402.0" y="1500.0" type="line" smooth="yes"/>
      <point x="1669.0" y="1500.0"/>
      <point x="1956.0" y="1234.0"/>
      <point x="1939.0" y="1006.0" type="qcurve" smooth="yes"/>
      <point x="1915.0" y="739.0"/>
      <point x="1490.0" y="378.0"/>
      <point x="1058.0" y="378.0" type="qcurve" smooth="yes"/>
      <point x="939.0" y="378.0"/>
      <point x="646.0" y="397.0"/>
      <point x="601.0" y="414.0" type="qcurve"/>
      <point x="638.0" y="617.0" type="line"/>
      <point x="690.0" y="608.0"/>
      <point x="915.0" y="585.0"/>
      <point x="954.0" y="585.0" type="qcurve" smooth="yes"/>
      <point x="1203.0" y="585.0"/>
      <point x="1442.0" y="811.0"/>
      <point x="1457.0" y="979.0" type="qcurve" smooth="yes"/>
      <point x="1465.0" y="1120.0"/>
      <point x="1349.0" y="1298.0"/>
      <point x="1175.0" y="1298.0" type="qcurve" smooth="yes"/>
      <point x="883.0" y="1298.0" type="line"/>
      <point x="857.0" y="1276.0" type="line"/>
      <point x="746.0" y="764.0" type="line"/>
      <point x="643.0" y="194.0" type="line"/>
      <point x="838.0" y="175.0" type="line"/>
      <point x="802.0" y="0.0" type="line"/>
    </contour>
    <contour>
      <point x="2083.0" y="-25.0" type="line"/>
      <point x="2005.0" y="43.0" type="line"/>
      <point x="2151.0" y="701.0" type="line"/>
      <point x="2128.0" y="820.0" type="line"/>
      <point x="1936.0" y="760.0" type="line"/>
      <point x="1974.0" y="961.0" type="line"/>
      <point x="2262.0" y="1036.0"/>
      <point x="2467.0" y="1350.0"/>
      <point x="2464.0" y="1283.0" type="qcurve"/>
      <point x="2656.0" y="1283.0" type="line"/>
      <point x="2715.0" y="1195.0" type="line"/>
      <point x="2577.0" y="425.0" type="line"/>
      <point x="2550.0" y="225.0" type="line"/>
      <point x="2755.0" y="200.0" type="line"/>
      <point x="2750.0" y="35.0" type="line"/>
    </contour>
    <contour>
      <point x="2528.0" y="827.0" type="line"/>
      <point x="2588.0" y="1016.0" type="line"/>
      <point x="2946.0" y="1016.0" type="line"/>
      <point x="2931.0" y="853.0" type="line"/>
    </contour>
    <contour>
      <point x="2796.0" y="207.0" type="qcurve" smooth="yes"/>
      <point x="2789.0" y="290.0"/>
      <point x="2905.0" y="369.0"/>
      <point x="3015.0" y="369.0" type="qcurve" smooth="yes"/>
      <point x="3063.0" y="343.0" type="line"/>
      <point x="3081.0" y="242.0" type="line" smooth="yes"/>
      <point x="3086.0" y="197.0"/>
      <point x="3290.0" y="140.0"/>
      <point x="3437.0" y="140.0" type="qcurve" smooth="yes"/>
      <point x="3627.0" y="140.0"/>
      <point x="3760.0" y="158.0"/>
      <point x="3757.0" y="183.0" type="qcurve" smooth="yes"/>
      <point x="3754.0" y="223.0"/>
      <point x="3637.0" y="224.0"/>
      <point x="3381.0" y="317.0" type="qcurve" smooth="yes"/>
      <point x="3117.0" y="406.0"/>
      <point x="2910.0" y="583.0"/>
      <point x="2912.0" y="736.0" type="qcurve" smooth="yes"/>
      <point x="2914.0" y="912.0"/>
      <point x="3227.0" y="1068.0"/>
      <point x="3599.0" y="1068.0" type="qcurve" smooth="yes"/>
      <point x="3866.0" y="1068.0"/>
      <point x="4176.0" y="924.0"/>
      <point x="4183.0" y="816.0" type="qcurve" smooth="yes"/>
      <point x="4188.0" y="737.0"/>
      <point x="4051.0" y="742.0"/>
      <point x="3997.0" y="742.0" type="qcurve" smooth="yes"/>
      <point x="3941.0" y="766.0" type="line"/>
      <point x="3927.0" y="798.0" type="line" smooth="yes"/>
      <point x="3925.0" y="837.0"/>
      <point x="3707.0" y="898.0"/>
      <point x="3572.0" y="898.0" type="qcurve" smooth="yes"/>
      <point x="3419.0" y="898.0"/>
      <point x="3324.0" y="867.0"/>
      <point x="3328.0" y="839.0" type="qcurve" smooth="yes"/>
      <point x="3333.0" y="804.0"/>
      <point x="3441.0" y="762.0"/>
      <point x="3667.0" y="690.0" type="qcurve" smooth="yes"/>
      <point x="3926.0" y="597.0"/>
      <point x="4137.0" y="439.0"/>
      <point x="4140.0" y="333.0" type="qcurve" smooth="yes"/>
      <point x="4145.0" y="169.0"/>
      <point x="3788.0" y="-32.0"/>
      <point x="3438.0" y="-32.0" type="qcurve" smooth="yes"/>
      <point x="3130.0" y="-32.0"/>
      <point x="2804.0" y="90.0"/>
    </contour>
  </outline>
</glyph>
<glyph name="won" format="2">
  <advance width="2551"/>
  <unicode hex="20A9"/>
  <outline>
    <contour>
      <point x="2093.0" y="575.0" type="line"/>
      <point x="1780.0" y="575.0" type="line"/>
      <point x="1790.0" y="601.0" type="line"/>
      <point x="1237.0" y="601.0" type="line"/>
      <point x="1247.0" y="723.0" type="line"/>
      <point x="1833.0" y="723.0" type="line"/>
      <point x="1843.0" y="742.0" type="line"/>
      <point x="2165.0" y="742.0" type="line"/>
    </contour>
    <contour>
      <point x="2299.0" y="926.0" type="line"/>
      <point x="1984.0" y="926.0" type="line"/>
      <point x="1994.0" y="953.0" type="line"/>
      <point x="1232.0" y="953.0" type="line"/>
      <point x="1242.0" y="1080.0" type="line"/>
      <point x="2058.0" y="1080.0" type="line"/>
      <point x="2068.0" y="1106.0" type="line"/>
      <point x="2370.0" y="1106.0" type="line"/>
    </contour>
    <contour>
      <point x="22.0" y="575.0" type="line"/>
      <point x="25.0" y="742.0" type="line"/>
      <point x="324.0" y="742.0" type="line"/>
      <point x="327.0" y="723.0" type="line"/>
      <point x="1247.0" y="723.0" type="line"/>
      <point x="1237.0" y="601.0" type="line"/>
      <point x="307.0" y="601.0" type="line"/>
      <point x="312.0" y="575.0" type="line"/>
    </contour>
    <contour>
      <point x="30.0" y="926.0" type="line"/>
      <point x="34.0" y="1106.0" type="line"/>
      <point x="320.0" y="1106.0" type="line"/>
      <point x="322.0" y="1080.0" type="line"/>
      <point x="1242.0" y="1080.0" type="line"/>
      <point x="1232.0" y="953.0" type="line"/>
      <point x="316.0" y="953.0" type="line"/>
      <point x="316.0" y="926.0" type="line"/>
    </contour>
    <contour>
      <point x="22.0" y="1321.0" type="line"/>
      <point x="37.0" y="1500.0" type="line"/>
      <point x="746.0" y="1500.0" type="line"/>
      <point x="730.0" y="1324.0" type="line"/>
      <point x="602.0" y="1286.0" type="line"/>
      <point x="643.0" y="842.0" type="line"/>
      <point x="698.0" y="346.0" type="line"/>
      <point x="651.0" y="346.0" type="line"/>
      <point x="955.0" y="814.0" type="line"/>
      <point x="1145.0" y="1166.0" type="line"/>
      <point x="1245.0" y="922.0" type="line"/>
      <point x="1045.0" y="680.0" type="line"/>
      <point x="704.0" y="0.0" type="line"/>
      <point x="277.0" y="0.0" type="line"/>
      <point x="202.0" y="736.0" type="line"/>
      <point x="139.0" y="1283.0" type="line"/>
    </contour>
    <contour>
      <point x="925.0" y="1319.0" type="line"/>
      <point x="942.0" y="1500.0" type="line"/>
      <point x="1657.0" y="1500.0" type="line"/>
      <point x="1639.0" y="1324.0" type="line"/>
      <point x="1476.0" y="1279.0" type="line"/>
      <point x="1526.0" y="857.0" type="line"/>
      <point x="1593.0" y="349.0" type="line"/>
      <point x="1555.0" y="346.0" type="line"/>
      <point x="1891.0" y="856.0" type="line"/>
      <point x="2154.0" y="1274.0" type="line"/>
      <point x="2071.0" y="1318.0" type="line"/>
      <point x="2101.0" y="1500.0" type="line"/>
      <point x="2613.0" y="1500.0" type="line"/>
      <point x="2574.0" y="1313.0" type="line"/>
      <point x="2365.0" y="1282.0" type="line"/>
      <point x="2052.0" y="804.0" type="line"/>
      <point x="1607.0" y="0.0" type="line"/>
      <point x="1196.0" y="0.0" type="line"/>
      <point x="1125.0" y="717.0" type="line"/>
      <point x="1047.0" y="1282.0" type="line"/>
    </contour>
  </outline>
</glyph>
<glyph name="dong" format="2">
  <advance width="2053"/>
  <unicode hex="20AB"/>
  <outline>
    <contour>
      <point x="-128.0" y="-307.0" type="line"/>
      <point x="-78.0" y="-113.0" type="line"/>
      <point x="840.0" y="-116.0" type="line"/>
      <point x="1698.0" y="-113.0" type="line"/>
      <point x="1649.0" y="-307.0" type="line"/>
      <point x="790.0" y="-303.0" type="line"/>
    </contour>
    <contour>
      <point x="805.0" y="1021.0" type="line"/>
      <point x="850.0" y="1210.0" type="line"/>
      <point x="1483.0" y="1207.0" type="line"/>
      <point x="1979.0" y="1210.0" type="line"/>
      <point x="1935.0" y="1021.0" type="line"/>
      <point x="1438.0" y="1025.0" type="line"/>
    </contour>
    <contour>
      <point x="-21.0" y="256.0" type="qcurve" smooth="yes"/>
      <point x="-38.0" y="531.0"/>
      <point x="511.0" y="917.0"/>
      <point x="1026.0" y="917.0" type="qcurve" smooth="yes"/>
      <point x="1247.0" y="917.0" type="line"/>
      <point x="1341.0" y="1334.0" type="line"/>
      <point x="1077.0" y="1382.0" type="line"/>
      <point x="1096.0" y="1515.0" type="line"/>
      <point x="1737.0" y="1603.0" type="line"/>
      <point x="1816.0" y="1505.0" type="line"/>
      <point x="1579.0" y="421.0" type="line"/>
      <point x="1509.0" y="189.0" type="line"/>
      <point x="1853.0" y="180.0" type="line"/>
      <point x="1840.0" y="38.0" type="line"/>
      <point x="1179.0" y="-9.0" type="line"/>
      <point x="1093.0" y="85.0" type="line"/>
      <point x="1109.0" y="181.0" type="line"/>
      <point x="1007.0" y="101.0"/>
      <point x="709.0" y="-25.0"/>
      <point x="415.0" y="-25.0" type="qcurve" smooth="yes"/>
      <point x="217.0" y="-25.0"/>
      <point x="-14.0" y="126.0"/>
    </contour>
    <contour>
      <point x="465.0" y="307.0" type="qcurve" smooth="yes"/>
      <point x="467.0" y="232.0"/>
      <point x="571.0" y="194.0"/>
      <point x="669.0" y="194.0" type="qcurve" smooth="yes"/>
      <point x="796.0" y="194.0"/>
      <point x="1087.0" y="333.0"/>
      <point x="1135.0" y="472.0" type="qcurve" smooth="yes"/>
      <point x="1207.0" y="704.0" type="line"/>
      <point x="1201.0" y="712.0"/>
      <point x="1100.0" y="765.0"/>
      <point x="956.0" y="765.0" type="qcurve" smooth="yes"/>
      <point x="733.0" y="765.0"/>
      <point x="461.0" y="416.0"/>
    </contour>
  </outline>
</glyph>
<glyph name="kip" format="2">
  <advance width="2057"/>
  <unicode hex="20AD"/>
  <outline>
    <contour>
      <point x="1896.0" y="705.0" type="line"/>
      <point x="1006.0" y="705.0" type="line"/>
      <point x="1006.0" y="741.0" type="line"/>
      <point x="980.0" y="741.0" type="line"/>
      <point x="1000.0" y="853.0" type="line"/>
      <point x="1019.0" y="853.0" type="line"/>
      <point x="1019.0" y="902.0" type="line"/>
      <point x="1949.0" y="902.0" type="line"/>
    </contour>
    <contour>
      <point x="-32.0" y="705.0" type="line"/>
      <point x="-8.0" y="901.0" type="line"/>
      <point x="353.0" y="901.0" type="line"/>
      <point x="333.0" y="853.0" type="line"/>
      <point x="412.0" y="853.0" type="line"/>
      <point x="267.0" y="741.0" type="line"/>
      <point x="310.0" y="741.0" type="line"/>
      <point x="300.0" y="705.0" type="line"/>
    </contour>
    <contour>
      <point x="-139.0" y="0.0" type="line"/>
      <point x="-98.0" y="171.0" type="line"/>
      <point x="50.0" y="186.0" type="line"/>
      <point x="193.0" y="858.0" type="line"/>
      <point x="265.0" y="1289.0" type="line"/>
      <point x="80.0" y="1311.0" type="line"/>
      <point x="103.0" y="1500.0" type="line"/>
      <point x="971.0" y="1500.0" type="line"/>
      <point x="928.0" y="1311.0" type="line"/>
      <point x="762.0" y="1289.0" type="line"/>
      <point x="669.0" y="826.0" type="line"/>
      <point x="542.0" y="186.0" type="line"/>
      <point x="720.0" y="171.0" type="line"/>
      <point x="692.0" y="0.0" type="line"/>
    </contour>
    <contour>
      <point x="445.0" y="297.0" type="line"/>
      <point x="503.0" y="545.0" type="line"/>
      <point x="1663.0" y="1326.0" type="line"/>
      <point x="1480.0" y="1317.0" type="line"/>
      <point x="1509.0" y="1500.0" type="line"/>
      <point x="2197.0" y="1500.0" type="line"/>
      <point x="2168.0" y="1329.0" type="line"/>
      <point x="2010.0" y="1320.0" type="line"/>
    </contour>
    <contour>
      <point x="1029.0" y="871.0" type="line"/>
      <point x="1406.0" y="1186.0" type="line"/>
      <point x="1763.0" y="178.0" type="line"/>
      <point x="1981.0" y="163.0" type="line"/>
      <point x="1963.0" y="0.0" type="line"/>
      <point x="1069.0" y="0.0" type="line"/>
      <point x="1091.0" y="163.0" type="line"/>
      <point x="1246.0" y="178.0" type="line"/>
    </contour>
  </outline>
</glyph>
<glyph name="peso" format="2">
  <advance width="1957"/>
  <unicode hex="20B1"/>
  <outline>
    <contour>
      <point x="1848.0" y="827.0" type="line"/>
      <point x="1535.0" y="827.0" type="line"/>
      <point x="1540.0" y="848.0" type="line"/>
      <point x="613.0" y="848.0" type="line"/>
      <point x="640.0" y="987.0" type="line"/>
      <point x="1581.0" y="987.0" type="line"/>
      <point x="1585.0" y="1009.0" type="line"/>
      <point x="1891.0" y="1009.0" type="line"/>
    </contour>
    <contour>
      <point x="58.0" y="828.0" type="line"/>
      <point x="82.0" y="1009.0" type="line"/>
      <point x="375.0" y="1009.0" type="line"/>
      <point x="371.0" y="987.0" type="line"/>
      <point x="640.0" y="987.0" type="line"/>
      <point x="613.0" y="848.0" type="line"/>
      <point x="347.0" y="848.0" type="line"/>
      <point x="344.0" y="828.0" type="line"/>
    </contour>
    <contour>
      <point x="1922.0" y="1086.0" type="line"/>
      <point x="1603.0" y="1086.0" type="line"/>
      <point x="1606.0" y="1104.0" type="line"/>
      <point x="900.0" y="1104.0" type="line"/>
      <point x="927.0" y="1243.0" type="line"/>
      <point x="1652.0" y="1243.0" type="line"/>
      <point x="1665.0" y="1269.0" type="line"/>
      <point x="1967.0" y="1269.0" type="line"/>
    </contour>
    <contour>
      <point x="92.0" y="1086.0" type="line"/>
      <point x="118.0" y="1269.0" type="line"/>
      <point x="427.0" y="1269.0" type="line"/>
      <point x="422.0" y="1243.0" type="line"/>
      <point x="927.0" y="1243.0" type="line"/>
      <point x="900.0" y="1105.0" type="line"/>
      <point x="397.0" y="1105.0" type="line"/>
      <point x="394.0" y="1086.0" type="line"/>
    </contour>
    <contour>
      <point x="-104.0" y="0.0" type="line"/>
      <point x="-55.0" y="178.0" type="line"/>
      <point x="84.0" y="183.0" type="line"/>
      <point x="222.0" y="836.0" type="line"/>
      <point x="309.0" y="1290.0" type="line"/>
      <point x="108.0" y="1308.0" type="line"/>
      <point x="131.0" y="1500.0" type="line"/>
      <point x="1258.0" y="1500.0" type="line" smooth="yes"/>
      <point x="1525.0" y="1500.0"/>
      <point x="1841.0" y="1310.0"/>
      <point x="1812.0" y="1031.0" type="qcurve" smooth="yes"/>
      <point x="1773.0" y="702.0"/>
      <point x="1387.0" y="563.0"/>
      <point x="995.0" y="563.0" type="qcurve" smooth="yes"/>
      <point x="876.0" y="563.0"/>
      <point x="593.0" y="582.0"/>
      <point x="548.0" y="599.0" type="qcurve"/>
      <point x="585.0" y="798.0" type="line"/>
      <point x="637.0" y="789.0"/>
      <point x="852.0" y="766.0"/>
      <point x="891.0" y="766.0" type="qcurve" smooth="yes"/>
      <point x="1134.0" y="766.0"/>
      <point x="1285.0" y="806.0"/>
      <point x="1313.0" y="1007.0" type="qcurve" smooth="yes"/>
      <point x="1340.0" y="1200.0"/>
      <point x="1208.0" y="1310.0"/>
      <point x="1034.0" y="1310.0" type="qcurve" smooth="yes"/>
      <point x="859.0" y="1310.0" type="line"/>
      <point x="833.0" y="1288.0" type="line"/>
      <point x="717.0" y="764.0" type="line"/>
      <point x="616.0" y="194.0" type="line"/>
      <point x="804.0" y="175.0" type="line"/>
      <point x="768.0" y="0.0" type="line"/>
    </contour>
  </outline>
</glyph>
<glyph name="manat" format="2">
  <advance width="1782"/>
  <unicode hex="20BC"/>
  <outline>
    <contour>
      <point x="584.0" y="375.0" type="line"/>
      <point x="654.0" y="664.0" type="line"/>
      <point x="815.0" y="1352.0" type="line"/>
      <point x="846.0" y="1572.0" type="line"/>
      <point x="1083.0" y="1578.0" type="line"/>
      <point x="1023.0" y="1352.0" type="line"/>
      <point x="918.0" y="764.0" type="line"/>
      <point x="855.0" y="401.0" type="line"/>
    </contour>
    <contour>
      <point x="1639.0" y="161.0" type="line"/>
      <point x="1614.0" y="0.0" type="line"/>
      <point x="831.0" y="0.0" type="line"/>
      <point x="852.0" y="142.0" type="line"/>
      <point x="1047.0" y="169.0" type="line"/>
      <point x="1112.0" y="505.0" type="line" smooth="yes"/>
      <point x="1167.0" y="812.0"/>
      <point x="1180.0" y="969.0"/>
      <point x="1175.0" y="1004.0" type="qcurve" smooth="yes"/>
      <point x="1166.0" y="1117.0"/>
      <point x="1004.0" y="1177.0"/>
      <point x="850.0" y="1177.0" type="qcurve" smooth="yes"/>
      <point x="649.0" y="1177.0"/>
      <point x="471.0" y="1001.0"/>
      <point x="434.0" y="839.0" type="qcurve" smooth="yes"/>
      <point x="354.0" y="409.0" type="line"/>
      <point x="310.0" y="169.0" type="line"/>
      <point x="510.0" y="142.0" type="line"/>
      <point x="489.0" y="0.0" type="line"/>
      <point x="-292.0" y="0.0" type="line"/>
      <point x="-267.0" y="161.0" type="line"/>
      <point x="-36.0" y="177.0" type="line"/>
      <point x="8.0" y="409.0" type="line"/>
      <point x="98.0" y="906.0" type="line" smooth="yes"/>
      <point x="140.0" y="1151.0"/>
      <point x="581.0" y="1440.0"/>
      <point x="904.0" y="1440.0" type="qcurve" smooth="yes"/>
      <point x="1221.0" y="1440.0"/>
      <point x="1587.0" y="1223.0"/>
      <point x="1598.0" y="1043.0" type="qcurve" smooth="yes"/>
      <point x="1604.0" y="1011.0"/>
      <point x="1597.0" y="841.0"/>
      <point x="1529.0" y="505.0" type="qcurve" smooth="yes"/>
      <point x="1464.0" y="176.0" type="line"/>
    </contour>
  </outline>
</glyph>
<glyph name="ruble" format="2">
  <advance width="2010"/>
  <unicode hex="20BD"/>
  <outline>
    <contour>
      <point x="-36.0" y="276.0" type="line"/>
      <point x="10.0" y="453.0" type="line"/>
      <point x="1108.0" y="453.0" type="line"/>
      <point x="1057.0" y="256.0" type="line"/>
    </contour>
    <contour>
      <point x="-100.0" y="0.0" type="line"/>
      <point x="-31.0" y="178.0" type="line"/>
      <point x="106.0" y="177.0" type="line"/>
      <point x="246.0" y="836.0" type="line"/>
      <point x="333.0" y="1298.0" type="line"/>
      <point x="132.0" y="1308.0" type="line"/>
      <point x="155.0" y="1500.0" type="line"/>
      <point x="1242.0" y="1500.0" type="line" smooth="yes"/>
      <point x="1509.0" y="1500.0"/>
      <point x="1859.0" y="1291.0"/>
      <point x="1842.0" y="1063.0" type="qcurve" smooth="yes"/>
      <point x="1818.0" y="796.0"/>
      <point x="1386.0" y="547.0"/>
      <point x="926.0" y="547.0" type="qcurve" smooth="yes"/>
      <point x="387.0" y="547.0"/>
      <point x="104.0" y="621.0"/>
      <point x="75.0" y="654.0" type="qcurve"/>
      <point x="117.0" y="864.0" type="line"/>
      <point x="132.0" y="827.0"/>
      <point x="501.0" y="760.0"/>
      <point x="890.0" y="760.0" type="qcurve" smooth="yes"/>
      <point x="1116.0" y="760.0"/>
      <point x="1330.0" y="868.0"/>
      <point x="1345.0" y="1036.0" type="qcurve" smooth="yes"/>
      <point x="1353.0" y="1177.0"/>
      <point x="1189.0" y="1298.0"/>
      <point x="1015.0" y="1298.0" type="qcurve" smooth="yes"/>
      <point x="893.0" y="1298.0" type="line"/>
      <point x="867.0" y="1284.0" type="line"/>
      <point x="754.0" y="774.0" type="line"/>
      <point x="651.0" y="188.0" type="line"/>
      <point x="828.0" y="175.0" type="line"/>
      <point x="792.0" y="0.0" type="line"/>
    </contour>
  </outline>
</glyph>
<glyph name="trademark" format="2">
  <advance width="2367"/>
  <unicode hex="2122"/>
  <outline>
    <contour>
      <point x="69.0" y="1195.0" type="line"/>
      <point x="134.0" y="1500.0" type="line"/>
      <point x="962.0" y="1500.0" type="line"/>
      <point x="897.0" y="1195.0" type="line"/>
      <point x="761.0" y="1195.0" type="line"/>
      <point x="784.0" y="1364.0" type="line"/>
      <point x="677.0" y="1364.0" type="line"/>
      <point x="644.0" y="1344.0" type="line"/>
      <point x="563.0" y="1031.0" type="line"/>
      <point x="513.0" y="870.0" type="line"/>
      <point x="627.0" y="834.0" type="line"/>
      <point x="604.0" y="700.0" type="line"/>
      <point x="149.0" y="700.0" type="line"/>
      <point x="172.0" y="834.0" type="line"/>
      <point x="303.0" y="870.0" type="line"/>
      <point x="336.0" y="1018.0" type="line"/>
      <point x="402.0" y="1344.0" type="line"/>
      <point x="367.0" y="1364.0" type="line"/>
      <point x="258.0" y="1364.0" type="line"/>
      <point x="205.0" y="1195.0" type="line"/>
    </contour>
    <contour>
      <point x="905.0" y="702.0" type="line"/>
      <point x="931.0" y="830.0" type="line"/>
      <point x="1057.0" y="865.0" type="line"/>
      <point x="1101.0" y="1056.0" type="line"/>
      <point x="1161.0" y="1348.0" type="line"/>
      <point x="1048.0" y="1352.0" type="line"/>
      <point x="1076.0" y="1500.0" type="line"/>
      <point x="1468.0" y="1500.0" type="line"/>
      <point x="1593.0" y="951.0" type="line"/>
      <point x="1966.0" y="1500.0" type="line"/>
      <point x="2333.0" y="1500.0" type="line"/>
      <point x="2305.0" y="1364.0" type="line"/>
      <point x="2189.0" y="1330.0" type="line"/>
      <point x="2127.0" y="1054.0" type="line"/>
      <point x="2087.0" y="863.0" type="line"/>
      <point x="2208.0" y="828.0" type="line"/>
      <point x="2182.0" y="700.0" type="line"/>
      <point x="1757.0" y="700.0" type="line"/>
      <point x="1783.0" y="828.0" type="line"/>
      <point x="1888.0" y="863.0" type="line"/>
      <point x="1932.0" y="1054.0" type="line"/>
      <point x="1989.0" y="1311.0" type="line"/>
      <point x="1589.0" y="697.0" type="line"/>
      <point x="1437.0" y="697.0" type="line"/>
      <point x="1300.0" y="1330.0" type="line"/>
      <point x="1240.0" y="1056.0" type="line"/>
      <point x="1200.0" y="865.0" type="line"/>
      <point x="1310.0" y="830.0" type="line"/>
      <point x="1284.0" y="702.0" type="line"/>
    </contour>
  </outline>
</glyph>
<glyph name="notequal" format="2">
  <advance width="1297"/>
  <unicode hex="2260"/>
  <outline>
    <contour>
      <point x="69.0" y="301.0" type="line"/>
      <point x="69.0" y="548.0" type="line"/>
      <point x="599.0" y="541.0" type="line"/>
      <point x="1074.0" y="548.0" type="line"/>
      <point x="1074.0" y="301.0" type="line"/>
      <point x="669.0" y="305.0" type="line"/>
    </contour>
    <contour>
      <point x="69.0" y="704.0" type="line"/>
      <point x="69.0" y="951.0" type="line"/>
      <point x="459.0" y="946.0" type="line"/>
      <point x="1074.0" y="951.0" type="line"/>
      <point x="1074.0" y="704.0" type="line"/>
      <point x="569.0" y="711.0" type="line"/>
    </contour>
    <contour>
      <point x="130.0" y="95.0" type="line"/>
      <point x="809.0" y="1210.0" type="line"/>
      <point x="1034.0" y="1168.0" type="line"/>
      <point x="355.0" y="53.0" type="line"/>
    </contour>
  </outline>
</glyph>
<glyph name="greaterequal" format="2">
  <advance width="1297"/>
  <unicode hex="2265"/>
  <outline>
    <contour>
      <point x="-116.0" y="-30.0" type="line"/>
      <point x="-116.0" y="214.0" type="line"/>
      <point x="1049.0" y="214.0" type="line"/>
      <point x="1049.0" y="-30.0" type="line"/>
    </contour>
    <contour>
      <point x="22.0" y="479.0" type="qcurve" smooth="yes"/>
      <point x="191.0" y="577.0"/>
      <point x="505.0" y="711.0"/>
      <point x="549.0" y="758.0" type="qcurve"/>
      <point x="503.0" y="814.0"/>
      <point x="266.0" y="984.0"/>
      <point x="134.0" y="1077.0" type="qcurve"/>
      <point x="57.0" y="1144.0"/>
      <point x="211.0" y="1311.0"/>
      <point x="289.0" y="1256.0" type="qcurve" smooth="yes"/>
      <point x="370.0" y="1197.0"/>
      <point x="1129.0" y="762.0"/>
      <point x="1133.0" y="758.0" type="qcurve"/>
      <point x="1130.0" y="754.0"/>
      <point x="251.0" y="331.0"/>
      <point x="138.0" y="271.0" type="qcurve" smooth="yes"/>
      <point x="16.0" y="203.0"/>
      <point x="-88.0" y="409.0"/>
    </contour>
  </outline>
</glyph>
<glyph name="rightanglebracket" format="2">
  <advance width="1342"/>
  <unicode hex="27E9"/>
  <outline>
    <contour>
      <point x="-15.0" y="-155.0" type="line"/>
      <point x="-157.0" y="177.0" type="line"/>
      <point x="778.0" y="777.0" type="line"/>
      <point x="113.0" y="1269.0" type="line"/>
      <point x="309.0" y="1508.0" type="line"/>
      <point x="1160.0" y="885.0" type="line"/>
      <point x="1160.0" y="660.0" type="line"/>
    </contour>
  </outline>
</glyph>
<glyph name="f_f" format="2">
  <advance width="2390"/>
  <unicode hex="FB00"/>
  <outline>
    <contour>
      <point x="-325.0" y="-413.0" type="line" smooth="yes"/>
      <point x="-290.0" y="-259.0" type="line"/>
      <point x="-109.0" y="-269.0" type="line" smooth="yes"/>
      <point x="25.0" y="-270.0"/>
      <point x="124.0" y="-161.0"/>
      <point x="159.0" y="74.0" type="qcurve" smooth="yes"/>
      <point x="286.0" y="905.0" type="line"/>
      <point x="289.0" y="942.0" type="line"/>
      <point x="333.0" y="1185.0" type="line" smooth="yes"/>
      <point x="365.0" y="1361.0"/>
      <point x="703.0" y="1552.0"/>
      <point x="937.0" y="1552.0" type="qcurve" smooth="yes"/>
      <point x="1102.0" y="1552.0"/>
      <point x="1322.0" y="1450.0"/>
      <point x="1322.0" y="1379.0" type="qcurve" smooth="yes"/>
      <point x="1322.0" y="1314.0"/>
      <point x="1244.0" y="1195.0"/>
      <point x="1191.0" y="1195.0" type="qcurve" smooth="yes"/>
      <point x="1176.0" y="1195.0"/>
      <point x="1156.0" y="1204.0"/>
      <point x="1138.0" y="1229.0" type="qcurve" smooth="yes"/>
      <point x="1127.0" y="1249.0"/>
      <point x="1076.0" y="1332.0"/>
      <point x="1015.0" y="1332.0" type="qcurve" smooth="yes"/>
      <point x="945.0" y="1332.0"/>
      <point x="889.0" y="1250.0"/>
      <point x="875.0" y="1187.0" type="qcurve" smooth="yes"/>
      <point x="818.0" y="936.0" type="line"/>
      <point x="832.0" y="913.0" type="line"/>
      <point x="683.0" y="82.0" type="line" smooth="yes"/>
      <point x="630.0" y="-225.0"/>
      <point x="247.0" y="-474.0"/>
      <point x="-32.0" y="-474.0" type="qcurve"/>
    </contour>
    <contour>
      <point x="842.0" y="-394.0" type="line" smooth="yes"/>
      <point x="876.0" y="-239.0" type="line"/>
      <point x="1066.0" y="-249.0" type="line" smooth="yes"/>
      <point x="1200.0" y="-250.0"/>
      <point x="1300.0" y="-142.0"/>
      <point x="1334.0" y="94.0" type="qcurve" smooth="yes"/>
      <point x="1456.0" y="905.0" type="line"/>
      <point x="1459.0" y="942.0" type="line"/>
      <point x="1502.0" y="1215.0" type="line" smooth="yes"/>
      <point x="1531.0" y="1389.0"/>
      <point x="1872.0" y="1582.0"/>
      <point x="2106.0" y="1582.0" type="qcurve" smooth="yes"/>
      <point x="2282.0" y="1582.0"/>
      <point x="2514.0" y="1470.0"/>
      <point x="2514.0" y="1373.0" type="qcurve" smooth="yes"/>
      <point x="2514.0" y="1303.0"/>
      <point x="2432.0" y="1198.0"/>
      <point x="2364.0" y="1198.0" type="qcurve" smooth="yes"/>
      <point x="2355.0" y="1198.0"/>
      <point x="2299.0" y="1235.0"/>
      <point x="2277.0" y="1263.0" type="qcurve" smooth="yes"/>
      <point x="2250.0" y="1295.0"/>
      <point x="2188.0" y="1395.0"/>
      <point x="2146.0" y="1395.0" type="qcurve" smooth="yes"/>
      <point x="2090.0" y="1395.0"/>
      <point x="2060.0" y="1310.0"/>
      <point x="2044.0" y="1217.0" type="qcurve" smooth="yes"/>
      <point x="1988.0" y="936.0" type="line"/>
      <point x="2002.0" y="913.0" type="line"/>
      <point x="1858.0" y="102.0" type="line" smooth="yes"/>
      <point x="1805.0" y="-206.0"/>
      <point x="1422.0" y="-454.0"/>
      <point x="1143.0" y="-454.0" type="qcurve"/>
    </contour>
    <contour>
      <point x="30.0" y="789.0" type="line"/>
      <point x="29.0" y="958.0" type="line"/>
      <point x="338.0" y="1000.0" type="line"/>
      <point x="2314.0" y="980.0" type="line"/>
      <point x="2281.0" y="793.0" type="line"/>
      <point x="730.0" y="790.0" type="line"/>
      <point x="353.0" y="772.0" type="line"/>
    </contour>
  </outline>
</glyph>
<glyph name="brevebelowcomb" format="2">
  <advance width="1024"/>
  <outline>
    <contour>
      <point x="724.0" y="-187.0" type="qcurve"/>
      <point x="820.0" y="-231.0" type="line"/>
      <point x="774.0" y="-352.0"/>
      <point x="511.0" y="-581.0"/>
      <point x="303.0" y="-581.0" type="qcurve" smooth="yes"/>
      <point x="115.0" y="-581.0"/>
      <point x="-80.0" y="-376.0"/>
      <point x="-69.0" y="-234.0" type="qcurve"/>
      <point x="51.0" y="-186.0" type="line"/>
      <point x="76.0" y="-264.0"/>
      <point x="218.0" y="-369.0"/>
      <point x="346.0" y="-369.0" type="qcurve" smooth="yes"/>
      <point x="479.0" y="-369.0"/>
      <point x="663.0" y="-265.0"/>
    </contour>
  </outline>
</glyph>
<glyph name="breveinvertedcomb" format="2">
  <advance width="1024"/>
  <outline>
    <contour>
      <point x="147.0" y="1184.0" type="qcurve"/>
      <point x="29.0" y="1233.0" type="line"/>
      <point x="97.0" y="1390.0"/>
      <point x="380.0" y="1578.0"/>
      <point x="600.0" y="1578.0" type="qcurve" smooth="yes"/>
      <point x="802.0" y="1578.0"/>
      <point x="1015.0" y="1353.0"/>
      <point x="1004.0" y="1211.0" type="qcurve"/>
      <point x="876.0" y="1163.0" type="line"/>
      <point x="849.0" y="1241.0"/>
      <point x="693.0" y="1366.0"/>
      <point x="557.0" y="1366.0" type="qcurve" smooth="yes"/>
      <point x="412.0" y="1366.0"/>
      <point x="212.0" y="1262.0"/>
    </contour>
  </outline>
</glyph>
<glyph name="caroncomb.alt" format="2">
  <advance width="1024"/>
  <outline>
    <contour>
      <point x="306.0" y="967.0" type="line"/>
      <point x="385.0" y="1348.0" type="line" smooth="yes"/>
      <point x="401.0" y="1427.0"/>
      <point x="474.0" y="1510.0"/>
      <point x="556.0" y="1510.0" type="qcurve" smooth="yes"/>
      <point x="624.0" y="1510.0"/>
      <point x="705.0" y="1442.0"/>
      <point x="705.0" y="1398.0" type="qcurve" smooth="yes"/>
      <point x="705.0" y="1354.0"/>
      <point x="686.0" y="1277.0"/>
      <point x="653.0" y="1233.0" type="qcurve" smooth="yes"/>
      <point x="427.0" y="923.0" type="line"/>
    </contour>
  </outline>
</glyph>
<glyph name="caroncomb.case" format="2">
  <advance width="1024"/>
  <outline>
    <contour>
      <point x="631.0" y="1610.0" type="qcurve" smooth="yes"/>
      <point x="590.0" y="1610.0"/>
      <point x="517.0" y="1652.0"/>
      <point x="482.0" y="1708.0" type="qcurve" smooth="yes"/>
      <point x="247.0" y="1989.0" type="line"/>
      <point x="365.0" y="2077.0" type="line"/>
      <point x="683.0" y="1869.0" type="line"/>
      <point x="1089.0" y="2077.0" type="line"/>
      <point x="1161.0" y="1979.0" type="line"/>
      <point x="816.0" y="1708.0" type="line" smooth="yes"/>
      <point x="750.0" y="1655.0"/>
      <point x="672.0" y="1610.0"/>
    </contour>
  </outline>
</glyph>
<glyph name="circumflexcombstack.case" format="2">
  <advance width="1024"/>
  <outline>
    <contour>
      <point x="886.0" y="2122.0" type="qcurve" smooth="yes"/>
      <point x="927.0" y="2122.0"/>
      <point x="1000.0" y="2057.0"/>
      <point x="1028.0" y="1998.0" type="qcurve" smooth="yes"/>
      <point x="1213.0" y="1677.0" type="line"/>
      <point x="1076.0" y="1590.0" type="line"/>
      <point x="848.0" y="1887.0" type="line"/>
      <point x="454.0" y="1586.0" type="line"/>
      <point x="365.0" y="1675.0" type="line"/>
      <point x="694.0" y="1998.0" type="line" smooth="yes"/>
      <point x="749.0" y="2056.0"/>
      <point x="845.0" y="2122.0"/>
    </contour>
  </outline>
</glyph>
<glyph name="dblgravecomb.case" format="2">
  <advance width="1024"/>
  <outline>
    <contour>
      <point x="-42.0" y="1985.0" type="qcurve" smooth="yes"/>
      <point x="-35.0" y="2024.0"/>
      <point x="58.0" y="2081.0"/>
      <point x="108.0" y="2077.0" type="qcurve" smooth="yes"/>
      <point x="153.0" y="2073.0"/>
      <point x="233.0" y="2003.0"/>
      <point x="270.0" y="1947.0" type="qcurve" smooth="yes"/>
      <point x="450.0" y="1673.0" type="line"/>
      <point x="357.0" y="1599.0" type="line"/>
      <point x="34.0" y="1818.0" type="line" smooth="yes"/>
      <point x="-15.0" y="1851.0"/>
      <point x="-51.0" y="1946.0"/>
    </contour>
    <contour>
      <point x="427.0" y="1987.0" type="qcurve" smooth="yes"/>
      <point x="434.0" y="2026.0"/>
      <point x="525.0" y="2082.0"/>
      <point x="576.0" y="2078.0" type="qcurve" smooth="yes"/>
      <point x="621.0" y="2075.0"/>
      <point x="697.0" y="2009.0"/>
      <point x="732.0" y="1954.0" type="qcurve" smooth="yes"/>
      <point x="908.0" y="1676.0" type="line"/>
      <point x="815.0" y="1601.0" type="line"/>
      <point x="496.0" y="1825.0" type="line" smooth="yes"/>
      <point x="449.0" y="1859.0"/>
      <point x="417.0" y="1947.0"/>
    </contour>
  </outline>
</glyph>
<glyph name="dblgravecomb" format="2">
  <advance width="1024"/>
  <outline>
    <contour>
      <point x="-192.0" y="1345.0" type="qcurve" smooth="yes"/>
      <point x="-213.0" y="1390.0"/>
      <point x="-152.0" y="1498.0"/>
      <point x="-94.0" y="1523.0" type="qcurve" smooth="yes"/>
      <point x="-43.0" y="1548.0"/>
      <point x="110.0" y="1517.0"/>
      <point x="183.0" y="1479.0" type="qcurve" smooth="yes"/>
      <point x="563.0" y="1313.0" type="line"/>
      <point x="520.0" y="1165.0" type="line"/>
      <point x="-9.0" y="1228.0" type="line" smooth="yes"/>
      <point x="-90.0" y="1235.0"/>
      <point x="-171.0" y="1300.0"/>
    </contour>
    <contour>
      <point x="513.0" y="1369.0" type="qcurve" smooth="yes"/>
      <point x="490.0" y="1414.0"/>
      <point x="551.0" y="1522.0"/>
      <point x="608.0" y="1546.0" type="qcurve" smooth="yes"/>
      <point x="659.0" y="1573.0"/>
      <point x="798.0" y="1545.0"/>
      <point x="869.0" y="1510.0" type="qcurve" smooth="yes"/>
      <point x="1255.0" y="1340.0" type="line"/>
      <point x="1212.0" y="1189.0" type="line"/>
      <point x="677.0" y="1259.0" type="line" smooth="yes"/>
      <point x="596.0" y="1267.0"/>
      <point x="531.0" y="1323.0"/>
    </contour>
  </outline>
</glyph>
<glyph name="dieresisbelowcomb" format="2">
  <advance width="1024"/>
  <outline>
    <contour>
      <point x="515.0" y="-320.0" type="qcurve" smooth="yes"/>
      <point x="515.0" y="-238.0"/>
      <point x="605.0" y="-151.0"/>
      <point x="689.0" y="-151.0" type="qcurve" smooth="yes"/>
      <point x="768.0" y="-151.0"/>
      <point x="863.0" y="-245.0"/>
      <point x="863.0" y="-320.0" type="qcurve" smooth="yes"/>
      <point x="863.0" y="-401.0"/>
      <point x="775.0" y="-489.0"/>
      <point x="689.0" y="-489.0" type="qcurve" smooth="yes"/>
      <point x="610.0" y="-489.0"/>
      <point x="515.0" y="-397.0"/>
    </contour>
    <contour>
      <point x="-21.0" y="-320.0" type="qcurve" smooth="yes"/>
      <point x="-21.0" y="-238.0"/>
      <point x="68.0" y="-151.0"/>
      <point x="153.0" y="-151.0" type="qcurve" smooth="yes"/>
      <point x="232.0" y="-151.0"/>
      <point x="327.0" y="-245.0"/>
      <point x="327.0" y="-320.0" type="qcurve" smooth="yes"/>
      <point x="327.0" y="-401.0"/>
      <point x="238.0" y="-489.0"/>
      <point x="153.0" y="-489.0" type="qcurve" smooth="yes"/>
      <point x="74.0" y="-489.0"/>
      <point x="-21.0" y="-397.0"/>
    </contour>
  </outline>
</glyph>
<glyph name="dieresiscombstack.case" format="2">
  <advance width="1024"/>
  <outline>
    <contour>
      <point x="216.0" y="1788.0" type="qcurve" smooth="yes"/>
      <point x="216.0" y="1872.0"/>
      <point x="285.0" y="1939.0"/>
      <point x="374.0" y="1939.0" type="qcurve" smooth="yes"/>
      <point x="450.0" y="1939.0"/>
      <point x="530.0" y="1858.0"/>
      <point x="530.0" y="1788.0" type="qcurve" smooth="yes"/>
      <point x="530.0" y="1704.0"/>
      <point x="463.0" y="1634.0"/>
      <point x="374.0" y="1634.0" type="qcurve" smooth="yes"/>
      <point x="296.0" y="1634.0"/>
      <point x="216.0" y="1714.0"/>
    </contour>
    <contour>
      <point x="686.0" y="1788.0" type="qcurve" smooth="yes"/>
      <point x="686.0" y="1872.0"/>
      <point x="756.0" y="1939.0"/>
      <point x="844.0" y="1939.0" type="qcurve" smooth="yes"/>
      <point x="920.0" y="1939.0"/>
      <point x="1000.0" y="1858.0"/>
      <point x="1000.0" y="1788.0" type="qcurve" smooth="yes"/>
      <point x="1000.0" y="1704.0"/>
      <point x="934.0" y="1634.0"/>
      <point x="844.0" y="1634.0" type="qcurve" smooth="yes"/>
      <point x="766.0" y="1634.0"/>
      <point x="686.0" y="1714.0"/>
    </contour>
  </outline>
</glyph>
<glyph name="dotbelowcomb" format="2">
  <advance width="1024"/>
  <outline>
    <contour>
      <point x="247.0" y="-320.0" type="qcurve" smooth="yes"/>
      <point x="247.0" y="-229.0"/>
      <point x="344.0" y="-147.0"/>
      <point x="434.0" y="-147.0" type="qcurve" smooth="yes"/>
      <point x="520.0" y="-147.0"/>
      <point x="621.0" y="-248.0"/>
      <point x="621.0" y="-331.0" type="qcurve" smooth="yes"/>
      <point x="621.0" y="-418.0"/>
      <point x="526.0" y="-502.0"/>
      <point x="434.0" y="-502.0" type="qcurve" smooth="yes"/>
      <point x="350.0" y="-502.0"/>
      <point x="247.0" y="-402.0"/>
    </contour>
  </outline>
</glyph>
<glyph name="engn" format="2">
  <advance width="2186"/>
  <outline>
    <contour>
      <point x="58.0" y="-3.0" type="line"/>
      <point x="8.0" y="114.0" type="line"/>
      <point x="160.0" y="552.0" type="line"/>
      <point x="221.0" y="849.0" type="line"/>
      <point x="-14.0" y="830.0" type="line"/>
      <point x="9.0" y="1023.0" type="line"/>
      <point x="489.0" y="1096.0" type="line"/>
      <point x="712.0" y="1096.0" type="line"/>
      <point x="745.0" y="835.0" type="line"/>
      <point x="722.0" y="687.0" type="line"/>
      <point x="581.0" y="241.0" type="line"/>
      <point x="690.0" y="48.0" type="line"/>
    </contour>
    <contour>
      <point x="643.0" y="761.0" type="line"/>
      <point x="828.0" y="949.0"/>
      <point x="1240.0" y="1110.0"/>
      <point x="1467.0" y="1110.0" type="qcurve" smooth="yes"/>
      <point x="1673.0" y="1110.0"/>
      <point x="1826.0" y="847.0"/>
      <point x="1777.0" y="607.0" type="qcurve" smooth="yes"/>
      <point x="1651.0" y="0.0" type="line"/>
      <point x="1098.0" y="0.0" type="line"/>
      <point x="1262.0" y="646.0" type="line" smooth="yes"/>
      <point x="1286.0" y="744.0"/>
      <point x="1243.0" y="822.0"/>
      <point x="1191.0" y="822.0" type="qcurve" smooth="yes"/>
      <point x="1071.0" y="822.0"/>
      <point x="767.0" y="708.0"/>
      <point x="656.0" y="558.0" type="qcurve"/>
    </contour>
  </outline>
</glyph>
<glyph name="five.lf" format="2">
  <advance width="1644"/>
  <outline>
    <contour>
      <point x="-29.0" y="205.0" type="qcurve" smooth="yes"/>
      <point x="-36.0" y="282.0"/>
      <point x="71.0" y="411.0"/>
      <point x="176.0" y="424.0" type="qcurve"/>
      <point x="211.0" y="422.0" type="line"/>
      <point x="217.0" y="360.0" type="line" smooth="yes"/>
      <point x="224.0" y="254.0"/>
      <point x="357.0" y="151.0"/>
      <point x="507.0" y="151.0" type="qcurve" smooth="yes"/>
      <point x="678.0" y="151.0"/>
      <point x="959.0" y="351.0"/>
      <point x="946.0" y="555.0" type="qcurve" smooth="yes"/>
      <point x="936.0" y="743.0"/>
      <point x="556.0" y="790.0"/>
      <point x="336.0" y="731.0" type="qcurve" smooth="yes"/>
      <point x="242.0" y="707.0" type="line"/>
      <point x="151.0" y="849.0" type="line"/>
      <point x="314.0" y="1433.0" type="line"/>
      <point x="404.0" y="1500.0" type="line"/>
      <point x="1416.0" y="1500.0" type="line"/>
      <point x="1342.0" y="1216.0" type="line"/>
      <point x="495.0" y="1216.0" type="line"/>
      <point x="482.0" y="1205.0" type="line"/>
      <point x="435.0" y="1036.0"/>
      <point x="404.0" y="961.0"/>
      <point x="372.0" y="926.0" type="qcurve"/>
      <point x="663.0" y="979.0" type="line"/>
      <point x="988.0" y="1001.0"/>
      <point x="1401.0" y="799.0"/>
      <point x="1411.0" y="602.0" type="qcurve" smooth="yes"/>
      <point x="1425.0" y="342.0"/>
      <point x="910.0" y="-34.0"/>
      <point x="525.0" y="-34.0" type="qcurve" smooth="yes"/>
      <point x="230.0" y="-34.0"/>
      <point x="-21.0" y="85.0"/>
    </contour>
  </outline>
</glyph>
<glyph name="four.lc" format="2">
  <advance width="1592"/>
  <outline>
    <contour>
      <point x="-79.0" y="10.0" type="line"/>
      <point x="-85.0" y="151.0" type="line"/>
      <point x="1113.0" y="1075.0" type="line"/>
      <point x="1363.0" y="975.0" type="line"/>
      <point x="1422.0" y="932.0" type="line"/>
      <point x="1288.0" y="115.0" type="line"/>
      <point x="1283.0" y="85.0" type="line"/>
      <point x="1240.0" y="-215.0" type="line"/>
      <point x="1253.0" y="-366.0" type="line"/>
      <point x="767.0" y="-424.0" type="line"/>
      <point x="724.0" y="-362.0" type="line"/>
      <point x="808.0" y="99.0" type="line"/>
      <point x="815.0" y="129.0" type="line"/>
      <point x="876.0" y="567.0" type="line"/>
      <point x="292.0" y="224.0" type="line"/>
      <point x="298.0" y="214.0" type="line"/>
      <point x="1086.0" y="207.0" type="line"/>
      <point x="1547.0" y="214.0" type="line"/>
      <point x="1520.0" y="9.0" type="line"/>
      <point x="1057.0" y="2.0" type="line"/>
    </contour>
  </outline>
</glyph>
<glyph name="hookabovecomb.case" format="2">
  <advance width="1024"/>
  <outline>
    <contour>
      <point x="399.0" y="1599.0" type="line"/>
      <point x="473.0" y="1864.0" type="line"/>
      <point x="603.0" y="1962.0" type="line"/>
      <point x="635.0" y="1952.0"/>
      <point x="723.0" y="1945.0"/>
      <point x="750.0" y="1945.0" type="qcurve" smooth="yes"/>
      <point x="822.0" y="1945.0"/>
      <point x="937.0" y="2011.0"/>
      <point x="934.0" y="2067.0" type="qcurve" smooth="yes"/>
      <point x="931.0" y="2103.0"/>
      <point x="838.0" y="2125.0"/>
      <point x="754.0" y="2125.0" type="qcurve" smooth="yes"/>
      <point x="687.0" y="2125.0"/>
      <point x="541.0" y="2100.0"/>
      <point x="466.0" y="2076.0" type="qcurve"/>
      <point x="437.0" y="2236.0" type="line"/>
      <point x="503.0" y="2267.0"/>
      <point x="765.0" y="2313.0"/>
      <point x="831.0" y="2313.0" type="qcurve" smooth="yes"/>
      <point x="1047.0" y="2313.0"/>
      <point x="1200.0" y="2179.0"/>
      <point x="1204.0" y="2098.0" type="qcurve" smooth="yes"/>
      <point x="1206.0" y="1952.0"/>
      <point x="1008.0" y="1786.0"/>
      <point x="833.0" y="1786.0" type="qcurve" smooth="yes"/>
      <point x="776.0" y="1786.0"/>
      <point x="680.0" y="1796.0"/>
      <point x="669.0" y="1796.0" type="qcurve"/>
      <point x="609.0" y="1599.0" type="line"/>
    </contour>
  </outline>
</glyph>
<glyph name="hookabovecomb" format="2">
  <advance width="1024"/>
  <outline>
    <contour>
      <point x="521.0" y="1391.0" type="line"/>
      <point x="651.0" y="1489.0" type="line"/>
      <point x="683.0" y="1479.0"/>
      <point x="771.0" y="1472.0"/>
      <point x="798.0" y="1472.0" type="qcurve" smooth="yes"/>
      <point x="870.0" y="1472.0"/>
      <point x="985.0" y="1538.0"/>
      <point x="982.0" y="1594.0" type="qcurve" smooth="yes"/>
      <point x="979.0" y="1630.0"/>
      <point x="886.0" y="1652.0"/>
      <point x="802.0" y="1652.0" type="qcurve" smooth="yes"/>
      <point x="735.0" y="1652.0"/>
      <point x="589.0" y="1627.0"/>
      <point x="514.0" y="1603.0" type="qcurve"/>
      <point x="485.0" y="1763.0" type="line"/>
      <point x="551.0" y="1794.0"/>
      <point x="813.0" y="1840.0"/>
      <point x="879.0" y="1840.0" type="qcurve" smooth="yes"/>
      <point x="1095.0" y="1840.0"/>
      <point x="1258.0" y="1706.0"/>
      <point x="1262.0" y="1625.0" type="qcurve" smooth="yes"/>
      <point x="1264.0" y="1479.0"/>
      <point x="1056.0" y="1313.0"/>
      <point x="881.0" y="1313.0" type="qcurve" smooth="yes"/>
      <point x="824.0" y="1313.0"/>
      <point x="728.0" y="1323.0"/>
      <point x="717.0" y="1323.0" type="qcurve"/>
      <point x="657.0" y="1126.0" type="line"/>
      <point x="447.0" y="1126.0" type="line"/>
    </contour>
  </outline>
</glyph>
<glyph name="hookabovecombstack.case" format="2">
  <advance width="1024"/>
  <outline>
    <contour>
      <point x="443.0" y="1671.0" type="line"/>
      <point x="501.0" y="1862.0" type="line"/>
      <point x="602.0" y="1898.0" type="line"/>
      <point x="627.0" y="1892.0"/>
      <point x="705.0" y="1884.0"/>
      <point x="727.0" y="1884.0" type="qcurve" smooth="yes"/>
      <point x="783.0" y="1884.0"/>
      <point x="882.0" y="1934.0"/>
      <point x="883.0" y="1993.0" type="qcurve" smooth="yes"/>
      <point x="883.0" y="2025.0"/>
      <point x="800.0" y="2049.0"/>
      <point x="733.0" y="2049.0" type="qcurve" smooth="yes"/>
      <point x="681.0" y="2049.0"/>
      <point x="581.0" y="2022.0"/>
      <point x="518.0" y="2001.0" type="qcurve"/>
      <point x="498.0" y="2138.0" type="line"/>
      <point x="568.0" y="2170.0"/>
      <point x="749.0" y="2212.0"/>
      <point x="798.0" y="2212.0" type="qcurve" smooth="yes"/>
      <point x="978.0" y="2212.0"/>
      <point x="1110.0" y="2101.0"/>
      <point x="1120.0" y="2038.0" type="qcurve" smooth="yes"/>
      <point x="1127.0" y="1883.0"/>
      <point x="953.0" y="1749.0"/>
      <point x="793.0" y="1749.0" type="qcurve" smooth="yes"/>
      <point x="746.0" y="1749.0"/>
      <point x="677.0" y="1754.0"/>
      <point x="656.0" y="1759.0" type="qcurve"/>
      <point x="618.0" y="1671.0" type="line"/>
    </contour>
  </outline>
</glyph>
<glyph name="horizontalbarH" format="2">
  <advance width="2847"/>
  <outline>
    <contour>
      <point x="2609.0" y="1055.0" type="line"/>
      <point x="741.0" y="1055.0" type="line"/>
      <point x="744.0" y="1072.0" type="line"/>
      <point x="721.0" y="1072.0" type="line"/>
      <point x="745.0" y="1174.0" type="line"/>
      <point x="768.0" y="1174.0" type="line"/>
      <point x="772.0" y="1192.0" type="line"/>
      <point x="2643.0" y="1192.0" type="line"/>
    </contour>
    <contour>
      <point x="235.0" y="1056.0" type="line"/>
      <point x="257.0" y="1192.0" type="line"/>
      <point x="729.0" y="1192.0" type="line"/>
      <point x="725.0" y="1174.0" type="line"/>
      <point x="745.0" y="1174.0" type="line"/>
      <point x="721.0" y="1072.0" type="line"/>
      <point x="701.0" y="1072.0" type="line"/>
      <point x="698.0" y="1056.0" type="line"/>
    </contour>
  </outline>
</glyph>
<glyph name="horncomb" format="2">
  <advance width="1024"/>
  <outline>
    <contour>
      <point x="435.0" y="965.0" type="line"/>
      <point x="537.0" y="965.0"/>
      <point x="582.0" y="965.0"/>
      <point x="629.0" y="965.0" type="qcurve" smooth="yes"/>
      <point x="733.0" y="965.0"/>
      <point x="828.0" y="1068.0"/>
      <point x="840.0" y="1100.0" type="qcurve" smooth="yes"/>
      <point x="854.0" y="1149.0"/>
      <point x="860.0" y="1208.0"/>
      <point x="865.0" y="1300.0" type="qcurve"/>
      <point x="1064.0" y="1300.0" type="line"/>
      <point x="1066.0" y="1280.0"/>
      <point x="1080.0" y="1214.0"/>
      <point x="1089.0" y="1177.0" type="qcurve" smooth="yes"/>
      <point x="1106.0" y="961.0"/>
      <point x="880.0" y="801.0"/>
      <point x="690.0" y="801.0" type="qcurve" smooth="yes"/>
      <point x="598.0" y="801.0"/>
      <point x="468.0" y="825.0"/>
      <point x="404.0" y="844.0" type="qcurve"/>
    </contour>
  </outline>
</glyph>
<glyph name="macronbelowcomb" format="2">
  <advance width="1024"/>
  <outline>
    <contour>
      <point x="-26.0" y="-467.0" type="line"/>
      <point x="30.0" y="-268.0" type="line"/>
      <point x="874.0" y="-268.0" type="line"/>
      <point x="818.0" y="-467.0" type="line"/>
    </contour>
  </outline>
</glyph>
<glyph name="nine.lc" format="2">
  <advance width="1633"/>
  <outline>
    <contour>
      <point x="1540.0" y="563.0" type="qcurve" smooth="yes"/>
      <point x="1521.0" y="194.0"/>
      <point x="694.0" y="-346.0"/>
      <point x="99.0" y="-423.0" type="qcurve"/>
      <point x="44.0" y="-263.0" type="line"/>
      <point x="447.0" y="-169.0"/>
      <point x="996.0" y="266.0"/>
      <point x="1022.0" y="587.0" type="qcurve" smooth="yes"/>
      <point x="1032.0" y="740.0"/>
      <point x="921.0" y="897.0"/>
      <point x="837.0" y="905.0" type="qcurve" smooth="yes"/>
      <point x="712.0" y="913.0"/>
      <point x="540.0" y="805.0"/>
      <point x="523.0" y="647.0" type="qcurve" smooth="yes"/>
      <point x="513.0" y="547.0"/>
      <point x="577.0" y="432.0"/>
      <point x="679.0" y="432.0" type="qcurve" smooth="yes"/>
      <point x="722.0" y="432.0"/>
      <point x="801.0" y="446.0"/>
      <point x="849.0" y="474.0" type="qcurve"/>
      <point x="868.0" y="331.0" type="line"/>
      <point x="809.0" y="289.0"/>
      <point x="624.0" y="245.0"/>
      <point x="505.0" y="245.0" type="qcurve" smooth="yes"/>
      <point x="272.0" y="245.0"/>
      <point x="28.0" y="456.0"/>
      <point x="40.0" y="608.0" type="qcurve" smooth="yes"/>
      <point x="60.0" y="832.0"/>
      <point x="510.0" y="1080.0"/>
      <point x="881.0" y="1080.0" type="qcurve" smooth="yes"/>
      <point x="1197.0" y="1080.0"/>
      <point x="1552.0" y="804.0"/>
    </contour>
  </outline>
</glyph>
<glyph name="seven.lc" format="2">
  <advance width="1420"/>
  <outline>
    <contour>
      <point x="11.0" y="550.0" type="line"/>
      <point x="199.0" y="1012.0" type="line"/>
      <point x="1380.0" y="1012.0" type="line"/>
      <point x="1425.0" y="896.0" type="line"/>
      <point x="1025.0" y="409.0"/>
      <point x="713.0" y="-118.0"/>
      <point x="618.0" y="-341.0" type="qcurve"/>
      <point x="226.0" y="-430.0" type="line"/>
      <point x="171.0" y="-360.0" type="line"/>
      <point x="292.0" y="-103.0"/>
      <point x="646.0" y="341.0"/>
      <point x="958.0" y="686.0" type="qcurve"/>
      <point x="944.0" y="704.0" type="line"/>
      <point x="323.0" y="704.0" type="line"/>
      <point x="234.0" y="550.0" type="line"/>
    </contour>
  </outline>
</glyph>
<glyph name="seven.lf" format="2">
  <advance width="1495"/>
  <outline>
    <contour>
      <point x="28.0" y="1024.0" type="line"/>
      <point x="173.0" y="1500.0" type="line"/>
      <point x="1499.0" y="1500.0" type="line"/>
      <point x="1553.0" y="1356.0" type="line"/>
      <point x="1144.0" y="963.0"/>
      <point x="623.0" y="333.0"/>
      <point x="562.0" y="25.0" type="qcurve"/>
      <point x="237.0" y="-28.0" type="line"/>
      <point x="175.0" y="46.0" type="line"/>
      <point x="372.0" y="511.0"/>
      <point x="664.0" y="822.0"/>
      <point x="1080.0" y="1176.0" type="qcurve"/>
      <point x="1064.0" y="1195.0" type="line"/>
      <point x="282.0" y="1197.0" type="line"/>
      <point x="221.0" y="1024.0" type="line"/>
    </contour>
  </outline>
</glyph>
<glyph name="seven.tab" format="2">
  <advance width="1923"/>
  <outline>
    <contour>
      <point x="196.0" y="1024.0" type="line"/>
      <point x="341.0" y="1500.0" type="line"/>
      <point x="1647.0" y="1500.0" type="line"/>
      <point x="1701.0" y="1356.0" type="line"/>
      <point x="1292.0" y="963.0"/>
      <point x="771.0" y="333.0"/>
      <point x="710.0" y="25.0" type="qcurve"/>
      <point x="385.0" y="-28.0" type="line"/>
      <point x="323.0" y="46.0" type="line"/>
      <point x="494.0" y="485.0"/>
      <point x="778.0" y="809.0"/>
      <point x="1228.0" y="1176.0" type="qcurve"/>
      <point x="1212.0" y="1195.0" type="line"/>
      <point x="450.0" y="1197.0" type="line"/>
      <point x="389.0" y="1024.0" type="line"/>
    </contour>
  </outline>
</glyph>
<glyph name="six.lc" format="2">
  <advance width="1628"/>
  <outline>
    <contour>
      <point x="29.0" y="454.0" type="qcurve" smooth="yes"/>
      <point x="41.0" y="792.0"/>
      <point x="872.0" y="1274.0"/>
      <point x="1424.0" y="1312.0" type="qcurve"/>
      <point x="1471.0" y="1139.0" type="line"/>
      <point x="1081.0" y="1075.0"/>
      <point x="560.0" y="724.0"/>
      <point x="545.0" y="426.0" type="qcurve" smooth="yes"/>
      <point x="536.0" y="273.0"/>
      <point x="651.0" y="146.0"/>
      <point x="748.0" y="138.0" type="qcurve" smooth="yes"/>
      <point x="867.0" y="130.0"/>
      <point x="1033.0" y="246.0"/>
      <point x="1038.0" y="397.0" type="qcurve" smooth="yes"/>
      <point x="1042.0" y="496.0"/>
      <point x="967.0" y="583.0"/>
      <point x="876.0" y="583.0" type="qcurve" smooth="yes"/>
      <point x="833.0" y="583.0"/>
      <point x="751.0" y="565.0"/>
      <point x="704.0" y="537.0" type="qcurve"/>
      <point x="687.0" y="679.0" type="line"/>
      <point x="743.0" y="721.0"/>
      <point x="925.0" y="770.0"/>
      <point x="1044.0" y="770.0" type="qcurve" smooth="yes"/>
      <point x="1279.0" y="770.0"/>
      <point x="1531.0" y="577.0"/>
      <point x="1522.0" y="426.0" type="qcurve" smooth="yes"/>
      <point x="1511.0" y="199.0"/>
      <point x="1062.0" y="-44.0"/>
      <point x="705.0" y="-44.0" type="qcurve" smooth="yes"/>
      <point x="383.0" y="-44.0"/>
      <point x="21.0" y="213.0"/>
    </contour>
  </outline>
</glyph>
<glyph name="three.lc" format="2">
  <advance width="1337"/>
  <outline>
    <contour>
      <point x="-198.0" y="-206.0" type="line"/>
      <point x="-151.0" y="-217.0"/>
      <point x="-25.0" y="-228.0"/>
      <point x="54.0" y="-228.0" type="qcurve" smooth="yes"/>
      <point x="328.0" y="-228.0"/>
      <point x="667.0" y="-99.0"/>
      <point x="676.0" y="61.0" type="qcurve" smooth="yes"/>
      <point x="683.0" y="168.0"/>
      <point x="507.0" y="305.0"/>
      <point x="306.0" y="319.0" type="qcurve" smooth="yes"/>
      <point x="213.0" y="326.0" type="line"/>
      <point x="230.0" y="481.0" type="line"/>
      <point x="292.0" y="484.0" type="line" smooth="yes"/>
      <point x="498.0" y="494.0"/>
      <point x="761.0" y="610.0"/>
      <point x="765.0" y="712.0" type="qcurve" smooth="yes"/>
      <point x="766.0" y="767.0"/>
      <point x="672.0" y="835.0"/>
      <point x="550.0" y="835.0" type="qcurve" smooth="yes"/>
      <point x="455.0" y="835.0"/>
      <point x="215.0" y="761.0"/>
      <point x="141.0" y="722.0" type="qcurve"/>
      <point x="59.0" y="898.0" type="line"/>
      <point x="159.0" y="981.0"/>
      <point x="501.0" y="1081.0"/>
      <point x="716.0" y="1080.0" type="qcurve" smooth="yes"/>
      <point x="1000.0" y="1079.0"/>
      <point x="1267.0" y="917.0"/>
      <point x="1259.0" y="785.0" type="qcurve" smooth="yes"/>
      <point x="1252.0" y="630.0"/>
      <point x="961.0" y="445.0"/>
      <point x="754.0" y="418.0" type="qcurve"/>
      <point x="752.0" y="413.0" type="line"/>
      <point x="935.0" y="398.0"/>
      <point x="1182.0" y="232.0"/>
      <point x="1172.0" y="84.0" type="qcurve" smooth="yes"/>
      <point x="1155.0" y="-162.0"/>
      <point x="575.0" y="-417.0"/>
      <point x="90.0" y="-417.0" type="qcurve" smooth="yes"/>
      <point x="-10.0" y="-417.0"/>
      <point x="-216.0" y="-393.0"/>
      <point x="-270.0" y="-369.0" type="qcurve"/>
    </contour>
  </outline>
</glyph>
<glyph name="tildecomb.case" format="2">
  <advance width="1024"/>
  <outline>
    <contour>
      <point x="162.0" y="1747.0" type="line"/>
      <point x="215.0" y="1828.0"/>
      <point x="381.0" y="1959.0"/>
      <point x="468.0" y="1959.0" type="qcurve" smooth="yes"/>
      <point x="514.0" y="1959.0"/>
      <point x="588.0" y="1922.0"/>
      <point x="627.0" y="1895.0" type="qcurve" smooth="yes"/>
      <point x="658.0" y="1873.0"/>
      <point x="740.0" y="1824.0"/>
      <point x="786.0" y="1824.0" type="qcurve" smooth="yes"/>
      <point x="831.0" y="1824.0"/>
      <point x="937.0" y="1875.0"/>
      <point x="971.0" y="1916.0" type="qcurve"/>
      <point x="1012.0" y="1810.0" type="line"/>
      <point x="951.0" y="1716.0"/>
      <point x="802.0" y="1610.0"/>
      <point x="730.0" y="1610.0" type="qcurve" smooth="yes"/>
      <point x="676.0" y="1610.0"/>
      <point x="580.0" y="1668.0"/>
      <point x="551.0" y="1687.0" type="qcurve" smooth="yes"/>
      <point x="515.0" y="1712.0"/>
      <point x="443.0" y="1745.0"/>
      <point x="409.0" y="1745.0" type="qcurve" smooth="yes"/>
      <point x="357.0" y="1745.0"/>
      <point x="242.0" y="1665.0"/>
      <point x="216.0" y="1634.0" type="qcurve"/>
    </contour>
  </outline>
</glyph>
<glyph name="two.lc" format="2">
  <advance width="1409"/>
  <outline>
    <contour>
      <point x="-41.0" y="-5.0" type="qcurve"/>
      <point x="-138.0" y="135.0" type="line"/>
      <point x="-87.0" y="163.0"/>
      <point x="-17.0" y="188.0"/>
      <point x="34.0" y="216.0" type="qcurve" smooth="yes"/>
      <point x="330.0" y="351.0"/>
      <point x="729.0" y="581.0"/>
      <point x="732.0" y="694.0" type="qcurve" smooth="yes"/>
      <point x="733.0" y="783.0"/>
      <point x="611.0" y="838.0"/>
      <point x="526.0" y="838.0" type="qcurve"/>
      <point x="420.0" y="838.0"/>
      <point x="204.0" y="797.0"/>
      <point x="120.0" y="749.0" type="qcurve"/>
      <point x="31.0" y="915.0" type="line"/>
      <point x="118.0" y="980.0"/>
      <point x="434.0" y="1078.0"/>
      <point x="652.0" y="1078.0" type="qcurve"/>
      <point x="933.0" y="1078.0"/>
      <point x="1257.0" y="909.0"/>
      <point x="1264.0" y="799.0" type="qcurve" smooth="yes"/>
      <point x="1279.0" y="605.0"/>
      <point x="872.0" y="410.0"/>
      <point x="527.0" y="312.0" type="qcurve"/>
      <point x="531.0" y="309.0" type="line"/>
      <point x="549.0" y="312.0"/>
      <point x="619.0" y="321.0"/>
      <point x="637.0" y="324.0" type="qcurve"/>
      <point x="804.0" y="307.0"/>
      <point x="894.0" y="308.0"/>
      <point x="1066.0" y="293.0" type="qcurve"/>
      <point x="1154.0" y="401.0" type="line"/>
      <point x="1345.0" y="371.0" type="line"/>
      <point x="1197.0" y="-30.0" type="line"/>
      <point x="1015.0" y="-4.0"/>
      <point x="604.0" y="39.0"/>
      <point x="441.0" y="39.0" type="qcurve" smooth="yes"/>
      <point x="340.0" y="39.0"/>
      <point x="35.0" y="14.0"/>
    </contour>
  </outline>
</glyph>
<glyph name="two.tab" format="2">
  <advance width="1923"/>
  <outline>
    <contour>
      <point x="116.0" y="12.0" type="qcurve"/>
      <point x="26.0" y="138.0" type="line"/>
      <point x="192.0" y="244.0" type="line" smooth="yes"/>
      <point x="453.0" y="338.0"/>
      <point x="1055.0" y="865.0"/>
      <point x="1038.0" y="1064.0" type="qcurve" smooth="yes"/>
      <point x="1029.0" y="1154.0"/>
      <point x="856.0" y="1271.0"/>
      <point x="725.0" y="1271.0" type="qcurve" smooth="yes"/>
      <point x="616.0" y="1271.0"/>
      <point x="429.0" y="1175.0"/>
      <point x="352.0" y="1089.0" type="qcurve"/>
      <point x="233.0" y="1233.0" type="line"/>
      <point x="349.0" y="1397.0"/>
      <point x="635.0" y="1520.0"/>
      <point x="883.0" y="1520.0" type="qcurve" smooth="yes"/>
      <point x="1176.0" y="1520.0"/>
      <point x="1465.0" y="1315.0"/>
      <point x="1478.0" y="1161.0" type="qcurve" smooth="yes"/>
      <point x="1502.0" y="887.0"/>
      <point x="1026.0" y="554.0"/>
      <point x="659.0" y="328.0" type="qcurve"/>
      <point x="658.0" y="325.0" type="line"/>
      <point x="701.0" y="338.0"/>
      <point x="764.0" y="350.0"/>
      <point x="807.0" y="363.0" type="qcurve"/>
      <point x="957.0" y="354.0"/>
      <point x="1069.0" y="350.0"/>
      <point x="1220.0" y="337.0" type="qcurve"/>
      <point x="1340.0" y="477.0" type="line"/>
      <point x="1527.0" y="450.0" type="line"/>
      <point x="1340.0" y="-20.0" type="line"/>
      <point x="1188.0" y="12.0"/>
      <point x="847.0" y="52.0"/>
      <point x="676.0" y="55.0" type="qcurve" smooth="yes"/>
      <point x="561.0" y="57.0"/>
      <point x="215.0" y="30.0"/>
    </contour>
  </outline>
</glyph>
<glyph name="zero.lf" format="2">
  <advance width="1921"/>
  <outline>
    <contour>
      <point x="33.0" y="878.0" type="qcurve" smooth="yes"/>
      <point x="89.0" y="1199.0"/>
      <point x="628.0" y="1548.0"/>
      <point x="1008.0" y="1515.0" type="qcurve" smooth="yes"/>
      <point x="1379.0" y="1481.0"/>
      <point x="1748.0" y="1001.0"/>
      <point x="1690.0" y="651.0" type="qcurve" smooth="yes"/>
      <point x="1635.0" y="322.0"/>
      <point x="1083.0" y="-46.0"/>
      <point x="711.0" y="-14.0" type="qcurve" smooth="yes"/>
      <point x="324.0" y="22.0"/>
      <point x="-31.0" y="505.0"/>
    </contour>
    <contour>
      <point x="584.0" y="863.0" type="qcurve" smooth="yes"/>
      <point x="515.0" y="537.0"/>
      <point x="562.0" y="219.0"/>
      <point x="725.0" y="187.0" type="qcurve" smooth="yes"/>
      <point x="906.0" y="153.0"/>
      <point x="1088.0" y="410.0"/>
      <point x="1144.0" y="675.0" type="qcurve" smooth="yes"/>
      <point x="1200.0" y="953.0"/>
      <point x="1157.0" y="1297.0"/>
      <point x="989.0" y="1329.0" type="qcurve" smooth="yes"/>
      <point x="828.0" y="1360.0"/>
      <point x="646.0" y="1151.0"/>
    </contour>
  </outline>
</glyph>
<glyph name="zero.tab" format="2">
  <advance width="1923"/>
  <outline>
    <contour>
      <point x="3.0" y="895.0" type="qcurve" smooth="yes"/>
      <point x="59.0" y="1216.0"/>
      <point x="655.0" y="1550.0"/>
      <point x="993.0" y="1515.0" type="qcurve" smooth="yes"/>
      <point x="1385.0" y="1476.0"/>
      <point x="1759.0" y="987.0"/>
      <point x="1697.0" y="637.0" type="qcurve" smooth="yes"/>
      <point x="1638.0" y="310.0"/>
      <point x="1034.0" y="-48.0"/>
      <point x="696.0" y="-14.0" type="qcurve" smooth="yes"/>
      <point x="295.0" y="25.0"/>
      <point x="-61.0" y="522.0"/>
    </contour>
    <contour>
      <point x="540.0" y="856.0" type="qcurve" smooth="yes"/>
      <point x="487.0" y="604.0"/>
      <point x="548.0" y="212.0"/>
      <point x="711.0" y="180.0" type="qcurve" smooth="yes"/>
      <point x="892.0" y="146.0"/>
      <point x="1104.0" y="365.0"/>
      <point x="1160.0" y="668.0" type="qcurve" smooth="yes"/>
      <point x="1212.0" y="946.0"/>
      <point x="1143.0" y="1290.0"/>
      <point x="975.0" y="1322.0" type="qcurve" smooth="yes"/>
      <point x="816.0" y="1353.0"/>
      <point x="600.0" y="1144.0"/>
    </contour>
  </outline>
</glyph>
